<?xml version="1.0" encoding="utf-8"?>
<!-- Generator: Adobe Illustrator 27.0.0, SVG Export Plug-In . SVG Version: 6.00 Build 0)  -->
<svg version="1.1" id="Capa_1" xmlns="http://www.w3.org/2000/svg" xmlns:xlink="http://www.w3.org/1999/xlink" x="0px" y="0px"
	 viewBox="0 0 397.4 153.4" style="enable-background:new 0 0 397.4 153.4;" xml:space="preserve">
<style type="text/css">
	.st0{fill:#0A0806;}
	.st1{fill:#FFFFFF;}
	.st2{fill:#EE751C;}
	.st3{fill:#C83383;}
</style>
<g>
	<g>
		<g>
			<path class="st0" d="M203.7,116.1l-8.3,23.7h-4.1l-8.1-23.7h-0.1l-1.7,23.5h-5.6l2.6-31.2h7.7l7.5,22.4h0.1l7.6-22.4h7.5
				l2.7,31.2h-5.8L203.7,116.1L203.7,116.1z"/>
			<path class="st0" d="M235.6,108.5v4.9h-13.4v7.7h12.6v4.8h-12.6v8.9H236v4.9h-19.6v-31.2H235.6z"/>
			<path class="st0" d="M238.3,143.9c2.2,0,2.6-1.9,2.6-4.5v-30.9h5.8v30.8c0,3.2-0.6,5.4-1.7,6.8c-1,1.4-2.8,2.4-5.3,2.4
				c-2,0-3.7-0.5-4-0.6l0.2-4.3C236.5,143.8,237.3,143.9,238.3,143.9z"/>
			<path class="st0" d="M370.5,127v12.6h-5.9v-31.2h10c3.3,0,5.9,0.7,7.9,2.2c1.9,1.5,3.3,3.9,3.3,6.9c0,5.4-2.9,7.5-6.7,8.7
				l8.4,13.4h-6.9l-7.4-12.6H370.5z M378,121.4c1.2-0.9,1.8-1.9,1.8-3.7c0-1.7-0.6-2.8-1.8-3.7c-1.1-0.9-2.6-1-4.5-1h-3.1v9.3h3.1
				C375.4,122.4,376.9,122.2,378,121.4z"/>
			<g>
				<path class="st0" d="M185.8,97.1l-0.4-7.4h0l-2.3,7.4h-2l-2.3-7.4h0l-0.4,7.4h-2.5l0.8-10.8h3.2l2.3,7.1h0l2.2-7.1h3.2l0.8,10.8
					H185.8z"/>
				<path class="st0" d="M189.9,97.1V86.3h2.5v10.8H189.9z"/>
				<path class="st0" d="M199.5,97.3c-3.2,0-5.7-2.1-5.7-5.6c0-3.5,2.5-5.6,5.7-5.6c2.2,0,3.4,0.9,3.7,1.2l-0.8,2.1
					c-0.2-0.3-1.4-1.1-2.8-1.1c-1.8,0-3.2,1.2-3.2,3.3c0,2.1,1.5,3.3,3.2,3.3c1.3,0,2.3-0.5,2.9-1.1l0.8,2
					C202.9,96.4,201.7,97.3,199.5,97.3z"/>
				<path class="st0" d="M211.5,97.1v-4.5h-4.3v4.5h-2.5V86.3h2.5v4.2h4.3v-4.2h2.5v10.8H211.5z"/>
				<path class="st0" d="M221.2,97.3c-3.2,0-5.7-2.1-5.7-5.6c0-3.5,2.5-5.6,5.7-5.6s5.7,2.1,5.7,5.6
					C226.9,95.2,224.4,97.3,221.2,97.3z M221.2,88.3c-1.8,0-3.2,1.3-3.2,3.4c0,2.1,1.4,3.4,3.2,3.4s3.2-1.3,3.2-3.4
					C224.3,89.6,223,88.3,221.2,88.3z"/>
				<path class="st0" d="M235,97.1l-0.8-2.2h-3.9l-0.8,2.2H227l4.1-10.8h2.6l4.1,10.8H235z M232.3,89.1L231,93h2.7L232.3,89.1z"/>
				<path class="st0" d="M243.5,97.3c-3.2,0-5.7-2.1-5.7-5.6c0-3.5,2.5-5.6,5.7-5.6c2.2,0,3.4,0.9,3.7,1.2l-0.8,2.1
					c-0.2-0.3-1.4-1.1-2.8-1.1c-1.8,0-3.2,1.2-3.2,3.3c0,2.1,1.5,3.3,3.2,3.3c1.3,0,2.3-0.5,2.9-1.1l0.8,2
					C246.9,96.4,245.7,97.3,243.5,97.3z"/>
				<path class="st0" d="M255.6,97.1l-0.8-2.2H251l-0.8,2.2h-2.6l4.1-10.8h2.6l4.1,10.8H255.6z M252.9,89.1l-1.3,3.9h2.7L252.9,89.1
					z M253.8,85.6H252l1.2-2.3h2.1L253.8,85.6z"/>
				<path class="st0" d="M266.5,97.1l-4.8-7.3c0,0,0,1.3,0,2.4v4.9h-2.5V86.3h2.7l4.6,7.3c0,0,0-1.2,0-2.4v-4.9h2.5v10.8H266.5z"/>
			</g>
			<g>
				<path class="st0" d="M274.4,97.1V86.3h6.3v1.3h-4.8v3.2h4.5v1.3h-4.5v3.7h4.9v1.3H274.4z"/>
				<path class="st0" d="M285.6,97.3c-1.9,0-3-1.2-3.5-1.8l0.9-1c0.5,0.7,1.6,1.6,2.7,1.6c1.2,0,2.1-0.7,2.1-1.8
					c0-1.1-1.2-1.6-1.8-1.8c-0.6-0.2-1.3-0.5-1.7-0.7c-1.1-0.5-1.8-1.4-1.8-2.7c0-1.9,1.8-2.9,3.5-2.9c1.8,0,2.8,1.1,3.1,1.4l-0.8,1
					c-0.5-0.6-1.3-1.2-2.4-1.2c-1.1,0-1.9,0.5-1.9,1.5s0.7,1.4,1.4,1.6l2,0.8c1.1,0.5,1.9,1.4,1.9,2.7
					C289.4,96.2,287.5,97.3,285.6,97.3z"/>
			</g>
			<path class="st0" d="M285.3,107.8h-21.8c-6.3,0-11.5,5.2-11.5,11.5v9.5c0,6.3,5.2,11.5,11.5,11.5h84.6c6.3,0,11.5-5.2,11.5-11.5
				v-9.5c0-6.3-5.2-11.5-11.5-11.5h-2.4c0.5,1.6,0.8,3.5,0.8,5.5c0,0.1,0,0.2,0,0.2h1.6c3.2,0,5.8,2.6,5.8,5.8v9.5
				c0,3.2-2.6,5.8-5.8,5.8h-84.6c-3.2,0-5.8-2.6-5.8-5.8v0.7v-0.7v-1.4v-0.9v-2.3v-4.8c0-3.2,2.6-5.8,5.8-5.8h12.8h2.5h1.5h4.3h27.6
				c-0.1-0.6-0.2-1.2-0.2-1.8c-0.1-1.4,0-2.7,0.3-3.9h-19.2h-3.4h-1.5H285.3z"/>
			<g>
				<path class="st0" d="M256.7,128.3c-0.2,0-0.5-0.1-0.6-0.3c-0.2-0.3-0.1-0.8,0.2-1l129.9-79.4c0.3-0.2,0.8-0.1,1,0.2
					c0.2,0.3,0.1,0.8-0.2,1l-129.9,79.4C257,128.3,256.8,128.3,256.7,128.3z"/>
			</g>
			<g>
				<path class="st0" d="M229.1,36.3C229.1,36.3,229.1,36.3,229.1,36.3C229.1,36.3,229.1,36.3,229.1,36.3
					C229.1,36.3,229,36.3,229.1,36.3C229,36.3,229,36.4,229.1,36.3c-0.1,0.1-0.1,0.1-0.1,0.1c0,0,0,0,0,0c0,0,0,0,0,0c0,0,0,0,0,0
					c0,0,0,0,0,0c0,0,0,0,0,0c0,0,0,0,0,0c0,0,0,0,0,0c0,0,0,0,0,0c0,0,0,0,0,0c0,0,0,0,0,0c0,0,0,0,0,0c0,0,0,0,0,0c0,0,0,0,0,0
					c0,0,0,0.1,0.1,0.1l0,0c0,0,0,0,0,0l1.8,2c0,0,0,0,0,0c0,0,0,0,0,0c0,0,0,0,0.1,0.1c0,0,0,0,0,0c0,0,0,0,0.1,0c0,0,0,0,0,0
					c0,0,0.1,0,0.1,0c0,0,0,0,0,0c0,0,0,0,0,0c0,0,0,0,0,0c0,0,0.1,0,0.1,0c0,0,0,0,0,0c0,0,0,0,0.1,0c0,0,0,0,0,0
					c0,0,1-0.5,1.9-0.5c0.9,0,1.9,0.5,1.9,0.5c0,0,0,0,0,0c0,0,0,0,0,0c0,0,0,0,0,0c0,0,0,0,0.1,0c0,0,0,0,0,0c0,0,0,0,0,0
					c0,0,0,0,0,0c0,0,0,0,0,0c0,0,0,0,0,0c0,0,0,0,0,0c0,0,0,0,0,0c0,0,0,0,0,0c0,0,0,0,0,0c0,0,0,0,0,0c0,0,0,0,0,0l1.8-2
					c0,0,0,0,0,0c0,0,0,0,0,0c0,0,0,0,0,0c0,0,0,0,0,0c0,0,0,0,0,0c0,0,0,0,0,0c0,0,0,0,0,0c0,0,0,0,0,0c0,0,0,0,0,0c0,0,0,0,0,0
					c0,0,0,0,0,0c0,0,0,0,0,0c0,0,0,0,0,0c0,0,0,0,0,0c0,0,0,0,0,0c0,0,0,0,0,0c0,0,0,0,0,0c0,0,0,0,0,0c0,0,0,0,0,0c0,0,0,0,0,0
					c0,0,0,0,0,0c0,0,0,0,0,0c-0.1,0-2.1-1-4.1-1C231.2,35.3,229.2,36.2,229.1,36.3C229.1,36.3,229.1,36.3,229.1,36.3z M236.4,36.8
					l-1.2,1.3c-0.4-0.2-1.2-0.4-2-0.4c-0.8,0-1.6,0.3-2,0.4l-1.2-1.3c0.7-0.3,1.9-0.7,3.2-0.7C234.4,36.1,235.7,36.5,236.4,36.8z"/>
				<path class="st0" d="M235,39.7c0,0-0.9-0.4-1.8-0.4c-0.9,0-1.7,0.4-1.8,0.4c-0.2,0.1-0.3,0.4-0.2,0.6c0.1,0.2,0.4,0.3,0.6,0.2
					c0,0,0.7-0.4,1.4-0.4c0.7,0,1.4,0.3,1.4,0.4c0.1,0,0.1,0,0.2,0c0.2,0,0.3-0.1,0.4-0.2C235.3,40,235.2,39.8,235,39.7z"/>
				<path class="st0" d="M228.9,24.4C228.9,24.4,228.9,24.4,228.9,24.4C228.9,24.4,228.9,24.5,228.9,24.4c0,0.1,0,0.1,0,0.1
					c0,0,0,0,0,0c0,0,0,0,0,0c0,0,0,0,0,0c0,0,0,0,0,0c0,0,0,0,0,0l1.8,2c0,0,0,0,0,0c0,0,0,0,0,0c0,0,0,0,0.1,0.1c0,0,0,0,0,0
					c0,0,0,0,0.1,0c0,0,0,0,0,0c0,0,0.1,0,0.1,0c0,0,0,0,0,0c0,0,0,0,0,0c0,0,0,0,0,0c0,0,0.1,0,0.1,0c0,0,0,0,0,0c0,0,0,0,0.1,0
					c0,0,0,0,0,0c0,0,1-0.5,1.9-0.5c0.9,0,1.9,0.5,1.9,0.5c0,0,0,0,0,0c0,0,0,0,0,0c0,0,0,0,0,0c0,0,0,0,0.1,0c0,0,0,0,0,0
					c0,0,0,0,0,0c0,0,0,0,0,0c0,0,0,0,0,0c0,0,0,0,0,0c0,0,0,0,0,0c0,0,0,0,0,0c0,0,0,0,0,0c0,0,0,0,0,0c0,0,0,0,0,0c0,0,0,0,0,0
					l1.8-2c0,0,0,0,0,0l0,0c0,0,0-0.1,0.1-0.1c0,0,0,0,0,0c0,0,0,0,0,0c0,0,0,0,0,0c0,0,0,0,0,0c0,0,0,0,0,0c0,0,0,0,0,0
					c0,0,0,0,0,0c0,0,0,0,0,0c0,0,0,0,0,0c0,0,0,0,0,0c0,0,0,0,0,0c0,0,0,0,0,0c0,0,0,0,0,0c0,0,0,0,0,0c0,0,0,0,0,0c0,0,0,0,0,0
					c0,0,0,0,0,0c0,0,0,0,0,0c0,0,0,0,0,0c-0.1,0-2.1-1-4.1-1c-2,0-4,1-4.1,1c0,0,0,0,0,0c0,0,0,0,0,0c0,0,0,0,0,0c0,0,0,0,0,0
					c0,0,0,0,0,0c0,0,0,0,0,0c0,0,0,0,0,0c0,0,0,0,0,0c0,0,0,0,0,0c0,0,0,0,0,0c0,0,0,0,0,0C228.9,24.3,228.9,24.3,228.9,24.4
					C228.9,24.3,228.9,24.3,228.9,24.4C228.9,24.4,228.9,24.4,228.9,24.4z M236.4,24.5l-1.2,1.3c-0.4-0.2-1.2-0.4-2-0.4
					c-0.8,0-1.6,0.3-2,0.4l-1.2-1.3c0.7-0.3,1.9-0.7,3.2-0.7C234.4,23.8,235.7,24.2,236.4,24.5z"/>
				<path class="st0" d="M231.8,28.1c0,0,0.7-0.4,1.4-0.4c0.7,0,1.4,0.3,1.4,0.4c0.1,0,0.1,0,0.2,0c0.2,0,0.3-0.1,0.4-0.2
					c0.1-0.2,0-0.5-0.2-0.6c0,0-0.9-0.4-1.8-0.4s-1.7,0.4-1.8,0.4c-0.2,0.1-0.3,0.4-0.2,0.6C231.3,28.1,231.6,28.2,231.8,28.1z"/>
				<path class="st0" d="M223.9,30.2C223.9,30.2,223.9,30.2,223.9,30.2C223.9,30.2,223.9,30.2,223.9,30.2
					C223.9,30.2,223.9,30.2,223.9,30.2C223.9,30.3,223.9,30.3,223.9,30.2c-0.1,0.1-0.1,0.1-0.1,0.1c0,0,0,0,0,0c0,0,0,0,0,0
					c0,0,0,0,0,0c0,0,0,0,0,0c0,0,0,0,0,0c0,0,0,0,0,0c0,0,0,0,0,0c0,0,0,0,0,0c0,0,0,0,0,0c0,0,0,0,0,0c0,0,0,0,0,0c0,0,0,0,0,0
					c0,0,0,0,0,0c0,0,0,0.1,0.1,0.1l0,0c0,0,0,0,0,0l1.8,2c0,0,0,0,0,0c0,0,0,0,0,0c0,0,0,0,0.1,0.1c0,0,0,0,0,0c0,0,0,0,0.1,0
					c0,0,0,0,0,0c0,0,0.1,0,0.1,0c0,0,0,0,0,0c0,0,0,0,0,0c0,0,0,0,0,0c0,0,0.1,0,0.1,0c0,0,0,0,0,0c0,0,0,0,0.1,0c0,0,0,0,0,0
					c0,0,1-0.5,1.9-0.5c0.9,0,1.9,0.5,1.9,0.5c0,0,0,0,0,0c0,0,0,0,0,0c0,0,0,0,0,0c0,0,0,0,0.1,0c0,0,0,0,0,0c0,0,0,0,0,0
					c0,0,0,0,0,0c0,0,0,0,0,0c0,0,0,0,0,0c0,0,0,0,0,0c0,0,0,0,0,0c0,0,0,0,0,0c0,0,0,0,0,0c0,0,0,0,0,0c0,0,0,0,0,0l1.8-2
					c0,0,0,0,0,0c0,0,0,0,0,0c0,0,0,0,0,0c0,0,0,0,0,0c0,0,0,0,0,0c0,0,0,0,0,0c0,0,0,0,0,0c0,0,0,0,0,0c0,0,0,0,0,0c0,0,0,0,0,0
					c0,0,0,0,0,0c0,0,0,0,0,0c0,0,0,0,0,0c0,0,0,0,0,0c0,0,0,0,0,0c0,0,0,0,0,0c0,0,0,0,0,0c0,0,0,0,0,0c0,0,0,0,0,0c0,0,0,0,0,0
					c0,0,0,0,0,0c0,0,0,0,0,0c-0.1,0-2.1-1-4.1-1C226,29.2,224,30.1,223.9,30.2C224,30.2,224,30.2,223.9,30.2z M231.2,30.7L230,32
					c-0.4-0.2-1.2-0.4-2-0.4c-0.8,0-1.6,0.3-2,0.4l-1.2-1.3c0.7-0.3,1.9-0.7,3.2-0.7C229.3,30,230.5,30.5,231.2,30.7z"/>
				<path class="st0" d="M229.8,33.6c0,0-0.9-0.4-1.8-0.4c-0.9,0-1.7,0.4-1.8,0.4c-0.2,0.1-0.3,0.4-0.2,0.6c0.1,0.2,0.4,0.3,0.6,0.2
					c0,0,0.7-0.4,1.4-0.4s1.4,0.3,1.4,0.4c0.1,0,0.1,0,0.2,0c0.2,0,0.3-0.1,0.4-0.2C230.1,33.9,230,33.7,229.8,33.6z"/>
				<path class="st0" d="M236.7,59.5c-0.1,0-1.5-1.1-3-1.1c-1.1,0-2.2,0.6-2.7,1c-0.5-0.3-1.6-1-2.7-1c-1.5,0-2.9,1.1-3,1.1
					c-0.2,0.1-0.2,0.4-0.1,0.6c0.1,0.1,0.2,0.2,0.3,0.2c0.1,0,0.2,0,0.3-0.1c0,0,1.3-1,2.4-1c1.2,0,2.4,1,2.4,1c0,0,0,0,0,0
					c0,0,0,0,0,0c0,0,0,0,0,0c0,0,0,0,0,0c0,0,0,0,0,0c0,0,0,0,0,0c0,0,0,0,0,0c0,0,0,0,0,0c0,0,0,0,0,0c0,0,0,0,0,0c0,0,0,0,0,0
					c0,0,0,0,0,0c0,0,0,0,0,0c0,0,0,0,0,0c0,0,1.3-1,2.4-1c1.2,0,2.4,1,2.4,1c0.1,0.1,0.2,0.1,0.3,0.1c0.1,0,0.3-0.1,0.3-0.2
					C237,59.9,236.9,59.7,236.7,59.5z"/>
				<path class="st0" d="M225.2,57.8C225.2,57.8,225.2,57.8,225.2,57.8C225.2,57.9,225.2,57.9,225.2,57.8c0,0.1,0,0.1,0,0.1
					c0,0,0,0,0,0c0,0,0,0,0,0c0,0,0,0,0,0c0,0,0,0,0,0c0,0,0,0,0,0c0,0,0,0,0,0c0,0,0,0,0.1,0c0,0,0,0,0,0c0.1,0,0.1,0,0.2,0
					c0,0,0,0,0,0c0,0,0,0,0,0c0,0,0,0,0,0c0,0,0,0,0,0c0,0,0,0,0,0c0,0,0,0,0,0c0,0,0,0,0,0c0,0,0,0,0,0c0,0,1.3-1,2.4-1
					s2.4,1,2.4,1c0,0,0,0,0,0c0,0,0,0,0,0c0,0,0,0,0,0c0,0,0,0,0,0c0,0,0,0,0.1,0c0,0,0,0,0,0c0,0,0,0,0,0c0,0,0,0,0,0c0,0,0,0,0,0
					c0,0,0,0,0,0c0,0,0,0,0,0c0,0,0,0,0,0c0,0,0,0,0,0c0,0,0,0,0,0c0,0,0,0,0,0c0,0,0,0,0,0c0,0,0,0,0,0c0,0,0,0,0,0c0,0,0,0,0,0
					c0,0,0,0,0,0c0,0,0,0,0,0c0,0,0,0,0,0c0,0,0,0,0,0c0,0,1.3-1,2.4-1c1.2,0,2.4,1,2.4,1c0,0,0,0,0,0c0,0,0,0,0.1,0c0,0,0,0,0,0
					c0,0,0,0,0.1,0c0,0,0,0,0,0c0,0,0,0,0.1,0c0,0,0,0,0,0c0,0,0,0,0,0c0,0,0,0,0,0c0,0,0,0,0,0c0,0,0,0,0.1,0c0,0,0,0,0,0
					c0,0,0,0,0,0c0,0,0,0,0,0c0,0,0,0,0,0c0,0,0,0,0,0c0,0,0,0,0,0c0,0,0,0,0,0c0,0,0,0,0,0c0,0,0,0,0,0c0,0,0,0,0,0c0,0,0,0,0,0
					c0,0,0,0,0,0c0,0,0,0,0,0c0,0,0,0,0,0c0,0,0,0,0,0v-6.3c0,0,0,0,0,0c0,0,0,0,0,0c0,0,0,0,0,0c0,0,0,0,0,0c0,0,0,0,0,0
					c0,0,0,0,0,0c0,0,0,0,0,0c0,0,0,0,0,0c0,0,0,0,0,0c0,0,0,0,0,0c-0.1,0-1.5-1.1-3-1.1c-1.1,0-2.2,0.6-2.7,1c-0.5-0.3-1.6-1-2.7-1
					c-1.5,0-2.9,1.1-3,1.1c0,0,0,0,0,0c0,0,0,0,0,0c0,0,0,0,0,0c0,0,0,0,0,0c0,0,0,0,0,0c0,0,0,0,0,0c0,0,0,0,0,0.1c0,0,0,0,0,0
					c0,0,0,0,0,0.1c0,0,0,0,0,0L225.2,57.8C225.2,57.8,225.2,57.8,225.2,57.8C225.2,57.8,225.2,57.8,225.2,57.8z M236,51.6V57
					c-0.6-0.3-1.4-0.7-2.3-0.7c-0.9,0-1.7,0.4-2.3,0.7v-5.3c0.4-0.3,1.3-0.8,2.3-0.8C234.7,50.8,235.7,51.4,236,51.6z M230.6,51.6
					V57c-0.6-0.3-1.4-0.7-2.3-0.7c-0.9,0-1.7,0.4-2.3,0.7v-5.3c0.4-0.3,1.3-0.8,2.3-0.8C229.3,50.8,230.2,51.4,230.6,51.6z"/>
				<path class="st0" d="M225.9,16.1c-1-2.2-2.1-4.3-3.5-4.3c-1.3,0-2.4,2.1-3.5,4.3l-0.2,0.4c-0.5,1-1,2-1,3.1
					c0,0.7,0.7,1.4,1.4,1.4c0.3,0,0.6-0.1,1.3-0.4c0.6-0.2,1.5-0.6,2-0.6c0.5,0,1.3,0.3,2,0.6c0.7,0.3,1,0.4,1.3,0.4
					c0.7,0,1.4-0.7,1.4-1.4c0-1.1-0.5-2.1-1-3.1L225.9,16.1z M225.7,20.2c-0.1,0-0.6-0.2-1-0.3c-0.8-0.3-1.6-0.6-2.3-0.6
					c-0.6,0-1.5,0.3-2.3,0.6c-0.4,0.1-0.8,0.3-1,0.3c-0.2,0-0.5-0.3-0.5-0.5c0-0.9,0.4-1.8,0.9-2.8l0.2-0.4c0.4-0.9,1.7-3.8,2.7-3.8
					c1,0,2.2,2.8,2.7,3.8l0.2,0.4c0.5,1,0.9,1.9,0.9,2.8C226.1,19.9,225.9,20.2,225.7,20.2z"/>
				<path class="st0" d="M216.5,19.7c0.2,0,0.4-0.2,0.4-0.4c0-0.2-0.2-0.4-0.4-0.4h-11.4c-0.2,0-0.4,0.2-0.4,0.4v44
					c0,1,0.7,1.8,1.8,2.2l12.3,3.5c1.1,0.3,2.3,0.7,3.4,1.5c0,0,0,0,0.1,0c0,0,0,0,0,0c0,0,0,0,0.1,0c0,0,0,0,0,0c0,0,0.1,0,0.1,0
					c0,0,0,0,0,0c0,0,0,0,0,0c0,0,0.1,0,0.1,0c0,0,0,0,0,0c0,0,0,0,0.1,0c0,0,0,0,0,0c0,0,0,0,0.1,0c1-0.8,2.3-1.2,3.4-1.5l12.3-3.5
					c1.1-0.4,1.7-1.2,1.7-2.2v-44c0-0.2-0.2-0.4-0.4-0.4h-11.4c-0.2,0-0.4,0.2-0.4,0.4c0,0.2,0.2,0.4,0.4,0.4h11v24.2h-16.4v-1.7
					c0-0.1,0-0.1,0-0.2V21.4c0-0.2-0.2-0.4-0.4-0.4c-0.2,0-0.4,0.2-0.4,0.4v7c-0.1,0.1-0.2,0.2-0.3,0.4c-0.8,0.8-2.2,2.3-3.4,5
					c-1.2-2.4-1.9-3.5-2.1-3.8c-0.2-0.2-0.3-0.3-0.4-0.4c0,0,0,0,0,0c-0.5-0.4-0.9-0.6-1.1-0.7l0,0c0,0,0-0.1,0-0.1
					c0.7,0,1.2-0.2,1.3-0.2l0.4-0.1l-0.4-1.9l0.5-0.7l-0.2-0.3c0-0.1-0.8-1.2-1.3-2c0,0,0,0,0,0c-0.2-0.3-0.4-0.5-0.5-0.6
					c-0.7-0.7-2.2-0.6-3.4,0.4c-1.6,1.3-1.1,3.4-0.6,4.3c-0.1,0-0.3,0-0.4-0.1c-0.6-0.2-1-0.4-1-0.5c-0.2-0.1-0.5-0.1-0.6,0.1
					c-0.1,0.2-0.1,0.5,0.1,0.6c0,0,0.5,0.3,1.2,0.6c0.1,0,0.2,0.1,0.3,0.1c-0.6,0.1-1.3,0.4-1.8,0.9c-0.6,0.6-1.8,2.2-2.6,3.2V19.7
					H216.5z M208.3,34.5l0.7,2.8c-0.3,0.7-1.7,3.6-2.4,6.5c0,0.1,0,0.1,0,0.2h-1v-6L208.3,34.5z M211,29.2l1.7,4.4v0.2
					c-1.5-1.2-2.3-3.5-2.6-4.4C210.5,29.3,210.8,29.2,211,29.2z M215.1,39c-0.3-0.3-0.6-0.6-0.7-0.8c0.2,0,0.4-0.1,0.5-0.1
					c0.5-0.1,1-0.2,1.4-0.4C215.9,38.1,215.5,38.5,215.1,39z M213.6,38.6c0.2,0.3,0.4,0.6,0.8,0.9c-0.3,0.2-0.5,0.5-0.8,0.7V38.6z
					 M212.9,36.3c0.3-0.2,0.5-0.2,0.7-0.1c0.2,0.1,0.3,0.5,0.3,0.7c0,0.2-0.2,0.4-0.5,0.6c0,0,0,0-0.1,0c-0.2,0.1-0.5,0.2-0.6,0.2
					c0,0,0,0,0,0c-0.2,0-0.3-0.2-0.5-0.5l0-0.1C212.1,36.9,212.2,36.7,212.9,36.3z M212.9,41.7C212.9,41.7,212.9,41.8,212.9,41.7
					l2.2,2.2H209c1-1.2,2-1.5,2.9-1.8C212.2,42,212.6,41.9,212.9,41.7z M222,44.8v8.4h-2.3l-0.5-6.1c0,0,0,0,0,0c0,0,0,0,0,0
					c0,0,0,0,0-0.1c0,0,0,0,0,0c0,0,0,0,0-0.1c0,0,0,0,0,0c0,0,0,0,0-0.1c0,0,0,0,0,0c0,0,0,0,0,0c0,0,0,0,0,0c0,0,0,0,0,0
					c0,0,0,0,0,0c0,0,0,0,0,0c0,0,0,0-0.1,0c0,0,0,0,0,0c0,0,0,0,0,0h-1.3c0,0,0,0,0,0c0,0,0,0,0,0c0,0,0,0,0,0c0,0,0,0,0,0
					c0,0,0,0,0,0c0,0,0,0,0,0c0,0,0,0,0,0c0,0,0,0,0,0c0,0,0,0,0,0c0,0,0,0,0,0.1c0,0,0,0,0,0c0,0,0,0,0,0.1c0,0,0,0,0,0
					c0,0,0,0,0,0.1c0,0,0,0,0,0c0,0,0,0,0,0l-0.5,6.1h-2.3V51c0,0,0,0,0,0c0,0,0,0,0,0c0,0,0,0,0,0c0,0,0,0,0,0c0,0,0,0,0,0
					c0,0,0,0,0,0c0,0,0,0,0,0c0,0,0,0,0,0c0,0,0,0,0,0c0,0,0,0,0,0c0,0,0,0,0,0c0,0,0,0,0,0c0,0,0,0,0,0c0,0,0,0,0,0c0,0,0,0,0,0
					c0,0,0,0,0,0c0,0,0,0-0.1,0c0,0,0,0,0,0c0,0,0,0,0,0c0,0,0,0-0.1,0c0,0,0,0,0,0c0,0,0,0,0,0c0,0,0,0,0,0c0,0,0,0,0,0l-3.7,2.2
					V51c0,0,0,0,0,0c0,0,0,0,0,0c0,0,0,0,0,0c0,0,0,0,0,0c0,0,0,0,0,0c0,0,0,0,0,0c0,0,0,0,0,0c0,0,0,0,0,0c0,0,0,0,0,0c0,0,0,0,0,0
					c0,0,0,0,0,0c0,0,0,0,0,0c0,0,0,0,0,0c0,0,0,0,0,0c0,0,0,0,0,0c0,0,0,0,0,0c0,0,0,0-0.1,0c0,0,0,0,0,0c0,0,0,0,0,0
					c0,0,0,0-0.1,0c0,0,0,0,0,0c0,0,0,0,0,0c0,0,0,0,0,0c0,0,0,0,0,0l-3.7,2.2v-8H222z M206.7,64.7c-0.6-0.2-1.1-0.6-1.1-1.4v-9.5
					l3.5-2.1v1.8c0,0,0,0,0,0c0,0,0,0,0,0c0,0,0,0,0,0c0,0,0,0,0,0c0,0,0,0,0,0c0,0,0,0,0,0c0,0,0,0,0,0c0,0,0,0.1,0.1,0.1
					c0,0,0,0,0,0c0,0,0,0,0.1,0c0,0,0,0,0,0c0,0,0,0,0.1,0c0,0,0,0,0,0c0,0,0.1,0,0.1,0c0,0,0,0,0,0c0,0,0,0,0,0c0,0,0,0,0,0
					c0,0,0.1,0,0.1,0c0,0,0,0,0,0c0,0,0.1,0,0.1,0c0,0,0,0,0,0l3.7-2.2v1.8c0,0.2,0.2,0.4,0.4,0.4h3.1h0c0,0,0,0,0,0
					c0,0,0.1,0,0.1,0c0,0,0,0,0,0c0,0,0,0,0.1,0c0,0,0,0,0,0c0,0,0,0,0,0c0,0,0,0,0,0c0,0,0,0,0,0c0,0,0,0,0,0c0,0,0,0,0,0
					c0,0,0,0,0,0c0,0,0,0,0,0c0,0,0,0,0,0c0,0,0,0,0,0c0,0,0,0,0,0c0,0,0,0,0,0l0.5-6.1h0.5l0.5,6.1c0,0,0,0,0,0c0,0,0,0,0,0
					c0,0,0,0,0,0c0,0,0,0,0,0c0,0,0,0,0,0c0,0,0,0,0,0c0,0,0,0,0,0c0,0,0,0,0,0c0,0,0,0,0,0c0,0,0,0,0,0c0,0,0,0,0,0c0,0,0,0,0,0
					c0,0,0,0,0.1,0c0,0,0,0,0,0c0,0,0.1,0,0.1,0c0,0,0,0,0,0c0,0,0,0,0,0h2.7v15.4c-1-0.6-2-0.9-3-1.2L206.7,64.7z M239.3,44.8v18.6
					c0,0.7-0.6,1.2-1.1,1.4l-12.3,3.5c-0.9,0.3-2,0.6-3,1.2V44.8H239.3z M216.1,43.9c0-0.1,0-0.2-0.1-0.3l-2.3-2.3
					c0.5-0.3,0.9-0.7,1.4-1.2c0.6,0.5,1.5,0.9,2.5,1.4c2.2,0.9,3.4,1.2,4.2,1.2c0.1,0,0.1,0,0.2,0v1.2H216.1z M222,29.7v12.1
					c-0.4,0-1.5,0-4-1.1c-1-0.4-1.7-0.8-2.2-1.2c1.2-1.2,2.2-2.5,2.7-3.8C219.6,32.4,221,30.7,222,29.7z M217.8,34.9
					c-0.1,0.2-0.1,0.4-0.2,0.6c-0.1,0.2-0.2,0.5-0.3,0.7c-0.9,0.6-1.5,0.8-2.6,1c0-0.1,0-0.2,0.1-0.2c0-0.3,0-0.7-0.3-1l2.2-1.4
					c0.2-0.1,0.3-0.4,0.1-0.6c-0.1-0.2-0.4-0.3-0.6-0.1l-2.4,1.5c-0.1,0-0.1,0-0.2-0.1v-0.2c1.3-1.3,1.8-3.1,2.1-4.2
					C216,31.3,216.5,32.3,217.8,34.9z M214.9,30.1c-0.1,0.6-0.4,2.3-1.3,3.6v-0.1l0.8-3.8C214.5,29.8,214.7,29.9,214.9,30.1z
					 M215.2,27.8c-0.5,0.1-1.6,0.2-2.2-0.6c-0.1-0.2-0.4-0.2-0.6-0.1c-0.2,0.1-0.2,0.4-0.1,0.6c0.4,0.5,0.9,0.8,1.4,0.9
					c0,0,0,0,0,0.1l-0.7,3.4l-1.3-3.4c0,0,0,0,0,0c0,0-0.3-0.8,0.5-2.5c0.5-1.1,1.6-1.6,2.1-1.7c0.3,0.5,0.7,1,1,1.4l-0.4,0.5
					L215.2,27.8z M211.5,24c0.9-0.7,1.9-0.8,2.2-0.5c0,0,0,0,0,0.1c-0.7,0.3-1.8,0.9-2.4,2.1c-0.2,0.4-0.3,0.8-0.4,1.1
					C210.7,26.2,210.5,24.9,211.5,24z M205.6,34.1c0,0,2.3-3.1,3.2-4.1c0.2-0.2,0.4-0.3,0.6-0.4c0.3,1.1,1.3,4,3.4,5.2v0.6
					c-0.1,0.1-0.2,0.1-0.4,0.2c-0.6,0.4-1.3,0.9-1,1.8l0.1,0.1c0.2,0.3,0.5,1,1.3,1c0,0,0,0,0,0v2.3c-0.3,0.2-0.7,0.3-1.1,0.5
					c-1,0.3-2.2,0.7-3.5,2.3c-0.1,0.1-0.1,0.2-0.1,0.3h-0.6c0.8-3.1,2.4-6.4,2.4-6.4c0,0,0,0,0,0c0,0,0,0,0,0c0,0,0,0,0,0
					c0,0,0,0,0,0c0,0,0,0,0,0c0,0,0,0,0,0c0,0,0,0,0-0.1c0,0,0,0,0,0l-0.9-3.8c0,0,0,0,0,0c0,0,0,0,0,0c0,0,0,0,0,0c0,0,0,0,0,0
					c0,0,0,0,0,0c0,0,0,0,0,0c0,0,0,0,0,0c0,0,0,0,0,0c0,0,0,0,0,0c0,0,0,0,0,0c0,0,0,0,0,0c0,0,0,0,0,0c0,0,0,0,0,0c0,0,0,0,0,0
					c0,0,0,0-0.1,0c0,0,0,0,0,0c0,0,0,0-0.1,0c0,0,0,0,0,0c0,0,0,0,0,0c0,0,0,0-0.1,0c0,0,0,0,0,0c0,0,0,0,0,0c0,0,0,0,0,0
					c0,0,0,0,0,0c0,0,0,0,0,0c0,0,0,0,0,0l-2.5,3.2L205.6,34.1C205.6,34.1,205.6,34.1,205.6,34.1z"/>
				<path class="st0" d="M243.1,15.4h-16c-0.2,0-0.4,0.2-0.4,0.4s0.2,0.4,0.4,0.4h15.5v47.1c0,2.2-1.5,3.9-4,4.8l-12.1,3.5
					c0,0,0,0,0,0c0,0,0,0,0,0c-2.3,0.7-3.6,1.7-4.2,2.3c-0.6-0.6-1.8-1.6-4.2-2.3c0,0,0,0,0,0c0,0,0,0,0,0l-12.1-3.4
					c-2.5-0.8-4-2.6-4-4.8V16.3h15.5c0.2,0,0.4-0.2,0.4-0.4s-0.2-0.4-0.4-0.4h-16c-0.2,0-0.4,0.2-0.4,0.4v47.5
					c0,2.5,1.8,4.7,4.6,5.6l12.1,3.5c2.2,0.7,3.6,1.7,4.1,2.4c0,0,0,0,0,0c0,0,0,0,0,0c0,0,0,0,0,0c0,0,0,0,0,0c0,0,0,0,0.1,0
					c0,0,0,0,0,0c0,0,0,0,0.1,0c0,0,0,0,0,0c0,0,0.1,0,0.1,0c0,0,0,0,0,0c0,0,0,0,0,0c0,0,0.1,0,0.1,0c0,0,0,0,0,0c0,0,0,0,0.1,0
					c0,0,0,0,0,0c0,0,0,0,0.1,0c0,0,0,0,0,0c0,0,0,0,0,0c0,0,0,0,0,0c0,0,0,0,0,0c0.5-0.7,1.9-1.7,4.1-2.4l12.1-3.5
					c2.8-0.9,4.6-3.1,4.6-5.6V15.8C243.6,15.6,243.4,15.4,243.1,15.4z"/>
				<path class="st0" d="M215.6,10.8C215.6,10.8,215.6,10.8,215.6,10.8C215.6,10.9,215.6,10.9,215.6,10.8c0,0.1,0,0.1,0,0.1
					c0,0,0,0,0,0c0,0,0,0,0,0c0,0,0,0,0,0c0,0,0,0,0,0c0,0,0,0,0,0c0,0,0,0,0,0c0,0,0,0,0,0c0,0,0,0,0,0c0,0,0,0,0,0.1c0,0,0,0,0,0
					c0,0,0,0,0.1,0.1c0,0,0,0,0,0c0,0,0,0,0,0c0,0,0,0,0,0c0,0,0,0,0,0c0,0,0.1,0,0.1,0c0,0,0,0,0,0c0,0,0.1,0,0.1,0c0,0,0,0,0,0
					c0,0,0,0,0,0c0,0,0,0,0,0c0,0,0.1,0,0.1,0c0,0,0,0,0,0c0,0,0,0,0,0l3.2-1.2c0.9,0.5,2.3,1,4.3,1c3.6,0,5.5-1.8,5.5-1.9
					c0.1-0.1,0.1-0.2,0.1-0.3c0-0.1,0-0.2-0.1-0.3c-0.1-0.1-1.9-1.9-5.5-1.9c-1.9,0-3.4,0.5-4.3,1l-3.2-1.2c0,0,0,0,0,0c0,0,0,0,0,0
					c0,0,0,0,0,0c0,0,0,0,0,0c0,0,0,0,0,0c0,0,0,0,0,0c0,0,0,0,0,0c0,0,0,0,0,0c0,0,0,0,0,0c0,0,0,0,0,0c0,0,0,0,0,0c0,0,0,0,0,0
					c0,0,0,0,0,0c0,0,0,0,0,0c0,0,0,0,0,0c0,0,0,0,0,0c0,0,0,0,0,0c0,0,0,0,0,0c0,0,0,0,0,0c0,0,0,0,0,0c0,0,0,0,0,0c0,0,0,0,0,0
					c0,0,0,0,0,0c0,0,0,0,0,0c0,0,0,0,0,0c0,0,0,0,0,0c0,0,0,0,0,0c0,0,0,0,0,0l1,1.8L215.6,10.8C215.6,10.8,215.6,10.8,215.6,10.8z
					 M228.2,9c-0.7,0.5-2.2,1.3-4.5,1.3c-1.9,0-3.3-0.5-4.1-1c0,0,0,0,0,0c0,0,0,0-0.1,0c0,0,0,0,0,0c0,0,0,0-0.1,0c0,0,0,0,0,0
					c0,0,0,0,0,0c0,0,0,0,0,0c0,0,0,0,0,0c0,0,0,0-0.1,0c0,0,0,0,0,0l-2.3,0.9l0.6-1.1l-0.6-1.2l2.3,0.9c0,0,0,0,0,0c0,0,0,0,0,0
					c0,0,0,0,0,0c0,0,0,0,0,0c0,0,0,0,0,0c0,0,0,0,0,0c0,0,0,0,0,0c0,0,0.1,0,0.1,0c0,0,0,0,0,0c0,0,0,0,0.1,0c0,0,0,0,0,0
					c0.8-0.5,2.1-1,4-1C226,7.7,227.5,8.6,228.2,9z"/>
				<path class="st0" d="M217.2,59.3h-0.5c0-0.2-0.1-0.5-0.2-0.7l0.4-0.2c0.2-0.1,0.3-0.4,0.2-0.6c-0.1-0.2-0.4-0.3-0.6-0.2
					l-0.4,0.2c-0.1-0.2-0.3-0.3-0.5-0.5l0.2-0.4c0.1-0.2,0-0.5-0.2-0.6c-0.2-0.1-0.5,0-0.6,0.2l-0.2,0.4c-0.2-0.1-0.4-0.1-0.7-0.2
					v-0.5c0-0.2-0.2-0.4-0.4-0.4c-0.2,0-0.4,0.2-0.4,0.4v0.5c-0.2,0-0.5,0.1-0.7,0.2l-0.2-0.4c-0.1-0.2-0.4-0.3-0.6-0.2
					c-0.2,0.1-0.3,0.4-0.2,0.6l0.2,0.4c-0.2,0.1-0.3,0.3-0.5,0.5l-0.4-0.2c-0.2-0.1-0.5,0-0.6,0.2c-0.1,0.2,0,0.5,0.2,0.6l0.4,0.2
					c-0.1,0.2-0.1,0.4-0.2,0.7h-0.5c-0.2,0-0.4,0.2-0.4,0.4c0,0.2,0.2,0.4,0.4,0.4h0.5c0,0.2,0.1,0.5,0.2,0.7l-0.4,0.2
					c-0.2,0.1-0.3,0.4-0.2,0.6c0.1,0.1,0.2,0.2,0.4,0.2c0.1,0,0.1,0,0.2-0.1l0.4-0.2c0.1,0.2,0.3,0.3,0.5,0.5l-0.2,0.4
					c-0.1,0.2,0,0.5,0.2,0.6c0.1,0,0.1,0.1,0.2,0.1c0.1,0,0.3-0.1,0.4-0.2l0.2-0.4c0.2,0.1,0.4,0.1,0.7,0.2v0.5
					c0,0.2,0.2,0.4,0.4,0.4c0.2,0,0.4-0.2,0.4-0.4v-0.5c0.2,0,0.5-0.1,0.7-0.2l0.2,0.4c0.1,0.1,0.2,0.2,0.4,0.2c0.1,0,0.1,0,0.2-0.1
					c0.2-0.1,0.3-0.4,0.2-0.6l-0.2-0.4c0.2-0.1,0.3-0.3,0.5-0.5l0.4,0.2c0.1,0,0.1,0.1,0.2,0.1c0.1,0,0.3-0.1,0.4-0.2
					c0.1-0.2,0-0.5-0.2-0.6l-0.4-0.2c0.1-0.2,0.1-0.4,0.2-0.7h0.5c0.2,0,0.4-0.2,0.4-0.4C217.6,59.5,217.4,59.3,217.2,59.3z
					 M213.8,61.9c-1.2,0-2.1-1-2.1-2.1c0-1.2,1-2.1,2.1-2.1c1.2,0,2.1,1,2.1,2.1C215.9,60.9,215,61.9,213.8,61.9z"/>
			</g>
		</g>
		<g>
			<g>
				<g>
					<g>
						<path class="st0" d="M23.2,117.2l-0.6-10.4h0l-3.3,10.4h-2.8l-3.3-10.4h-0.1l-0.6,10.4H9l1.1-15.2h4.5l3.2,10h0l3.1-10h4.5
							l1.1,15.2H23.2z"/>
						<path class="st0" d="M35.5,117.2l-0.1-1.1c-0.5,0.5-1.3,1.4-3.1,1.4c-1.9,0-4-1-4-3.5s2.2-3.2,4.2-3.3l2.7-0.1v-0.2
							c0-1.1-0.8-1.7-2.2-1.7c-1.4,0-2.8,0.6-3.3,1l-0.9-2.3c0.9-0.5,2.6-1.1,4.7-1.1c3.4,0,5.4,1.4,5.4,4.9v6.1H35.5z M33.6,112.5
							c-1.1,0-1.7,0.5-1.7,1.3c0,0.8,0.7,1.3,1.7,1.3c0.9,0,1.6-0.6,1.8-1v-1.8L33.6,112.5z"/>
						<path class="st0" d="M48.2,109.6h-0.2c-0.2-0.1-0.7-0.3-1.3-0.3c-1.7,0-2.2,1.6-2.2,3.1v4.8h-3.5v-10.9h3.5l0,1.5h0
							c0.6-1.2,1.5-1.7,2.7-1.7c0.7,0,1.1,0.2,1.1,0.2L48.2,109.6z"/>
						<path class="st0" d="M51.4,105.1c-1.2,0-2-0.7-2-1.8c0-1.1,0.8-1.8,2-1.8c1.2,0,2,0.8,2,1.8C53.4,104.3,52.6,105.1,51.4,105.1
							z M49.6,117.2v-10.9h3.5v10.9H49.6z"/>
						<path class="st0" d="M62.6,117.5c-1.6,0-2.8-0.6-3.4-1.6v5.4h-3.5v-14.9H59l0,1.4h0c0.8-0.9,2-1.6,3.6-1.6
							c3.1,0,5.1,2.5,5.1,5.7C67.7,115,65.7,117.5,62.6,117.5z M61.6,108.9c-1.5,0-2.5,1.1-2.5,2.8c0,1.7,1,2.8,2.5,2.8
							c1.5,0,2.6-1.1,2.6-2.8C64.1,110.1,63.1,108.9,61.6,108.9z"/>
						<path class="st0" d="M74.8,117.5c-3.4,0-6.1-2.1-6.1-5.7c0-3.5,2.6-5.7,6.1-5.7c3.4,0,6,2.2,6,5.7
							C80.9,115.3,78.3,117.5,74.8,117.5z M74.8,108.9c-1.6,0-2.5,1.2-2.5,2.8c0,1.6,0.9,2.8,2.5,2.8c1.5,0,2.5-1.2,2.5-2.8
							C77.3,110.1,76.4,108.9,74.8,108.9z"/>
						<path class="st0" d="M86.3,117.5c-1.6,0-3.4-0.5-4.6-1.7l1.3-2.1c0.9,0.8,2.3,1.3,3.2,1.3s1.5-0.2,1.5-0.9s-1.6-1.1-2-1.2
							c-1.8-0.5-3.4-1.1-3.4-3.4c0-2.1,1.9-3.4,4.1-3.4c2.3,0,3.6,0.8,4.2,1.3l-1.1,2.1c-0.6-0.5-1.9-1.1-2.7-1.1
							c-0.8,0-1.3,0.2-1.3,0.8s0.8,0.8,1.6,1.1c1.9,0.6,3.8,1.1,3.8,3.5C90.9,116.5,88.5,117.5,86.3,117.5z"/>
						<path class="st0" d="M99.1,117.2l-0.1-1.1c-0.5,0.5-1.3,1.4-3.1,1.4c-1.9,0-4-1-4-3.5s2.2-3.2,4.2-3.3l2.7-0.1v-0.2
							c0-1.1-0.8-1.7-2.2-1.7c-1.4,0-2.8,0.6-3.3,1l-0.9-2.3c0.9-0.5,2.6-1.1,4.7-1.1c3.4,0,5.4,1.4,5.4,4.9v6.1H99.1z M97.2,112.5
							c-1.1,0-1.7,0.5-1.7,1.3c0,0.8,0.7,1.3,1.7,1.3c0.9,0,1.6-0.6,1.8-1v-1.8L97.2,112.5z"/>
					</g>
					<g>
						<path class="st0" d="M26.4,139.4L25.8,129h0l-3.3,10.4h-2.8L16.3,129h-0.1l-0.6,10.4h-3.5l1.1-15.2h4.5l3.2,10h0l3.1-10h4.5
							l1.1,15.2H26.4z"/>
						<path class="st0" d="M37.3,139.6c-3.4,0-6.1-2.1-6.1-5.7s2.6-5.7,6.1-5.7c3.4,0,6,2.2,6,5.7S40.7,139.6,37.3,139.6z
							 M37.3,131.1c-1.6,0-2.5,1.2-2.5,2.8c0,1.6,0.9,2.8,2.5,2.8c1.5,0,2.5-1.2,2.5-2.8C39.8,132.3,38.8,131.1,37.3,131.1z"/>
						<path class="st0" d="M52.2,139.4v-5.7c0-1.4-0.2-2.5-1.7-2.5c-1.5,0-1.9,1.2-1.9,2.8v5.4H45v-10.9h3.5l0,1.6h0
							c0.6-1,1.6-1.8,3.2-1.8c3.2,0,4,2,4,4.7v6.4H52.2z"/>
						<path class="st0" d="M64.4,139.4l-0.1-1.1c-0.5,0.5-1.3,1.4-3.1,1.4c-1.9,0-4-1-4-3.5s2.2-3.2,4.2-3.3l2.7-0.1v-0.2
							c0-1.1-0.8-1.7-2.2-1.7c-1.4,0-2.8,0.6-3.3,1l-0.9-2.3c0.9-0.5,2.6-1.1,4.7-1.1c3.4,0,5.4,1.4,5.4,4.9v6.1H64.4z M62.5,134.7
							c-1.1,0-1.7,0.5-1.7,1.3c0,0.8,0.7,1.3,1.7,1.3c0.9,0,1.6-0.6,1.8-1v-1.8L62.5,134.7z"/>
						<path class="st0" d="M77.1,131.7h-0.2c-0.2-0.1-0.7-0.3-1.3-0.3c-1.7,0-2.2,1.6-2.2,3.1v4.8h-3.5v-10.9h3.5l0,1.5h0
							c0.6-1.2,1.5-1.7,2.7-1.7c0.7,0,1.1,0.2,1.1,0.2L77.1,131.7z"/>
						<path class="st0" d="M83.5,139.6c-3,0-5.7-2-5.7-5.7c0-3.6,2.8-5.7,5.8-5.7c2.8,0,4,1.1,4,1.1l-0.8,2.7c-0.3-0.2-1.3-1-2.8-1
							c-1.5,0-2.7,1-2.7,2.8s1.1,2.8,2.7,2.8c1.7,0,2.8-1.1,2.8-1.1l0.8,2.7C87.5,138.4,86.4,139.6,83.5,139.6z"/>
						<path class="st0" d="M95.9,139.4l-0.1-1.1c-0.5,0.5-1.3,1.4-3.1,1.4c-1.9,0-4-1-4-3.5s2.2-3.2,4.2-3.3l2.7-0.1v-0.2
							c0-1.1-0.8-1.7-2.2-1.7c-1.4,0-2.8,0.6-3.3,1l-0.9-2.3c0.9-0.5,2.6-1.1,4.7-1.1c3.4,0,5.4,1.4,5.4,4.9v6.1H95.9z M94,134.7
							c-1.1,0-1.7,0.5-1.7,1.3c0,0.8,0.7,1.3,1.7,1.3c0.9,0,1.6-0.6,1.8-1v-1.8L94,134.7z"/>
					</g>
				</g>
			</g>
			<g>
				<path class="st0" d="M45.1,7c2,0,3.7-0.4,4.6-0.4c1.1,0,2.1,0.8,2.1,1.7c0,1.4-0.2,2.3-0.7,3.6l-2.5,6.5
					c-1.2,2.9-4.1,4.4-8.5,4.4c-5.8,0-8.7-0.5-8.7-0.5h-2.6c-5.7,0-6.3,3-6.4,8.4c2.4-0.3,4.7-0.6,5.9-0.6h3.9
					c9.9,0,18.1,5.8,18.1,13.1c0,9.5-5.5,16.1-16.5,22.8C26,70.7,19,72.5,16.5,72.5c-1.8,0-3.7,0.1-3.7-1.3c0-0.5-0.2-1,0.3-1.3
					c11.2-6.1,18.1-11.5,18.1-21.7c0-7.7-4.7-11.4-11.4-11.4h-2c-3,0-3.1-2.3-3.1-5.3c0-1,0.2-3.1,0.5-4.7l2.3-13
					C18.4,8.8,20.7,7,24.9,7H45.1z"/>
				<path class="st0" d="M81.7,6.6c9.9,0,17.8,2.7,22,6.6c5.9,5.6,4.9,17-0.8,22.7c-18.3,18.4-8.1,33.2-26,36
					c-13.4,2.1-22.5-14.7-22.5-39.1C54.3,16,63.8,6.6,81.7,6.6z"/>
				<g>
					<g>
						<circle class="st1" cx="103.1" cy="17.9" r="1.5"/>
						<path class="st1" d="M77.7,19.5c-0.3,0.8-1.1,1.2-1.9,1c-0.8-0.3-1.2-1.1-1-1.9s1.4-2,2.2-1.7C77.8,17.1,77.9,18.7,77.7,19.5z
							"/>
						<path class="st1" d="M73.9,17.1c-0.8,1.6-2.3,2.1-3,1.7c-0.8-0.3-1.6-1.4-0.2-3.3c1.3-1.6,2.6-2,3.3-1.5
							C75.1,14.7,74.3,16.4,73.9,17.1z"/>
						<path class="st1" d="M68.9,16c-0.9,1.6-2,1.8-2.8,1.5c-0.8-0.3-1-1.5-0.6-2.2c1.1-1.9,2.9-2.4,3.7-2.1
							C69.9,13.4,69.3,15.2,68.9,16z"/>
						<circle class="st1" cx="99.8" cy="14.6" r="1.1"/>
						<circle class="st1" cx="96.1" cy="12.3" r="1"/>
						<circle class="st1" cx="104.4" cy="22.3" r="1.2"/>
						<circle class="st1" cx="105.2" cy="26.5" r="0.9"/>
						<circle class="st1" cx="103.7" cy="30.2" r="0.9"/>
						<circle class="st1" cx="100.9" cy="33.1" r="1"/>
						<circle class="st1" cx="98.7" cy="35.7" r="0.9"/>
						<circle class="st1" cx="96.1" cy="38.4" r="1.3"/>
					</g>
					<g>
						<g>
							<path class="st2" d="M90.6,13.4c-3.2,0.9-6.4,2.9-8.9,5.1c-0.8,0.7-1.6,1.7-1.2,2.7c0.2,0.5,0.7,0.9,1.3,1
								c0.5,0.1,2.1-0.4,2.6-0.7c2.1-1.3,2.7-1.7,4.7-3.1c1-0.7,2.1-1.7,3-2.5c1.2-1,2.2-2.3,1.6-3C93.3,12.5,92.3,13,90.6,13.4z"/>
						</g>
						<g>
							<path class="st2" d="M94,17.2c-1.2,0.6-2.1,1.1-4,2.2c-1.9,1.1-3.8,2.5-4.5,4.5c-0.1,0.3-0.2,0.7-0.2,1
								c0.1,0.8,1,1.2,1.8,1.1c0.8-0.1,1.5-0.5,2.1-1c1.7-1.2,1.5-1.5,3.2-2.6c0.7-0.5,2.8-2,3.5-2.6c0.8-0.6,2.5-1.9,2.6-2.7
								c0.1-0.5,0.1-1.1-1.4-1.1C96.7,16,95,16.6,94,17.2z"/>
						</g>
						<g>
							<path class="st2" d="M100.1,19.8c-1.4-0.8-4.8,2.2-6.6,3.6c-1.8,1.3-3.3,2.3-4,4.5c-0.1,0.4-0.2,1-0.1,1.4
								c0.1,0.4,0.5,0.6,0.7,0.6c0.6,0.1,1.1-0.1,1.7-0.2c1.8-0.5,2.1-1.5,3.5-3c1.3-1.4,2.2-2.2,4-4
								C99.8,22.1,100.7,20.2,100.1,19.8z"/>
						</g>
						<g>
							<path class="st2" d="M98.2,26.4c-2.1,1.6-2.8,2.4-3.9,4.1c-0.3,0.5-0.6,1.3-0.7,1.9c0,0.4-0.1,0.8,0,1.2
								c0.1,0.5,0.4,1.4,1,1.3c1.6-0.2,3.1-2.8,4.1-3.9c1-1.1,1.2-1.2,3.1-3.4c0.6-0.6,1.6-2.4,0.8-2.8
								C101.8,24.4,99.4,25.5,98.2,26.4z"/>
						</g>
						<g>
							<path class="st2" d="M80.1,17.6c2.5-2.3,5-4.4,8-5.4c1.2-0.4,2.4-0.7,3.6-1.2c0.1-0.1,0.3-0.1,0.4-0.3s0.1-0.3,0.1-0.4
								c-0.1-0.1-0.1-0.1-0.2-0.2c-0.8-0.4-1.6-0.5-2.5-0.5s-2.7,0.3-3.5,0.5c-2.2,0.4-3.2,0.9-3.9,1.3c-0.4,0.2-1.6,0.9-2.6,2.2
								c-0.6,0.8-0.9,2.2-0.8,3.2c0.1,0.4,0.2,0.8,0.5,1C79.5,17.9,80.1,17.6,80.1,17.6z"/>
						</g>
						<g>
							<path class="st2" d="M69.4,65c1.9-4,3.6-7.4,5.9-11.2c3.1-4.9,5.6-10.1,7.4-15.5c0.8-2.3,1.5-4.6,1.8-7.1
								c0.1-1,0.2-2.1-0.1-3.1c-0.2-0.7-0.6-1.3-1.3-1.5c-0.6-0.1-1.1,0.2-1.6,0.5c-3.8,2.6-6.6,6.4-9.4,10.1
								c-1.3,1.6-2.6,3.3-3.4,5.2c-0.6,1.6-0.7,3.3-0.9,5c-0.5,4.7-1.4,9.6-1.2,14.3c0.1,1.4,0.1,2.3,0.9,3.3
								C68,65.6,69.1,65.7,69.4,65z"/>
						</g>
						<g>
							<path class="st2" d="M71.4,67.5c1.9-1.2,3.2-2.3,4.9-3.8c2.7-2.3,5.2-4.9,7.6-7.4c3.2-3.4,6.3-7.1,7.7-11.6
								c0.6-1.8,0.9-3.6,1.1-5.5c0.2-1.3,0.4-2.7,0.1-4c-0.1-0.6-0.5-1.3-1.1-1.4c-0.2-0.1-0.9-0.6-2.1-0.4c-1.8,0.2-2.5,0.3-3.3,2
								c-0.4,0.8-0.7,1.9-1.1,2.8c-0.6,1.7-0.8,2.4-1.3,3.4c-2.5,4.3-4.5,8.1-6.9,12.4c-1,1.8-2,2.8-2.8,4.5c-1.1,2.3-4.1,6.1-4,8.6
								C70.3,67.6,70.9,67.8,71.4,67.5z"/>
						</g>
						<g>
							<path class="st2" d="M74.4,67.1c4.6-4,8.1-7.2,12.5-11.4c0.8-0.6,1,0.4,1,0.6c-0.1,2.1-1.4,4-2.3,6c-0.6,1.4-1.1,2.8-2.1,3.9
								c-1.9,2.2-4.7,3.1-7.6,3.2c-0.4,0-1.3,0-1.7-0.1c-0.4-0.2-1.1-0.7-0.9-1C73.5,67.9,73.9,67.6,74.4,67.1z"/>
						</g>
						<g>
							<path class="st2" d="M65.8,60.2c0.2-5.9,0.4-8.2,0.9-14.1c0.4-4.5,0.1-7.2,0.3-16.9c0-2.7,0.7-7.8,0-9.1
								c-0.2-0.4-0.8-0.8-1.3-0.8c-0.3,0-2.1-0.4-4.2,0.5c-1.3,0.6-2.3,3.4-2.7,4.8c-0.7,2.2-1,6.6-1,8.9c0,3.9,0.4,7.8,1,11.6
								c0.8,5.1,2,10.1,3.7,14.9c0.1,0.4,0.9,1.7,1.1,2c0.4,0.5,0.9,0.9,1.7,0.8C66.1,62.9,65.8,60.9,65.8,60.2z"/>
						</g>
						<g>
							<path class="st2" d="M68.7,36.7c0,0.3,0,0.6,0,1.1c0,0.5,0.2,0.8,0.4,0.8c0.1,0,0.2,0,0.3-0.1c0.7-0.5,1.3-1.2,1.9-2
								c2.8-3.7,5.2-7.6,8.6-10.7c0.5-0.5,1.2-1.1,1-1.8c-0.1-0.6-0.8-1-1.4-1.3c-1-0.4-2.1-0.7-3.2-0.8c-0.6-0.1-1.3-0.1-1.9,0.1
								c-1,0.3-1.7,1.2-2.3,2.1C69.6,27.8,68.9,32.3,68.7,36.7"/>
						</g>
						<g>
							<path class="st2" d="M71.1,24c0.4-1,0.7-1.1,1-2.1c0.1-0.3,0.1-1-0.1-1.1c-0.1-0.1-0.7-0.4-0.8-0.4c-0.6-0.2-1.3-0.3-2-0.1
								c-0.3,0.1-0.6,0.2-0.8,0.5c-0.1,0.2-0.1,0.4-0.2,0.6c-0.1,1.1-0.1,2.2,0,3.3c0,0.4,0.1,0.9,0.5,1.1c0.4,0.2,0.7,0.1,1.1,0
								c0.3-0.1,0.9-0.8,1-1.2C71,24.3,71,24.2,71.1,24z"/>
						</g>
						<g>
							<path class="st2" d="M76,9.1c1.4-0.5,1.9-0.6,4.9-0.8c0.7,0,1.9,0,2.3,0.2c0.5,0.3,0.5,0.7,0.2,0.8c-1,0.5-2.2,0.9-3.2,1.4
								c-1,0.5-1.3,1.1-2.3,2c-0.3,0.2-1,0.6-1.4,0.7c-0.6,0.1-1.1-0.1-1.6-0.4c-0.4-0.3-0.8-0.7-1.1-1c-0.2-0.2-0.3-0.4-0.3-0.6
								s0-0.6,0.2-0.8C74.4,9.8,75.6,9.3,76,9.1z"/>
						</g>
					</g>
				</g>
			</g>
			<g>
				<path class="st0" d="M33.4,87L33,85.9h-1.9L30.7,87h-1.3l2-5.3h1.3l2,5.3H33.4z M32,83l-0.7,1.9h1.3L32,83z"/>
				<path class="st0" d="M39.1,87l-2.3-3.6c0,0,0,0.6,0,1.2V87h-1.2v-5.3h1.3l2.3,3.6c0,0,0-0.6,0-1.2v-2.4h1.2V87H39.1z"/>
				<path class="st0" d="M41.7,87v-5.3h1.2V87H41.7z"/>
				<path class="st0" d="M46.9,87h-1.2l-2-5.3h1.3l1.2,3.6l1.2-3.6h1.3L46.9,87z"/>
				<path class="st0" d="M49.7,87v-5.3h3.4v1H51v1.1H53v1H51V86h2.3v1H49.7z"/>
				<path class="st0" d="M57.1,87L56,85h-0.4v2h-1.2v-5.3h1.9c1,0,2,0.4,2,1.6c0,1-0.6,1.4-1,1.5l1.3,2.2H57.1z M56.1,82.6h-0.5V84
					h0.5c0.5,0,0.9-0.1,0.9-0.7C57,82.8,56.6,82.6,56.1,82.6z"/>
				<path class="st0" d="M60.9,87.1c-0.8,0-1.5-0.4-1.9-0.8l0.6-0.9c0.4,0.4,1,0.7,1.4,0.7c0.4,0,0.7-0.2,0.7-0.5
					c0-0.4-0.4-0.5-0.6-0.6c-0.2-0.1-0.6-0.2-0.8-0.3c-0.1-0.1-0.4-0.2-0.6-0.4c-0.2-0.2-0.4-0.5-0.4-1c0-0.5,0.2-0.9,0.6-1.2
					c0.3-0.3,0.8-0.4,1.4-0.4c0.6,0,1.3,0.3,1.7,0.7l-0.5,0.9c-0.3-0.3-0.8-0.5-1.2-0.5c-0.4,0-0.7,0.2-0.7,0.5
					c0,0.3,0.3,0.4,0.5,0.5c0.2,0.1,0.6,0.2,0.8,0.3c0.7,0.2,1.2,0.7,1.2,1.5C62.9,86.5,61.9,87.1,60.9,87.1z"/>
				<path class="st0" d="M67.4,87L67,85.9h-1.9L64.7,87h-1.3l2-5.3h1.3l2,5.3H67.4z M66,83l-0.7,1.9h1.3L66,83z"/>
				<path class="st0" d="M72.3,87l-1.1-2h-0.4v2h-1.2v-5.3h1.9c1,0,2,0.4,2,1.6c0,1-0.6,1.4-1,1.5l1.3,2.2H72.3z M71.3,82.6h-0.5V84
					h0.5c0.5,0,0.9-0.1,0.9-0.7C72.2,82.8,71.7,82.6,71.3,82.6z"/>
				<path class="st0" d="M74.5,87v-5.3h1.2V87H74.5z"/>
				<path class="st0" d="M79.7,87.1c-1.6,0-2.8-1-2.8-2.7c0-1.7,1.2-2.7,2.8-2.7c1.6,0,2.8,1,2.8,2.7C82.5,86.1,81.3,87.1,79.7,87.1
					z M79.7,82.7c-0.9,0-1.6,0.6-1.6,1.7c0,1,0.7,1.7,1.6,1.7c0.9,0,1.6-0.6,1.6-1.7C81.2,83.3,80.6,82.7,79.7,82.7z"/>
			</g>
			<g>
				<path class="st0" d="M12.2,95.4h-1.5v-4.9h1.5c1.5,0,2.6,0.9,2.6,2.4C14.8,94.4,13.6,95.4,12.2,95.4z M12.2,91.1h-0.8v3.7h0.8
					c1.1,0,1.9-0.7,1.9-1.8C14.1,91.8,13.3,91.1,12.2,91.1z"/>
				<path class="st0" d="M15.9,95.4v-4.9h2.9v0.6h-2.2v1.5h2.1v0.6h-2.1v1.7h2.2v0.6H15.9z"/>
				<path class="st0" d="M21.8,95.4v-4.9h0.7v4.3h1.7v0.6H21.8z"/>
				<path class="st0" d="M27.2,95.5c-1.4,0-2.5-1-2.5-2.5c0-1.6,1.1-2.5,2.5-2.5s2.5,1,2.5,2.5C29.7,94.5,28.6,95.5,27.2,95.5z
					 M27.2,91c-1,0-1.8,0.7-1.8,1.9c0,1.2,0.8,1.9,1.8,1.9c1,0,1.8-0.7,1.8-1.9C29,91.7,28.2,91,27.2,91z"/>
				<path class="st0" d="M32.1,95.5c-0.9,0-1.3-0.6-1.6-0.8l0.4-0.5c0.2,0.3,0.7,0.7,1.2,0.7c0.5,0,1-0.3,1-0.8
					c0-0.5-0.5-0.7-0.8-0.8c-0.3-0.1-0.6-0.2-0.8-0.3c-0.5-0.2-0.8-0.6-0.8-1.2c0-0.9,0.8-1.3,1.6-1.3c0.8,0,1.3,0.5,1.4,0.6
					l-0.4,0.5c-0.2-0.3-0.6-0.5-1.1-0.5c-0.5,0-0.9,0.2-0.9,0.7c0,0.5,0.3,0.6,0.6,0.7l0.9,0.4c0.5,0.2,0.9,0.6,0.9,1.2
					C33.9,95,33,95.5,32.1,95.5z"/>
				<path class="st0" d="M38,95.5c-0.9,0-1.3-0.6-1.6-0.8l0.4-0.5c0.2,0.3,0.7,0.7,1.2,0.7c0.5,0,1-0.3,1-0.8c0-0.5-0.5-0.7-0.8-0.8
					c-0.3-0.1-0.6-0.2-0.8-0.3c-0.5-0.2-0.8-0.6-0.8-1.2c0-0.9,0.8-1.3,1.6-1.3c0.8,0,1.3,0.5,1.4,0.6l-0.4,0.5
					c-0.2-0.3-0.6-0.5-1.1-0.5s-0.9,0.2-0.9,0.7c0,0.5,0.3,0.6,0.6,0.7l0.9,0.4c0.5,0.2,0.9,0.6,0.9,1.2C39.8,95,38.9,95.5,38,95.5z
					"/>
				<path class="st0" d="M44.2,95.4l-0.5-1.3h-2.1l-0.5,1.3h-0.7l2-4.9h0.6l2,4.9H44.2z M42.6,91.3l-0.9,2.2h1.7L42.6,91.3z"/>
				<path class="st0" d="M49.3,95.4l-2.8-3.9c0,0,0,0.7,0,1.3v2.6h-0.7v-4.9h0.7l2.8,3.8c0,0,0-0.6,0-1.2v-2.6H50v4.9H49.3z"/>
				<path class="st0" d="M53,91.1v4.3h-0.7v-4.3h-1.4v-0.6h3.4v0.6H53z"/>
				<path class="st0" d="M58.6,94.9c-0.3,0.4-0.8,0.6-1.5,0.6c-0.7,0-1.1-0.2-1.5-0.6c-0.3-0.4-0.4-0.9-0.4-1.5v-2.9H56v2.8
					c0,0.4,0,0.8,0.2,1.1c0.2,0.3,0.5,0.4,0.9,0.4c0.4,0,0.7-0.2,0.9-0.4c0.2-0.3,0.2-0.7,0.2-1.1v-2.8H59v2.9
					C59,94,58.9,94.5,58.6,94.9z"/>
				<path class="st0" d="M63.6,95.4l-0.5-1.3H61l-0.5,1.3h-0.7l2-4.9h0.6l2,4.9H63.6z M62,91.3l-0.9,2.2h1.7L62,91.3z"/>
				<path class="st0" d="M67.7,95.4l-1.3-2.1h-0.5v2.1h-0.7v-4.9h1.4c0.9,0,1.7,0.4,1.7,1.4c0,0.9-0.6,1.2-1.1,1.3l1.4,2.2H67.7z
					 M67.3,91.2C67,91.1,66.8,91,66.4,91h-0.5v1.7h0.5c0.3,0,0.6,0,0.8-0.2c0.2-0.2,0.3-0.4,0.3-0.7C67.6,91.6,67.5,91.4,67.3,91.2z
					"/>
				<path class="st0" d="M69.4,95.4v-4.9h0.7v4.9H69.4z"/>
				<path class="st0" d="M73.8,95.5c-1.4,0-2.5-1-2.5-2.5c0-1.6,1.1-2.5,2.5-2.5s2.5,1,2.5,2.5C76.3,94.5,75.2,95.5,73.8,95.5z
					 M73.8,91c-1,0-1.8,0.7-1.8,1.9c0,1.2,0.8,1.9,1.8,1.9c1,0,1.8-0.7,1.8-1.9C75.6,91.7,74.8,91,73.8,91z"/>
				<path class="st0" d="M78.7,95.5c-0.9,0-1.3-0.6-1.6-0.8l0.4-0.5c0.2,0.3,0.7,0.7,1.2,0.7c0.5,0,1-0.3,1-0.8
					c0-0.5-0.5-0.7-0.8-0.8c-0.3-0.1-0.6-0.2-0.8-0.3c-0.5-0.2-0.8-0.6-0.8-1.2c0-0.9,0.8-1.3,1.6-1.3c0.8,0,1.3,0.5,1.4,0.6
					L80,91.5c-0.2-0.3-0.6-0.5-1.1-0.5c-0.5,0-0.9,0.2-0.9,0.7c0,0.5,0.3,0.6,0.6,0.7l0.9,0.4c0.5,0.2,0.9,0.6,0.9,1.2
					C80.4,95,79.6,95.5,78.7,95.5z"/>
				<path class="st0" d="M84.8,95.4h-1.5v-4.9h1.5c1.5,0,2.6,0.9,2.6,2.4C87.4,94.4,86.3,95.4,84.8,95.4z M84.8,91.1H84v3.7h0.8
					c1.1,0,1.9-0.7,1.9-1.8C86.7,91.8,85.9,91.1,84.8,91.1z"/>
				<path class="st0" d="M88.5,95.4v-4.9h2.9v0.6h-2.2v1.5h2.1v0.6h-2.1v1.7h2.2v0.6H88.5z"/>
				<path class="st0" d="M94.4,95.4v-4.9h0.7v4.3h1.7v0.6H94.4z"/>
				<path class="st0" d="M101.2,95.4l-0.5-1.3h-2.1l-0.5,1.3h-0.7l2-4.9h0.6l2,4.9H101.2z M99.6,91.3l-0.9,2.2h1.7L99.6,91.3z"/>
			</g>
		</g>
		<g>
			<rect x="139.7" y="6.6" class="st0" width="2.3" height="141.9"/>
		</g>
	</g>
	<path class="st3" d="M340.5,99.6c-0.3-0.2-0.6-0.4-0.9-0.6l-6.2-2.2c0.1-0.1,0.3-0.1,0.4-0.2c1.5-1.1,1.5-3.9,1.5-4.4l-0.3-8.5
		l2.5-1.6c0.2-0.1,0.4-0.4,0.3-0.7l0-1c0-0.3-0.2-0.5-0.4-0.6l-2.8-1.2c-0.2-0.1-0.5-0.1-0.8,0l-4.6,2.9c-0.2,0.1-0.4,0.4-0.3,0.7
		l0,1c0,0.3,0.2,0.5,0.4,0.7l2.8,1.2c0.2,0.1,0.4,0.1,0.6,0l0.3,7.2c0,1.1-0.3,2.2-0.5,2.4c0,0,0,0,0,0c-1.6-0.6-4.1-1.7-4.1-1.7
		c-0.6-0.3-1.3,0-1.5,0.6c-0.2,0.5-0.1,1,0.2,1.3c0,0,0,0,0,0c0,0-0.1,0-0.1,0c-2.5,0.6-5.1,1.2-7.6,1.8c-0.5,0.1-0.9,0.3-1.2,0.7
		c-1.7,1.7-6.4,6.8-6,14.4c0.3,6,3.5,10,5,11.7c0.4,0.4,0.9,0.7,1.5,0.8l14.8,2.6c0.3,0.1,0.7,0.1,1,0c2.3-0.5,4.5-1,6.8-1.5
		c0.6-0.1,1.1-0.5,1.5-1c1.4-1.8,3.7-5.7,3.8-11C346.5,105.9,342.1,101.1,340.5,99.6z M326.5,120.2c-2.9,0.5-5.8,1.1-8.8,1.6
		c-1.2-1.4-3.5-4.5-4-9c-1-8.2,4.5-14.1,5.3-14.9l7.3-1.5c0.4,3.9,0.7,8.3,0.6,13C327,113.3,326.8,116.9,326.5,120.2z M340.7,122.6
		c-3.9-0.9-7.7-1.8-11.6-2.7c0.4-3.5,0.7-7.6,0.6-12.1c-0.1-4.1-0.4-7.9-0.9-11.2l10.5,3.7c0.6,0.6,6.8,7.2,5,15.4
		C343.6,119,341.9,121.3,340.7,122.6z"/>
	<path class="st3" d="M279,126.6c-0.1-0.1-0.3-0.2-0.5-0.3l-3.4-1.2c0.1,0,0.1-0.1,0.2-0.1c0.8-0.6,0.8-2.1,0.8-2.4l-0.2-4.7
		l1.4-0.9c0.1-0.1,0.2-0.2,0.2-0.4l0-0.6c0-0.2-0.1-0.3-0.2-0.3l-1.6-0.7c-0.1-0.1-0.3-0.1-0.4,0l-2.5,1.6c-0.1,0.1-0.2,0.2-0.2,0.4
		l0,0.6c0,0.2,0.1,0.3,0.2,0.4l1.5,0.7c0.1,0.1,0.2,0.1,0.3,0l0.1,3.9c0,0.6-0.1,1.2-0.3,1.3c0,0,0,0,0,0c-0.9-0.3-2.3-0.9-2.3-0.9
		c-0.3-0.1-0.7,0-0.8,0.3c-0.1,0.2-0.1,0.5,0.1,0.7c0,0,0,0,0,0c0,0,0,0-0.1,0c-1.4,0.3-2.8,0.6-4.2,1c-0.3,0.1-0.5,0.2-0.7,0.4
		c-1,0.9-3.5,3.7-3.3,7.9c0,0.5,0.1,0.9,0.2,1.3h0.9c0-0.2-0.1-0.5-0.1-0.7c-0.6-4.5,2.5-7.7,2.9-8.2l4-0.8c0.2,2.2,0.4,4.6,0.4,7.1
		c0,0.9,0,1.7-0.1,2.5h1.5c0.1-1.1,0.1-2.2,0.1-3.4c0-2.3-0.2-4.3-0.5-6.1l5.7,2c0.3,0.3,3.3,3.5,2.9,7.6h1c0-0.2,0-0.3,0-0.5
		C282.3,130.1,279.9,127.4,279,126.6z"/>
</g>
</svg>
