<?xml version="1.0" standalone="no"?>
<!DOCTYPE svg PUBLIC "-//W3C//DTD SVG 1.1//EN" "http://www.w3.org/Graphics/SVG/1.1/DTD/svg11.dtd">
<svg xmlns:inkscape="http://www.inkscape.org/namespaces/inkscape" xmlns:sodipodi="http://sodipodi.sourceforge.net/DTD/sodipodi-0.dtd" xmlns="http://www.w3.org/2000/svg" xmlns:svg="http://www.w3.org/2000/svg" version="1.1" id="svg954" xml:space="preserve" width="468.11334228515625" height="260.45068359375" viewBox="0 0 468.11334 260.45068" sodipodi:docname="Logo CCACJP 2023.svg" inkscape:version="1.1 (c4e8f9e, 2021-05-24)"><defs id="defs958"><clipPath clipPathUnits="userSpaceOnUse" id="clipPath968"><path d="M 0,195.338 H 351.085 V 0 H 0 Z" id="path966"/></clipPath></defs><sodipodi:namedview id="namedview956" pagecolor="#ffffff" bordercolor="#666666" borderopacity="1.0" inkscape:pageshadow="2" inkscape:pageopacity="0.0" inkscape:pagecheckerboard="0" showgrid="false" inkscape:zoom="1.2969159" inkscape:cx="148.04353" inkscape:cy="97.153566" inkscape:window-width="1440" inkscape:window-height="856" inkscape:window-x="0" inkscape:window-y="22" inkscape:window-maximized="0" inkscape:current-layer="g964"/><g id="g960" inkscape:groupmode="layer" inkscape:label="Logo CCACJP 2023" transform="matrix(1.3333333,0,0,-1.3333333,0,260.45067)"><g id="g962"><g id="g964" clip-path="url(#clipPath968)" style="fill-rule:evenodd"><g id="g970" transform="translate(41.1309,71.1387)" style="fill-rule:evenodd"><path d="m 0,0 c 0.146,-0.331 0.439,-1.278 0.885,-2.848 0.2,-0.716 0.308,-1.471 0.316,-2.271 h -1.517 c -1.07,1.509 -2.171,2.602 -3.31,3.264 -1.132,0.662 -2.402,0.993 -3.803,0.993 -1.724,0 -3.118,-0.678 -4.172,-2.025 -1.44,-1.824 -2.156,-4.365 -2.156,-7.629 0,-1.886 0.123,-3.233 0.37,-4.034 0.4,-1.301 0.908,-2.371 1.516,-3.187 0.47,-0.623 1.078,-1.124 1.84,-1.486 0.978,-0.508 2.025,-0.754 3.133,-0.754 1.224,0 2.41,0.377 3.549,1.139 1.14,0.763 2.233,1.894 3.28,3.403 0.415,0.077 0.954,0.123 1.624,0.131 -0.046,-0.424 -0.123,-0.862 -0.223,-1.316 -0.031,-0.178 -0.162,-0.878 -0.385,-2.11 l -0.146,-0.5 -0.231,-0.778 c -0.685,-0.523 -1.64,-0.916 -2.864,-1.178 -1.232,-0.261 -2.741,-0.392 -4.534,-0.392 -1.371,0 -2.664,0.123 -3.88,0.385 -1.217,0.254 -2.264,0.662 -3.133,1.216 -1.263,0.801 -2.264,1.671 -2.987,2.602 -0.724,0.939 -1.263,1.955 -1.609,3.056 -0.354,1.101 -0.524,2.341 -0.524,3.703 0,3.318 1.093,6.059 3.28,8.214 2.186,2.163 4.973,3.241 8.368,3.241 1.378,0 2.679,-0.069 3.895,-0.208 C -2.194,0.493 -1.055,0.285 0,0" style="fill:#760135;fill-opacity:1;fill-rule:evenodd;stroke:none" id="path972"/></g><g id="g974" transform="translate(56.6274,70.2764)" style="fill-rule:evenodd"><path d="m 0,0 c -0.97,0 -1.824,-0.231 -2.571,-0.677 -0.739,-0.455 -1.301,-0.947 -1.678,-1.494 -0.639,-0.924 -1.086,-1.932 -1.355,-3.033 -0.262,-1.093 -0.401,-2.425 -0.401,-3.995 0,-0.955 0.039,-1.64 0.116,-2.056 0.023,-0.131 0.061,-0.362 0.1,-0.685 0.1,-0.824 0.215,-1.424 0.354,-1.801 0.477,-1.409 0.816,-2.287 1.016,-2.618 0.331,-0.569 0.824,-1.131 1.486,-1.686 0.331,-0.292 0.816,-0.554 1.447,-0.793 0.632,-0.238 1.27,-0.361 1.902,-0.361 1.201,0 2.317,0.284 3.341,0.846 1.031,0.562 1.855,1.517 2.479,2.864 0.623,1.34 0.931,3.095 0.931,5.258 0,0.885 -0.062,2.094 -0.185,3.618 L 6.898,-6.297 C 6.867,-6.205 6.813,-5.982 6.736,-5.612 6.32,-3.788 5.535,-2.394 4.373,-1.44 3.21,-0.477 1.755,0 0,0 m -11.363,-9.315 c 0,1.378 0.27,2.764 0.801,4.157 0.393,1.001 0.932,1.917 1.632,2.748 0.701,0.84 1.586,1.579 2.641,2.233 1.054,0.654 2.132,1.116 3.233,1.401 1.101,0.285 2.332,0.423 3.687,0.423 2.317,0 4.319,-0.431 6.02,-1.301 1.702,-0.862 3.041,-2.04 4.026,-3.518 1.263,-1.924 1.902,-3.949 1.902,-6.058 0,-3.149 -1.07,-5.851 -3.218,-8.099 -2.14,-2.248 -5.112,-3.372 -8.93,-3.372 -0.947,0 -1.832,0.062 -2.648,0.185 -0.624,0.085 -1.17,0.208 -1.64,0.37 -0.847,0.277 -1.316,0.438 -1.416,0.477 -1.209,0.693 -2.187,1.401 -2.918,2.125 -0.739,0.723 -1.355,1.539 -1.871,2.455 -0.277,0.509 -0.592,1.432 -0.946,2.764 -0.239,0.862 -0.355,1.863 -0.355,3.01" style="fill:#760135;fill-opacity:1;fill-rule:evenodd;stroke:none" id="path976"/></g><g id="g978" transform="translate(71.5933,51.2617)" style="fill-rule:evenodd"><path d="m 0,0 c 0.346,0.1 0.831,0.192 1.455,0.285 0.631,0.092 1.001,0.138 1.116,0.138 0.431,0.016 0.724,0.085 0.862,0.208 0.07,0.27 0.1,0.493 0.1,0.67 l -0.03,2.14 0.1,2.171 v 1.386 l 0.015,1.639 -0.031,1.74 0.07,3.726 0.015,1.686 v 0.231 c -0.077,1.17 -0.154,1.817 -0.223,1.932 -0.077,0.116 -0.393,0.262 -0.962,0.439 -0.054,0.023 -0.27,0.108 -0.639,0.254 -0.278,0.108 -0.524,0.193 -0.747,0.231 -0.393,0.1 -0.662,0.223 -0.816,0.354 -0.023,0.285 -0.039,0.508 -0.039,0.67 0,0.085 0.008,0.223 0.016,0.4 0.1,0.054 0.208,0.085 0.323,0.085 0.262,0 1.232,-0.046 2.902,-0.139 l 2.387,0.016 1.77,-0.031 c 0.77,0 1.756,0.046 2.956,0.139 0.355,0.03 0.562,0.046 0.616,0.046 0.17,0 0.285,-0.046 0.347,-0.131 0.092,-0.123 0.138,-0.347 0.138,-0.662 0,-0.254 -0.061,-0.447 -0.184,-0.578 -0.07,-0.077 -0.316,-0.146 -0.739,-0.2 L 8.714,18.36 C 8.653,18.337 8.56,18.291 8.43,18.229 8.383,18.152 8.353,18.083 8.329,18.029 L 8.314,17.56 8.26,16.505 v -0.3 -0.185 C 8.26,15.966 8.245,15.658 8.222,15.104 8.214,14.958 8.214,14.811 8.214,14.665 8.214,14.488 8.222,14.188 8.245,13.764 8.276,13.095 8.291,12.51 8.291,12.009 8.291,11.432 8.276,10.77 8.245,10.023 8.229,9.746 8.229,9.384 8.229,8.938 L 8.16,1.016 C 8.16,0.685 8.214,0.462 8.329,0.362 L 9.915,0.3 10.901,0.316 11.948,0.3 c 1.793,0 3.202,0.208 4.226,0.616 0.77,0.308 1.27,0.624 1.501,0.932 0.377,0.331 0.685,0.692 0.924,1.077 0.239,0.393 0.508,1.032 0.816,1.933 h 0.531 c 0.27,0 0.57,-0.024 0.901,-0.07 V 4.326 c 0,-0.8 -0.1,-2.201 -0.3,-4.195 -0.077,-0.801 -0.154,-1.286 -0.231,-1.463 -0.262,-0.046 -0.424,-0.069 -0.485,-0.069 h -0.616 l -0.87,-0.016 c -0.1,0 -0.762,0.039 -1.986,0.131 -0.224,0.008 -1.286,0.054 -3.187,0.116 -1.909,0.069 -3.772,0.1 -5.597,0.1 L 4.172,-1.17 C 2.856,-1.201 1.624,-1.263 0.485,-1.355 H 0.231 c -0.069,0 -0.169,0.008 -0.316,0.023 -0.023,0.116 -0.03,0.223 -0.03,0.316 0,0.462 0.038,0.808 0.115,1.016" style="fill:#760135;fill-opacity:1;fill-rule:evenodd;stroke:none" id="path980"/></g><g id="g982" transform="translate(93.2251,71.4927)" style="fill-rule:evenodd"><path d="m 0,0 c 0.631,-0.031 1.186,-0.085 1.655,-0.146 0.878,-0.123 1.894,-0.185 3.049,-0.185 0.4,0 1.431,0.031 3.094,0.1 2.479,0.1 4.719,0.146 6.721,0.146 l 3.025,0.039 c 0.678,0 1.679,-0.085 3.003,-0.254 0.2,-0.223 0.3,-0.524 0.3,-0.901 v -3.441 l 0.038,-0.685 c 0,-0.062 -0.007,-0.162 -0.023,-0.3 l -0.685,-0.031 c -0.085,0 -0.277,0.007 -0.562,0.031 -0.1,0.223 -0.239,0.554 -0.4,0.985 l -0.67,1.185 c -0.254,0.501 -0.616,1.017 -1.07,1.54 -0.277,0.077 -0.631,0.123 -1.07,0.131 -0.108,0.008 -0.447,0.039 -1.016,0.085 -1.032,0.084 -2.148,0.131 -3.341,0.131 -1.355,0 -2.564,-0.024 -3.634,-0.062 C 8.376,-1.917 8.36,-3.01 8.36,-4.927 l 0.016,-2.802 v -2.102 c 0.285,-0.03 0.523,-0.054 0.723,-0.054 1.994,0 3.418,0.039 4.265,0.124 0.847,0.077 1.37,0.184 1.571,0.323 0.2,0.139 0.377,0.377 0.538,0.724 0.101,0.246 0.293,1.062 0.586,2.455 l 0.215,0.016 0.97,-0.016 c 0.046,-0.993 0.062,-1.739 0.062,-2.255 0,-1.17 -0.008,-1.917 -0.023,-2.256 -0.016,-0.331 -0.024,-0.593 -0.024,-0.777 0,-0.308 0.016,-0.786 0.047,-1.448 0.038,-0.662 0.054,-1.154 0.054,-1.478 v -0.369 h -1.186 c -0.046,0.177 -0.131,0.546 -0.254,1.101 -0.223,1.039 -0.423,1.686 -0.601,1.94 -0.13,0.2 -0.354,0.354 -0.669,0.454 -0.223,0.077 -1.047,0.115 -2.471,0.115 -1.686,0 -2.956,-0.046 -3.803,-0.138 v -0.562 c 0,-1.324 0.023,-2.433 0.069,-3.311 l -0.031,-3.602 c 0,-0.424 0.146,-0.716 0.447,-0.87 0.462,-0.231 1.855,-0.347 4.195,-0.347 1.54,0 2.856,0.116 3.934,0.347 0.747,0.169 1.401,0.539 1.971,1.116 0.754,0.747 1.385,1.794 1.886,3.141 0.346,0.031 0.631,0.054 0.854,0.054 0.123,0 0.301,-0.008 0.547,-0.023 -0.031,-0.277 -0.062,-0.508 -0.077,-0.701 l -0.1,-0.5 -0.608,-3.149 -0.301,-1.909 c -0.723,-0.031 -1.293,-0.046 -1.716,-0.046 -0.624,0 -2.287,0.054 -4.996,0.169 -1.902,0.077 -4.196,0.116 -6.883,0.116 -1.339,0 -2.979,-0.062 -4.926,-0.17 H 1.94 l -2.025,-0.069 v 1.155 c 0.216,0.054 0.632,0.115 1.271,0.185 1.154,0.13 1.955,0.307 2.401,0.531 0.124,0.323 0.185,0.731 0.185,1.216 0,0.193 -0.008,0.516 -0.015,0.97 l 0.015,0.516 -0.054,6.297 0.023,1.886 -0.084,2.671 0.015,1.886 -0.154,2.071 c 0,0.054 -0.008,0.162 -0.031,0.331 -0.107,0.123 -0.277,0.2 -0.5,0.239 -0.123,0.015 -0.293,0.054 -0.5,0.1 -0.632,0.131 -1.248,0.208 -1.84,0.231 -0.208,0.008 -0.455,0.031 -0.732,0.069 z" style="fill:#760135;fill-opacity:1;fill-rule:evenodd;stroke:none" id="path984"/></g><g id="g986" transform="translate(138.3599,70.0918)" style="fill-rule:evenodd"><path d="m 0,0 c 0.077,-0.323 0.169,-0.962 0.269,-1.909 0.101,-0.955 0.147,-1.648 0.147,-2.079 0,-0.169 -0.039,-0.377 -0.116,-0.623 -0.477,0.015 -0.885,0.061 -1.216,0.138 -0.847,1.301 -1.447,2.117 -1.786,2.456 -0.647,0.616 -1.478,1.147 -2.494,1.578 -0.739,0.324 -1.602,0.485 -2.564,0.485 -1.863,0 -3.495,-0.831 -4.911,-2.502 -1.417,-1.663 -2.117,-4.141 -2.117,-7.436 0,-1.548 0.269,-3.049 0.823,-4.504 0.555,-1.455 1.378,-2.594 2.479,-3.425 1.101,-0.832 2.402,-1.24 3.888,-1.24 0.723,0 1.493,0.093 2.302,0.277 0.415,0.093 0.746,0.27 1.008,0.531 0.177,0.178 0.293,0.447 0.347,0.801 0.092,0.647 0.13,1.555 0.13,2.741 0,1.154 -0.015,1.947 -0.046,2.378 -0.077,0.17 -0.154,0.278 -0.223,0.324 -0.077,0.054 -0.3,0.131 -0.678,0.238 l -1.485,0.401 c -0.324,0.077 -0.524,0.177 -0.601,0.285 -0.023,0.146 -0.038,0.254 -0.038,0.315 0,0.162 0.046,0.377 0.123,0.654 0.2,0.07 0.339,0.101 0.416,0.101 1.208,0 2.263,-0.039 3.156,-0.124 0.308,-0.015 0.647,-0.03 1.016,-0.03 l 2.641,0.038 1.116,0.031 c 0.131,0.008 0.508,0 1.116,-0.031 0.015,-0.292 0.015,-0.539 0.015,-0.739 0,-0.123 -0.038,-0.262 -0.115,-0.416 -0.185,-0.115 -0.508,-0.254 -0.97,-0.423 -0.454,-0.169 -0.708,-0.285 -0.762,-0.339 -0.092,-0.092 -0.154,-0.231 -0.185,-0.415 -0.038,-0.193 -0.054,-0.855 -0.054,-1.987 0,-1.308 -0.007,-2.094 -0.015,-2.348 -0.046,-0.823 -0.069,-1.293 -0.069,-1.401 0,-0.415 -0.054,-0.669 -0.162,-0.769 -0.316,-0.308 -1.278,-0.663 -2.895,-1.055 -1.624,-0.393 -3.51,-0.593 -5.65,-0.593 -1.509,0 -2.81,0.123 -3.919,0.362 -1.108,0.239 -2.047,0.593 -2.825,1.055 -1.047,0.623 -1.947,1.385 -2.694,2.271 -0.739,0.893 -1.301,1.855 -1.663,2.886 -0.516,1.471 -0.77,2.933 -0.77,4.396 0,1.632 0.377,3.287 1.132,4.973 0.562,1.209 1.339,2.302 2.348,3.28 1.008,0.97 2.263,1.747 3.78,2.324 1.516,0.578 3.164,0.87 4.942,0.87 0.223,0 0.585,-0.03 1.085,-0.084 1.355,0 2.625,-0.17 3.803,-0.508 C -1.763,0.87 -0.777,0.47 0,0" style="fill:#760135;fill-opacity:1;fill-rule:evenodd;stroke:none" id="path988"/></g><g id="g990" transform="translate(143.0479,49.876)" style="fill-rule:evenodd"><path d="m 0,0 v 1.201 c 0.223,0.069 0.585,0.162 1.093,0.285 0.716,0.177 1.255,0.362 1.609,0.554 0.2,0.339 0.3,0.824 0.3,1.432 l -0.015,1.971 0.031,3.803 -0.016,0.9 c 0.093,2.21 0.131,3.341 0.131,3.411 l -0.031,2.217 0.054,0.9 -0.084,1.902 -0.039,0.723 c -0.008,0.108 -0.046,0.285 -0.115,0.532 -0.455,0.208 -1.194,0.346 -2.217,0.4 -0.247,0.008 -0.439,0.031 -0.586,0.054 l -0.03,1.463 4.773,-0.201 c 0.585,-0.023 0.954,-0.03 1.1,-0.03 0.655,0 1.702,0.046 3.149,0.13 0.816,0.062 1.324,0.093 1.54,0.101 0.007,-0.208 0.015,-0.385 0.015,-0.532 0,-0.192 -0.008,-0.431 -0.038,-0.731 C 10.177,20.323 9.669,20.177 9.099,20.039 8.53,19.9 8.06,19.761 7.691,19.615 7.629,19.323 7.59,18.907 7.59,18.36 7.59,17.883 7.614,17.49 7.644,17.19 7.614,15.312 7.59,13.865 7.59,12.856 L 7.614,8.445 7.529,6.212 7.59,2.871 7.544,2.24 c 0,-0.092 0.031,-0.223 0.1,-0.385 0.678,-0.146 1.286,-0.246 1.84,-0.3 0.1,-0.015 0.439,-0.062 1.016,-0.138 0.039,-0.332 0.062,-0.609 0.062,-0.832 0,-0.123 0,-0.316 -0.015,-0.57 C 10.4,0.015 10.293,0.008 10.216,0 9.861,-0.023 9.654,-0.031 9.6,-0.031 9.523,-0.031 9.376,-0.015 9.161,0.015 9.007,0.039 8.268,0.115 6.952,0.254 L 3.995,0.285 C 3.41,0.285 2.556,0.231 1.432,0.115 0.701,0.054 0.223,0.008 0,0" style="fill:#760135;fill-opacity:1;fill-rule:evenodd;stroke:none" id="path992"/></g><g id="g994" transform="translate(168.083,70.2764)" style="fill-rule:evenodd"><path d="m 0,0 c -0.97,0 -1.824,-0.231 -2.571,-0.677 -0.739,-0.455 -1.301,-0.947 -1.678,-1.494 -0.639,-0.924 -1.086,-1.932 -1.355,-3.033 -0.262,-1.093 -0.401,-2.425 -0.401,-3.995 0,-0.955 0.039,-1.64 0.116,-2.056 0.023,-0.131 0.061,-0.362 0.1,-0.685 0.1,-0.824 0.215,-1.424 0.354,-1.801 0.477,-1.409 0.816,-2.287 1.016,-2.618 0.331,-0.569 0.824,-1.131 1.486,-1.686 0.331,-0.292 0.816,-0.554 1.447,-0.793 0.631,-0.238 1.27,-0.361 1.902,-0.361 1.201,0 2.317,0.284 3.341,0.846 1.031,0.562 1.855,1.517 2.479,2.864 0.623,1.34 0.931,3.095 0.931,5.258 0,0.885 -0.062,2.094 -0.185,3.618 L 6.898,-6.297 C 6.867,-6.205 6.813,-5.982 6.736,-5.612 6.32,-3.788 5.535,-2.394 4.373,-1.44 3.21,-0.477 1.755,0 0,0 m -11.363,-9.315 c 0,1.378 0.27,2.764 0.801,4.157 0.393,1.001 0.932,1.917 1.632,2.748 0.701,0.84 1.586,1.579 2.641,2.233 1.054,0.654 2.132,1.116 3.233,1.401 1.101,0.285 2.332,0.423 3.687,0.423 2.317,0 4.319,-0.431 6.02,-1.301 1.702,-0.862 3.041,-2.04 4.026,-3.518 1.263,-1.924 1.902,-3.949 1.902,-6.058 0,-3.149 -1.07,-5.851 -3.218,-8.099 -2.14,-2.248 -5.112,-3.372 -8.93,-3.372 -0.947,0 -1.832,0.062 -2.648,0.185 -0.624,0.085 -1.17,0.208 -1.64,0.37 -0.847,0.277 -1.316,0.438 -1.416,0.477 -1.209,0.693 -2.187,1.401 -2.918,2.125 -0.739,0.723 -1.355,1.539 -1.871,2.455 -0.277,0.509 -0.592,1.432 -0.946,2.764 -0.239,0.862 -0.355,1.863 -0.355,3.01" style="fill:#760135;fill-opacity:1;fill-rule:evenodd;stroke:none" id="path996"/></g><g id="g998" transform="translate(192.5249,45.5191)" style="fill-rule:evenodd"><path d="m 0,0 c 0.447,-0.778 0.839,-1.27 1.186,-1.486 0.192,-0.077 0.338,-0.115 0.454,-0.115 0.254,0 0.469,0.131 0.646,0.4 0.254,0.377 0.385,1.001 0.385,1.871 v 0.985 c 0,0.601 0.023,1.17 0.07,1.717 0.023,0.315 0.03,0.577 0.03,0.785 0,0.1 -0.007,0.477 -0.03,1.132 l 0.015,1.255 -0.054,6.258 c 0,0.339 0,0.601 -0.015,0.801 -0.031,0.446 -0.046,0.877 -0.046,1.285 l 0.015,3.626 -0.085,3.072 -0.084,1.101 c 0,0.823 0,1.339 -0.016,1.555 -0.246,0.054 -0.993,0.138 -2.255,0.261 h -0.401 l -0.431,0.054 c -0.069,0.008 -0.169,0.023 -0.315,0.047 l -0.085,1.439 c 1.093,0 2.024,-0.038 2.802,-0.108 0.778,-0.077 1.824,-0.107 3.125,-0.107 1.124,0 2.348,0.061 3.688,0.2 0.277,0.031 0.493,0.046 0.647,0.046 0.192,0 0.469,-0.023 0.839,-0.069 0.023,-0.254 0.031,-0.447 0.031,-0.585 0,-0.139 -0.016,-0.362 -0.047,-0.662 C 9.246,24.642 8.707,24.588 8.445,24.588 7.86,24.58 7.421,24.527 7.144,24.442 7.136,24.172 7.129,24.011 7.129,23.957 c 0,-1.086 0.015,-1.74 0.038,-1.971 0.031,-0.238 0.046,-0.877 0.046,-1.94 V 18.661 L 7.283,16.513 7.244,14.827 7.298,13.118 7.283,11.37 7.313,10.085 C 7.313,7.614 7.206,5.697 6.998,4.334 6.782,2.972 6.451,1.855 5.997,0.985 5.35,-0.246 4.765,-1.116 4.242,-1.617 3.372,-2.433 2.525,-2.995 1.686,-3.31 0.855,-3.634 0.023,-3.788 -0.801,-3.788 c -0.777,0 -1.455,0.27 -2.024,0.816 -0.578,0.547 -0.862,1.178 -0.862,1.902 0,0.593 0.2,1.085 0.608,1.47 0.408,0.393 0.885,0.585 1.447,0.585 C -1.101,0.985 -0.554,0.654 0,0" style="fill:#760135;fill-opacity:1;fill-rule:evenodd;stroke:none" id="path1000"/></g><g id="g1002" transform="translate(204.3262,71.4927)" style="fill-rule:evenodd"><path d="m 0,0 c 0.631,-0.031 1.186,-0.085 1.655,-0.146 0.878,-0.123 1.894,-0.185 3.049,-0.185 0.4,0 1.431,0.031 3.094,0.1 2.479,0.1 4.719,0.146 6.721,0.146 l 3.025,0.039 c 0.678,0 1.679,-0.085 3.003,-0.254 0.2,-0.223 0.3,-0.524 0.3,-0.901 v -3.441 l 0.038,-0.685 c 0,-0.062 -0.007,-0.162 -0.023,-0.3 l -0.685,-0.031 c -0.085,0 -0.277,0.007 -0.562,0.031 -0.1,0.223 -0.239,0.554 -0.4,0.985 l -0.67,1.185 c -0.254,0.501 -0.616,1.017 -1.07,1.54 -0.277,0.077 -0.631,0.123 -1.07,0.131 -0.108,0.008 -0.447,0.039 -1.016,0.085 -1.032,0.084 -2.148,0.131 -3.341,0.131 -1.355,0 -2.564,-0.024 -3.634,-0.062 C 8.376,-1.917 8.36,-3.01 8.36,-4.927 l 0.016,-2.802 v -2.102 c 0.285,-0.03 0.523,-0.054 0.723,-0.054 1.994,0 3.418,0.039 4.265,0.124 0.847,0.077 1.37,0.184 1.571,0.323 0.2,0.139 0.377,0.377 0.538,0.724 0.101,0.246 0.293,1.062 0.586,2.455 l 0.215,0.016 0.97,-0.016 c 0.046,-0.993 0.062,-1.739 0.062,-2.255 0,-1.17 -0.008,-1.917 -0.023,-2.256 -0.016,-0.331 -0.024,-0.593 -0.024,-0.777 0,-0.308 0.016,-0.786 0.047,-1.448 0.038,-0.662 0.054,-1.154 0.054,-1.478 v -0.369 h -1.186 c -0.046,0.177 -0.131,0.546 -0.254,1.101 -0.223,1.039 -0.423,1.686 -0.601,1.94 -0.13,0.2 -0.354,0.354 -0.669,0.454 -0.224,0.077 -1.047,0.115 -2.471,0.115 -1.686,0 -2.957,-0.046 -3.803,-0.138 v -0.562 c 0,-1.324 0.023,-2.433 0.069,-3.311 l -0.031,-3.602 c 0,-0.424 0.146,-0.716 0.447,-0.87 0.462,-0.231 1.855,-0.347 4.195,-0.347 1.54,0 2.856,0.116 3.934,0.347 0.747,0.169 1.401,0.539 1.971,1.116 0.754,0.747 1.385,1.794 1.886,3.141 0.346,0.031 0.631,0.054 0.854,0.054 0.123,0 0.301,-0.008 0.547,-0.023 -0.031,-0.277 -0.062,-0.508 -0.077,-0.701 l -0.1,-0.5 -0.608,-3.149 -0.301,-1.909 c -0.723,-0.031 -1.293,-0.046 -1.716,-0.046 -0.624,0 -2.287,0.054 -4.996,0.169 -1.902,0.077 -4.196,0.116 -6.883,0.116 -1.339,0 -2.979,-0.062 -4.927,-0.17 h -0.7 l -2.025,-0.069 v 1.155 c 0.216,0.054 0.632,0.115 1.271,0.185 1.154,0.13 1.955,0.307 2.401,0.531 0.124,0.323 0.185,0.731 0.185,1.216 0,0.193 -0.008,0.516 -0.015,0.97 l 0.015,0.516 -0.054,6.297 0.023,1.886 -0.084,2.671 0.015,1.886 -0.154,2.071 c 0,0.054 -0.008,0.162 -0.031,0.331 -0.107,0.123 -0.277,0.2 -0.5,0.239 -0.123,0.015 -0.293,0.054 -0.5,0.1 -0.632,0.131 -1.248,0.208 -1.84,0.231 -0.208,0.008 -0.455,0.031 -0.732,0.069 z" style="fill:#760135;fill-opacity:1;fill-rule:evenodd;stroke:none" id="path1004"/></g><g id="g1006" transform="translate(241.9629,71.0078)" style="fill-rule:evenodd"><path d="m 0,0 c 0.115,-0.377 0.216,-0.947 0.3,-1.717 0.139,-1.147 0.2,-2.04 0.2,-2.671 0,-0.2 -0.023,-0.416 -0.061,-0.654 l -0.17,-0.047 -1.2,0.085 -0.201,0.031 c -0.492,1.47 -0.977,2.463 -1.47,2.987 -0.847,0.893 -1.84,1.339 -2.987,1.339 -1.093,0 -1.955,-0.292 -2.594,-0.862 -0.639,-0.577 -0.963,-1.285 -0.963,-2.132 0,-0.709 0.316,-1.394 0.947,-2.056 0.624,-0.654 1.948,-1.285 3.98,-1.886 0.678,-0.2 1.502,-0.516 2.464,-0.962 0.962,-0.447 1.693,-0.924 2.194,-1.447 0.662,-0.693 1.124,-1.355 1.378,-1.994 0.246,-0.647 0.369,-1.44 0.369,-2.402 0,-1.047 -0.192,-2.071 -0.585,-3.087 -0.208,-0.531 -0.546,-1.039 -1.016,-1.517 -0.331,-0.338 -0.847,-0.731 -1.555,-1.177 -0.701,-0.455 -1.424,-0.778 -2.171,-0.978 -0.754,-0.2 -1.717,-0.3 -2.902,-0.3 -0.778,0 -1.709,0.107 -2.787,0.331 l -2.001,0.585 c -0.555,0.154 -0.909,0.292 -1.055,0.415 -0.054,0.047 -0.1,0.154 -0.146,0.316 v 0.185 c 0,0.123 -0.031,0.885 -0.085,2.286 -0.023,0.724 -0.031,1.24 -0.031,1.54 v 0.631 l 1.548,0.039 c 0.538,-1.24 0.877,-1.994 1.039,-2.248 0.338,-0.57 0.723,-1.032 1.139,-1.378 0.416,-0.354 0.916,-0.631 1.494,-0.839 0.577,-0.208 1.201,-0.316 1.878,-0.316 0.6,0 1.262,0.131 1.986,0.385 0.724,0.262 1.301,0.677 1.74,1.262 0.439,0.586 0.662,1.217 0.662,1.887 0,0.823 -0.385,1.585 -1.155,2.286 -0.469,0.431 -1.724,1.016 -3.772,1.74 -2.048,0.723 -3.464,1.37 -4.257,1.94 -0.793,0.562 -1.417,1.324 -1.871,2.278 -0.454,0.947 -0.685,1.863 -0.685,2.749 0,1.763 0.639,3.271 1.902,4.503 1.27,1.24 3.14,1.855 5.612,1.855 0.531,0 1.324,-0.092 2.371,-0.284 C -1.886,0.593 -1.047,0.354 0,0" style="fill:#760135;fill-opacity:1;fill-rule:evenodd;stroke:none" id="path1008"/></g><g id="g1010" transform="translate(245.9351,70.0918)" style="fill-rule:evenodd"><path d="m 0,0 -0.046,1.316 c 0.2,0.016 0.408,0.016 0.616,0.016 0.562,0 1.147,-0.016 1.755,-0.046 1.47,-0.077 2.34,-0.116 2.594,-0.116 0.893,0 1.763,0.016 2.618,0.046 0.846,0.039 1.609,0.062 2.271,0.07 0.662,0.015 1.108,0.023 1.347,0.03 l -0.016,-0.2 0.031,-0.97 V 0.015 c -0.623,-0.092 -1.27,-0.13 -1.94,-0.13 -0.616,0 -1.031,-0.124 -1.232,-0.37 -0.13,-0.154 -0.2,-0.816 -0.2,-1.986 0,-0.354 0.008,-0.647 0.016,-0.87 l 0.015,-0.6 -0.031,-1.571 0.1,-1.332 -0.069,-2.887 0.223,-4.195 c 0.054,-1.209 0.316,-2.217 0.801,-3.018 0.354,-0.593 0.854,-1.055 1.501,-1.386 0.932,-0.469 1.848,-0.7 2.756,-0.7 1.062,0 2.063,0.138 2.987,0.416 0.539,0.154 1.055,0.408 1.54,0.762 0.485,0.346 0.823,0.67 1.008,0.962 0.4,0.608 0.685,1.178 0.839,1.717 0.208,0.731 0.316,1.87 0.316,3.418 0,2.694 -0.146,5.727 -0.431,9.099 l -0.07,0.885 c -0.03,0.655 -0.153,1.094 -0.369,1.317 -0.354,0.346 -0.754,0.523 -1.201,0.523 l -1.57,-0.038 -0.216,0.054 0.039,1.285 h 1.316 l 3.187,-0.154 c 1.07,0 2.086,0.054 3.056,0.154 l 0.285,-0.038 c 0.062,-0.362 0.1,-0.624 0.1,-0.762 0,-0.124 -0.023,-0.277 -0.069,-0.455 -0.416,-0.115 -0.847,-0.177 -1.301,-0.2 -0.747,-0.1 -1.163,-0.184 -1.24,-0.254 -0.154,-0.131 -0.231,-0.338 -0.231,-0.616 0,-0.2 0.016,-0.485 0.054,-0.869 0.031,-0.278 0.047,-0.763 0.047,-1.448 0,-0.392 0,-0.7 0.007,-0.924 0.008,-0.223 0.016,-0.446 0.023,-0.685 0.039,-0.8 0.062,-1.616 0.085,-2.44 l 0.169,-3.387 c 0,-2.271 -0.077,-3.796 -0.231,-4.565 -0.161,-0.762 -0.369,-1.371 -0.639,-1.817 -0.408,-0.67 -0.993,-1.286 -1.755,-1.848 -0.754,-0.562 -1.701,-1.008 -2.833,-1.339 -1.139,-0.323 -2.463,-0.493 -3.972,-0.493 -1.724,0 -3.21,0.231 -4.442,0.693 -1.232,0.462 -2.171,1.07 -2.794,1.824 -0.632,0.747 -1.063,1.725 -1.294,2.926 -0.169,0.823 -0.254,2.009 -0.254,3.541 v 7.96 c 0,1.886 -0.084,2.948 -0.261,3.187 C 2.748,-0.293 1.986,-0.092 0.701,-0.054 0.423,-0.054 0.192,-0.031 0,0" style="fill:#760135;fill-opacity:1;fill-rule:evenodd;stroke:none" id="path1012"/></g><g id="g1014" transform="translate(272.6636,49.876)" style="fill-rule:evenodd"><path d="m 0,0 v 1.201 c 0.223,0.069 0.585,0.162 1.093,0.285 0.716,0.177 1.255,0.362 1.609,0.554 0.2,0.339 0.3,0.824 0.3,1.432 l -0.015,1.971 0.031,3.803 -0.016,0.9 c 0.093,2.21 0.131,3.341 0.131,3.411 l -0.031,2.217 0.054,0.9 -0.084,1.902 -0.039,0.723 c -0.008,0.108 -0.046,0.285 -0.115,0.532 -0.455,0.208 -1.194,0.346 -2.217,0.4 -0.247,0.008 -0.439,0.031 -0.586,0.054 l -0.03,1.463 4.773,-0.201 c 0.585,-0.023 0.954,-0.03 1.1,-0.03 0.655,0 1.702,0.046 3.149,0.13 0.816,0.062 1.324,0.093 1.54,0.101 0.007,-0.208 0.015,-0.385 0.015,-0.532 0,-0.192 -0.008,-0.431 -0.038,-0.731 C 10.177,20.323 9.669,20.177 9.099,20.039 8.53,19.9 8.06,19.761 7.691,19.615 7.629,19.323 7.59,18.907 7.59,18.36 7.59,17.883 7.614,17.49 7.644,17.19 7.614,15.312 7.59,13.865 7.59,12.856 L 7.614,8.445 7.529,6.212 7.59,2.871 7.544,2.24 c 0,-0.092 0.031,-0.223 0.1,-0.385 0.678,-0.146 1.286,-0.246 1.84,-0.3 0.1,-0.015 0.439,-0.062 1.016,-0.138 0.039,-0.332 0.062,-0.609 0.062,-0.832 0,-0.123 0,-0.316 -0.015,-0.57 C 10.4,0.015 10.293,0.008 10.216,0 9.861,-0.023 9.654,-0.031 9.6,-0.031 9.523,-0.031 9.376,-0.015 9.161,0.015 9.007,0.039 8.268,0.115 6.952,0.254 L 3.995,0.285 C 3.41,0.285 2.556,0.231 1.432,0.115 0.701,0.054 0.223,0.008 0,0" style="fill:#760135;fill-opacity:1;fill-rule:evenodd;stroke:none" id="path1016"/></g><g id="g1018" transform="translate(286.6201,72.4243)" style="fill-rule:evenodd"><path d="m 0,0 h 1.032 c 0.084,-0.123 0.138,-0.208 0.169,-0.269 0.316,-0.539 0.554,-0.893 0.716,-1.063 0.146,-0.031 0.908,-0.054 2.286,-0.054 0.862,0 1.625,0.008 2.287,0.016 l 0.338,0.038 2.017,0.016 3.772,-0.016 h 5.158 l 0.986,0.139 c 0.146,0.1 0.3,0.369 0.469,0.808 0.046,0.1 0.108,0.239 0.185,0.423 l 0.731,0.016 c 0.116,0 0.277,-0.008 0.501,-0.016 0.015,-0.769 0.015,-1.924 0.015,-3.471 l 0.023,-1.486 -0.023,-0.855 c 0,-0.285 -0.015,-0.539 -0.062,-0.746 -0.461,-0.147 -0.862,-0.239 -1.2,-0.27 -0.293,0.431 -0.609,1.063 -0.947,1.886 -0.339,0.824 -0.555,1.278 -0.647,1.371 -0.131,0.146 -0.293,0.238 -0.47,0.284 -0.269,0.054 -1.447,0.077 -3.548,0.077 -0.308,0 -0.701,-0.015 -1.171,-0.061 -0.053,-0.439 -0.084,-0.793 -0.084,-1.07 l 0.023,-2.24 v -4.904 l 0.046,-5.289 -0.015,-2.171 c 0,-0.77 0.069,-1.347 0.2,-1.74 0.177,-0.077 0.508,-0.146 0.993,-0.215 0.085,-0.008 0.5,-0.1 1.239,-0.27 0.331,-0.077 0.632,-0.161 0.886,-0.261 0.061,-0.401 0.084,-0.647 0.084,-0.739 0,-0.101 -0.015,-0.247 -0.046,-0.432 -0.246,-0.015 -0.446,-0.015 -0.6,-0.015 -1.147,0 -2.125,0.039 -2.926,0.123 -0.8,0.085 -2.248,0.123 -4.357,0.123 -0.331,0 -1.309,-0.061 -2.933,-0.2 -0.639,-0.046 -1.047,-0.061 -1.239,-0.061 -0.008,0.161 -0.023,0.292 -0.031,0.377 l -0.016,0.385 v 0.138 c 0.247,0.324 0.709,0.562 1.386,0.716 1.155,0.277 1.955,0.524 2.402,0.747 0.108,0.216 0.177,0.493 0.2,0.839 0.077,1.332 0.116,3.457 0.116,6.374 L 7.86,-6.705 c 0,1.732 -0.031,2.787 -0.1,3.156 -0.023,0.1 -0.062,0.169 -0.116,0.223 -0.054,0.047 -0.131,0.077 -0.231,0.093 -0.346,0.046 -1.47,0.061 -3.371,0.061 -1.047,0 -1.748,-0.1 -2.102,-0.3 -0.485,-0.277 -1.201,-1.031 -2.156,-2.263 -0.277,-0.362 -0.485,-0.539 -0.615,-0.539 -0.516,0.269 -0.847,0.485 -0.986,0.654 0.339,0.724 0.824,2.171 1.432,4.334 C -0.208,-0.647 -0.077,-0.216 0,0" style="fill:#760135;fill-opacity:1;fill-rule:evenodd;stroke:none" id="path1020"/></g><g id="g1022" transform="translate(313.2178,59.2759)" style="fill-rule:evenodd"><path d="m 0,0 c 2.594,-0.038 4.134,-0.054 4.596,-0.054 l 0.416,0.016 C 4.68,0.955 4.249,2.109 3.711,3.426 3.179,4.75 2.748,5.751 2.41,6.443 Z m -7.852,-9.384 0.031,1.139 c 0.207,0.062 0.585,0.146 1.116,0.247 0.862,0.169 1.378,0.315 1.563,0.454 0.184,0.131 0.408,0.454 0.677,0.962 l 3.372,8.83 3.949,10.369 h 1.062 0.755 l 0.146,-0.3 2.902,-6.874 C 8.383,3.98 8.968,2.564 9.492,1.193 c 0.523,-1.378 0.97,-2.494 1.347,-3.364 0.223,-0.523 0.531,-1.309 0.924,-2.356 0.2,-0.569 0.5,-1.277 0.916,-2.132 0.223,-0.47 0.385,-0.747 0.5,-0.824 0.201,-0.161 0.524,-0.277 0.978,-0.331 0.447,-0.054 0.932,-0.184 1.455,-0.385 0.062,-0.369 0.085,-0.639 0.085,-0.816 0,-0.077 -0.008,-0.2 -0.016,-0.369 -0.823,0 -1.732,0.038 -2.717,0.115 -0.993,0.077 -1.886,0.123 -2.671,0.123 -0.886,0 -1.517,-0.015 -1.91,-0.038 L 5.55,-9.33 4.734,-9.369 c 0,0.393 0.016,0.762 0.047,1.124 l 1.855,0.4 c 0.554,0.139 0.877,0.255 0.97,0.332 0.108,0.107 0.162,0.238 0.162,0.384 0,0.147 -0.024,0.293 -0.085,0.447 l -0.662,1.64 -1.309,3.271 -6.374,0.016 c -0.231,-0.531 -0.724,-1.84 -1.47,-3.919 -0.208,-0.592 -0.316,-0.993 -0.316,-1.208 0,-0.285 0.077,-0.493 0.239,-0.616 0.254,-0.208 0.739,-0.362 1.462,-0.447 0.1,-0.023 0.501,-0.084 1.186,-0.184 0.015,-0.401 0.015,-0.678 0.015,-0.839 0,-0.124 -0.008,-0.247 -0.031,-0.378 -0.692,0 -2.332,0.093 -4.942,0.277 l -0.685,-0.115 c -0.824,-0.131 -1.609,-0.2 -2.348,-0.2 z" style="fill:#760135;fill-opacity:1;fill-rule:evenodd;stroke:none" id="path1024"/></g><g id="g1026" transform="translate(56.4985,94.418)" style="fill-rule:evenodd"><path d="m 0,0 c 0.069,-0.169 0.216,-0.639 0.439,-1.416 0.1,-0.355 0.154,-0.732 0.154,-1.124 h -0.755 c -0.523,0.746 -1.07,1.285 -1.639,1.616 -0.562,0.324 -1.186,0.493 -1.886,0.493 -0.855,0 -1.548,-0.339 -2.071,-1.001 -0.709,-0.908 -1.063,-2.171 -1.063,-3.787 0,-0.94 0.054,-1.609 0.177,-2.002 0.201,-0.647 0.455,-1.178 0.755,-1.586 0.231,-0.308 0.539,-0.554 0.908,-0.731 0.493,-0.254 1.009,-0.377 1.563,-0.377 0.608,0 1.193,0.192 1.755,0.569 0.57,0.378 1.109,0.94 1.632,1.686 0.2,0.039 0.47,0.062 0.801,0.062 C 0.747,-7.806 0.708,-8.022 0.662,-8.245 0.647,-8.337 0.585,-8.684 0.47,-9.292 L 0.4,-9.546 0.277,-9.931 c -0.331,-0.261 -0.808,-0.454 -1.416,-0.585 -0.608,-0.131 -1.363,-0.192 -2.248,-0.192 -0.678,0 -1.324,0.061 -1.925,0.192 -0.608,0.123 -1.124,0.324 -1.555,0.601 -0.631,0.4 -1.124,0.831 -1.478,1.293 -0.362,0.462 -0.631,0.97 -0.801,1.517 -0.177,0.546 -0.261,1.154 -0.261,1.839 0,1.64 0.539,3.003 1.624,4.073 1.086,1.07 2.471,1.609 4.157,1.609 0.685,0 1.324,-0.039 1.932,-0.108 C -1.093,0.239 -0.523,0.139 0,0" style="fill:#868687;fill-opacity:1;fill-rule:evenodd;stroke:none" id="path1028"/></g><g id="g1030" transform="translate(58.146,94.5874)" style="fill-rule:evenodd"><path d="m 0,0 c 0.316,-0.015 0.585,-0.038 0.824,-0.069 0.431,-0.062 0.939,-0.093 1.509,-0.093 0.2,0 0.715,0.016 1.532,0.047 1.231,0.053 2.347,0.077 3.341,0.077 l 1.501,0.015 c 0.331,0 0.831,-0.039 1.485,-0.123 0.101,-0.108 0.147,-0.262 0.147,-0.447 v -1.709 l 0.023,-0.339 c 0,-0.03 -0.008,-0.084 -0.008,-0.146 l -0.346,-0.015 c -0.039,0 -0.131,0 -0.277,0.015 -0.054,0.108 -0.116,0.27 -0.201,0.485 l -0.331,0.593 c -0.123,0.246 -0.3,0.5 -0.531,0.762 -0.138,0.039 -0.315,0.062 -0.531,0.062 -0.054,0.007 -0.223,0.023 -0.5,0.046 -0.516,0.038 -1.07,0.061 -1.655,0.061 -0.678,0 -1.278,-0.007 -1.81,-0.03 C 4.157,-0.947 4.149,-1.493 4.149,-2.44 l 0.008,-1.394 v -1.039 c 0.139,-0.015 0.254,-0.023 0.354,-0.023 0.993,0 1.701,0.015 2.117,0.054 0.424,0.038 0.685,0.092 0.785,0.161 0.1,0.07 0.185,0.193 0.262,0.362 0.054,0.123 0.146,0.524 0.293,1.217 l 0.107,0.007 0.478,-0.007 c 0.023,-0.493 0.031,-0.863 0.031,-1.117 0,-0.585 0,-0.954 -0.008,-1.116 -0.008,-0.169 -0.016,-0.3 -0.016,-0.392 0,-0.147 0.008,-0.385 0.024,-0.716 0.023,-0.331 0.03,-0.57 0.03,-0.732 V -7.36 H 8.022 c -0.024,0.093 -0.062,0.27 -0.124,0.547 -0.107,0.516 -0.207,0.831 -0.3,0.962 -0.061,0.1 -0.177,0.17 -0.331,0.224 -0.108,0.038 -0.516,0.053 -1.224,0.053 -0.839,0 -1.463,-0.015 -1.886,-0.061 V -5.92 c 0,-0.654 0.008,-1.201 0.031,-1.64 L 4.172,-9.346 c 0,-0.208 0.077,-0.354 0.224,-0.431 0.231,-0.115 0.923,-0.177 2.078,-0.177 0.77,0 1.417,0.062 1.956,0.177 0.369,0.085 0.692,0.27 0.977,0.554 0.377,0.37 0.685,0.894 0.932,1.556 0.177,0.015 0.315,0.03 0.423,0.03 0.062,0 0.154,-0.007 0.277,-0.015 -0.015,-0.131 -0.031,-0.246 -0.038,-0.346 l -0.054,-0.247 -0.3,-1.563 -0.147,-0.946 c -0.361,-0.016 -0.646,-0.024 -0.854,-0.024 -0.308,0 -1.132,0.031 -2.479,0.085 -0.947,0.039 -2.078,0.054 -3.41,0.054 -0.662,0 -1.478,-0.023 -2.448,-0.085 H 0.962 l -1.001,-0.03 v 0.569 c 0.101,0.031 0.316,0.062 0.624,0.093 0.577,0.069 0.978,0.154 1.193,0.269 0.062,0.154 0.093,0.362 0.093,0.6 0,0.093 0,0.255 -0.008,0.485 l 0.008,0.255 -0.023,3.117 0.007,0.94 -0.038,1.324 0.007,0.939 -0.077,1.024 c 0,0.023 -0.007,0.084 -0.015,0.161 -0.054,0.062 -0.138,0.1 -0.246,0.116 -0.062,0.015 -0.147,0.031 -0.254,0.054 -0.316,0.069 -0.616,0.107 -0.909,0.115 -0.107,0.008 -0.223,0.016 -0.362,0.031 z" style="fill:#868687;fill-opacity:1;fill-rule:evenodd;stroke:none" id="path1032"/></g><g id="g1034" transform="translate(69.917,93.9331)" style="fill-rule:evenodd"><path d="M 0,0 -0.031,0.585 H 0.67 L 0.908,0.593 C 1.239,0.608 1.47,0.616 1.594,0.616 1.663,0.616 1.855,0.608 2.179,0.6 2.248,0.593 2.309,0.593 2.356,0.593 c 0.054,0 0.223,0 0.523,0.015 0.3,0.008 0.47,0.016 0.508,0.016 0.062,0 0.146,0 0.254,-0.008 0.847,-0.77 1.54,-1.44 2.079,-1.994 0.539,-0.562 2.486,-2.51 5.866,-5.858 v 0.208 l -0.039,0.962 c -0.015,0.562 -0.038,1.008 -0.061,1.339 -0.031,0.324 -0.046,0.716 -0.054,1.17 -0.008,0.462 -0.023,0.87 -0.054,1.24 -0.069,0.723 -0.1,1.139 -0.1,1.255 -0.008,0.354 -0.046,0.577 -0.116,0.654 -0.115,0.115 -0.384,0.208 -0.8,0.269 -0.3,0.054 -0.524,0.116 -0.678,0.193 l 0.008,0.485 0.216,0.023 1.632,0.054 1.824,0.046 c 0.123,0.008 0.239,0.008 0.347,0.008 l 0.007,-0.531 c -0.123,-0.07 -0.254,-0.124 -0.392,-0.154 -0.347,-0.085 -0.555,-0.139 -0.609,-0.17 -0.284,-0.161 -0.431,-0.262 -0.454,-0.292 -0.054,-0.07 -0.077,-0.17 -0.077,-0.308 0,-0.031 0.008,-0.146 0.016,-0.347 0.007,-0.1 0.007,-0.331 0.007,-0.692 0.008,-0.801 0.031,-1.432 0.07,-1.902 0.007,-0.146 0.015,-0.316 0.023,-0.5 l 0.092,-2.91 c 0.008,-0.2 0.008,-0.347 0.008,-0.431 v -1.017 l 0.023,-0.431 -0.023,-0.446 c 0.023,-0.223 0.031,-0.362 0.031,-0.408 v -0.439 L 11.486,-10.339 10.5,-9.323 8.483,-7.329 7.075,-5.92 6.043,-4.858 c -0.67,0.662 -1.285,1.248 -1.84,1.748 l -1.347,1.216 0.077,-3.079 c 0,-0.185 0.008,-0.385 0.008,-0.577 L 2.933,-6.143 2.979,-7.229 c 0.016,-0.446 0.046,-0.939 0.093,-1.47 0.007,-0.146 0.023,-0.246 0.038,-0.3 0.015,-0.062 0.054,-0.147 0.1,-0.254 0.216,-0.077 0.685,-0.139 1.409,-0.177 0.046,-0.008 0.123,-0.031 0.216,-0.054 l 0.03,-0.67 -0.323,-0.008 c -0.177,0 -0.731,0.039 -1.671,0.123 -0.877,-0.015 -1.462,-0.03 -1.755,-0.053 -0.292,-0.023 -0.454,-0.031 -0.477,-0.031 -0.069,0 -0.162,0.008 -0.277,0.031 -0.008,0.13 -0.016,0.238 -0.016,0.331 0,0.061 0,0.161 0.008,0.3 0.154,0.031 0.285,0.038 0.385,0.038 0.031,0 0.139,0 0.323,-0.015 0.462,0 0.732,0.038 0.824,0.108 0.085,0.069 0.131,0.254 0.139,0.554 0.038,0.878 0.061,1.417 0.061,1.609 v 0.454 l 0.016,2.695 -0.023,1.678 c -0.008,0.639 -0.047,1.085 -0.124,1.332 -0.038,0.13 -0.1,0.238 -0.192,0.331 -0.193,0.2 -0.408,0.346 -0.647,0.446 C 0.97,-0.169 0.6,-0.092 0,0" style="fill:#868687;fill-opacity:1;fill-rule:evenodd;stroke:none" id="path1036"/></g><g id="g1038" transform="translate(85.0205,95.0571)" style="fill-rule:evenodd"><path d="m 0,0 h 0.516 c 0.038,-0.062 0.061,-0.108 0.084,-0.139 0.154,-0.269 0.27,-0.446 0.355,-0.523 0.069,-0.023 0.446,-0.031 1.131,-0.031 0.424,0 0.801,0.008 1.132,0.008 l 0.169,0.023 1.001,0.008 1.871,-0.008 H 8.822 L 9.307,-0.6 c 0.069,0.053 0.146,0.184 0.231,0.4 0.023,0.054 0.054,0.123 0.092,0.215 l 0.362,0.008 c 0.054,0 0.139,-0.008 0.254,-0.008 0,-0.385 0.008,-0.954 0.008,-1.724 l 0.008,-0.739 -0.008,-0.423 c 0,-0.139 -0.015,-0.262 -0.038,-0.37 C 9.992,-3.31 9.792,-3.356 9.623,-3.372 9.477,-3.156 9.323,-2.848 9.153,-2.44 8.984,-2.032 8.876,-1.801 8.83,-1.755 8.768,-1.686 8.691,-1.64 8.599,-1.617 8.468,-1.594 7.883,-1.578 6.844,-1.578 6.69,-1.578 6.49,-1.586 6.259,-1.609 6.236,-1.824 6.22,-2.002 6.22,-2.14 L 6.228,-3.249 V -5.681 L 6.251,-8.306 6.243,-9.384 c 0,-0.385 0.031,-0.67 0.1,-0.862 0.093,-0.039 0.254,-0.077 0.493,-0.108 0.046,-0.008 0.246,-0.046 0.616,-0.131 0.162,-0.038 0.316,-0.085 0.439,-0.131 0.03,-0.2 0.038,-0.323 0.038,-0.369 0,-0.047 -0.008,-0.116 -0.023,-0.216 -0.123,0 -0.215,-0.008 -0.292,-0.008 -0.57,0 -1.055,0.023 -1.455,0.062 -0.393,0.046 -1.117,0.062 -2.156,0.062 -0.169,0 -0.654,-0.031 -1.463,-0.093 -0.315,-0.023 -0.515,-0.038 -0.608,-0.038 -0.007,0.084 -0.015,0.146 -0.015,0.192 l -0.016,0.193 v 0.061 c 0.124,0.162 0.355,0.285 0.693,0.362 0.57,0.131 0.97,0.262 1.194,0.369 0.053,0.108 0.084,0.247 0.1,0.416 0.038,0.662 0.053,1.717 0.053,3.164 l -0.038,3.126 c 0,0.862 -0.015,1.385 -0.054,1.562 -0.008,0.054 -0.031,0.093 -0.054,0.116 -0.031,0.023 -0.069,0.038 -0.115,0.046 -0.177,0.023 -0.732,0.031 -1.678,0.031 -0.516,0 -0.863,-0.046 -1.04,-0.146 -0.238,-0.139 -0.592,-0.516 -1.07,-1.124 -0.138,-0.177 -0.238,-0.27 -0.308,-0.27 -0.254,0.131 -0.415,0.239 -0.485,0.324 0.17,0.361 0.408,1.077 0.709,2.155 C -0.1,-0.323 -0.038,-0.115 0,0" style="fill:#868687;fill-opacity:1;fill-rule:evenodd;stroke:none" id="path1040"/></g><g id="g1042" transform="translate(100.2168,89.7378)" style="fill-rule:evenodd"><path d="m 0,0 c 0.269,-0.008 0.462,-0.015 0.585,-0.015 0.939,0 1.601,0.169 1.994,0.5 0.393,0.339 0.585,0.793 0.585,1.355 0,0.346 -0.046,0.67 -0.139,0.978 C 2.925,3.125 2.802,3.356 2.664,3.503 2.456,3.718 2.194,3.88 1.863,3.988 1.617,4.072 1.232,4.119 0.701,4.119 0.447,4.119 0.223,4.103 0.046,4.072 L 0.031,3.918 0.046,2.802 0.023,2.117 0.031,1.216 C 0.015,0.962 0.008,0.631 0,0.231 Z m -3.726,-5.358 c 0.146,0.077 0.362,0.139 0.639,0.169 0.285,0.039 0.539,0.1 0.762,0.177 0.031,0.116 0.046,0.193 0.054,0.247 0.008,0.077 0.015,0.339 0.015,0.793 l -0.007,1.847 0.031,0.993 -0.016,0.77 0.016,0.447 c 0.015,0.6 0.023,1.162 0.023,1.686 0,1.147 -0.016,1.886 -0.039,2.201 l -0.493,0.1 C -3.187,4.103 -3.48,4.126 -3.634,4.157 l -0.015,0.5 0.031,0.085 c 0.277,0.046 0.531,0.069 0.762,0.069 0.131,0 0.385,0 0.77,0.008 0.4,-0.031 0.616,-0.046 0.646,-0.046 l 0.439,0.023 1.04,0.046 c 0.646,0.069 1.324,0.1 2.04,0.1 1.131,0 2.032,-0.285 2.702,-0.862 0.669,-0.577 1,-1.239 1,-1.986 C 5.781,1.54 5.604,1.032 5.243,0.577 4.881,0.123 4.326,-0.223 3.58,-0.454 3.649,-0.57 3.734,-0.708 3.841,-0.862 4.072,-1.193 4.265,-1.47 4.403,-1.709 l 1.325,-2.14 c 0.331,-0.57 0.546,-0.901 0.646,-1.001 0.1,-0.092 0.316,-0.2 0.631,-0.316 0.254,-0.092 0.439,-0.192 0.578,-0.284 0.031,-0.093 0.046,-0.177 0.046,-0.247 0,-0.046 0,-0.115 -0.008,-0.192 H 7.398 L 7.229,-5.897 6.798,-5.835 H 6.459 C 6.282,-5.812 6.066,-5.797 5.804,-5.797 L 4.981,-5.789 C 4.919,-5.789 4.727,-5.804 4.403,-5.843 4.249,-5.858 4.134,-5.874 4.042,-5.889 l -0.278,0.546 c -0.23,0.416 -0.4,0.724 -0.492,0.932 -0.239,0.531 -0.655,1.386 -1.247,2.556 -0.278,0.539 -0.47,0.847 -0.578,0.916 -0.169,0.123 -0.454,0.177 -0.854,0.177 -0.116,0 -0.3,-0.008 -0.562,-0.016 C 0.015,-0.939 0,-1.132 0,-1.347 l 0.046,-1.84 -0.054,-1.555 C 0.146,-4.835 0.354,-4.911 0.6,-4.958 1.032,-5.05 1.401,-5.15 1.709,-5.273 c 0,-0.27 -0.008,-0.478 -0.031,-0.616 -0.108,0.008 -0.177,0.008 -0.2,0.008 L 1.139,-5.897 c -1.185,0.108 -1.893,0.162 -2.109,0.162 -0.146,0 -0.246,-0.008 -0.308,-0.008 L -2.425,-5.82 c -0.346,-0.038 -0.662,-0.061 -0.947,-0.061 h -0.362 c -0.007,0.138 -0.015,0.23 -0.015,0.269 0,0.062 0.008,0.146 0.023,0.254" style="fill:#868687;fill-opacity:1;fill-rule:evenodd;stroke:none" id="path1044"/></g><g id="g1046" transform="translate(113.6812,93.9868)" style="fill-rule:evenodd"><path d="m 0,0 c -0.485,0 -0.908,-0.115 -1.278,-0.339 -0.369,-0.223 -0.647,-0.469 -0.831,-0.739 -0.316,-0.462 -0.539,-0.962 -0.67,-1.501 -0.131,-0.546 -0.2,-1.209 -0.2,-1.986 0,-0.477 0.023,-0.816 0.061,-1.016 0.008,-0.07 0.023,-0.177 0.047,-0.339 0.046,-0.408 0.107,-0.708 0.177,-0.893 0.231,-0.7 0.4,-1.139 0.5,-1.301 0.169,-0.285 0.408,-0.562 0.739,-0.839 0.162,-0.146 0.4,-0.277 0.716,-0.393 0.316,-0.115 0.631,-0.177 0.947,-0.177 0.593,0 1.147,0.139 1.655,0.416 0.508,0.277 0.916,0.754 1.232,1.424 0.308,0.662 0.462,1.532 0.462,2.602 0,0.447 -0.031,1.047 -0.093,1.802 L 3.418,-3.125 C 3.403,-3.079 3.38,-2.964 3.341,-2.787 3.133,-1.878 2.748,-1.186 2.171,-0.716 1.594,-0.239 0.87,0 0,0 m -5.635,-4.619 c 0,0.685 0.131,1.37 0.393,2.055 0.192,0.501 0.469,0.955 0.816,1.371 0.346,0.415 0.777,0.785 1.308,1.108 0.524,0.316 1.055,0.555 1.601,0.693 0.547,0.139 1.155,0.208 1.833,0.208 1.147,0 2.14,-0.216 2.987,-0.647 0.839,-0.431 1.508,-1.008 1.993,-1.747 0.624,-0.955 0.94,-1.955 0.94,-3.002 0,-1.563 -0.532,-2.903 -1.594,-4.019 -1.062,-1.108 -2.54,-1.67 -4.426,-1.67 -0.47,0 -0.909,0.03 -1.317,0.092 -0.308,0.046 -0.577,0.108 -0.816,0.185 -0.416,0.138 -0.647,0.215 -0.7,0.238 -0.601,0.339 -1.086,0.693 -1.448,1.047 -0.361,0.362 -0.669,0.77 -0.923,1.217 -0.139,0.254 -0.301,0.716 -0.478,1.378 -0.115,0.423 -0.169,0.923 -0.169,1.493" style="fill:#868687;fill-opacity:1;fill-rule:evenodd;stroke:none" id="path1048"/></g><g id="g1050" transform="translate(135.1362,94.418)" style="fill-rule:evenodd"><path d="m 0,0 c 0.069,-0.169 0.216,-0.639 0.439,-1.416 0.1,-0.355 0.154,-0.732 0.154,-1.124 h -0.755 c -0.523,0.746 -1.07,1.285 -1.639,1.616 -0.562,0.324 -1.186,0.493 -1.886,0.493 -0.855,0 -1.548,-0.339 -2.071,-1.001 -0.709,-0.908 -1.063,-2.171 -1.063,-3.787 0,-0.94 0.054,-1.609 0.177,-2.002 0.201,-0.647 0.455,-1.178 0.755,-1.586 0.231,-0.308 0.539,-0.554 0.908,-0.731 0.493,-0.254 1.009,-0.377 1.563,-0.377 0.608,0 1.193,0.192 1.755,0.569 0.57,0.378 1.109,0.94 1.632,1.686 0.2,0.039 0.47,0.062 0.801,0.062 C 0.747,-7.806 0.708,-8.022 0.662,-8.245 0.647,-8.337 0.585,-8.684 0.47,-9.292 L 0.4,-9.546 0.277,-9.931 c -0.331,-0.261 -0.808,-0.454 -1.416,-0.585 -0.608,-0.131 -1.363,-0.192 -2.248,-0.192 -0.678,0 -1.324,0.061 -1.925,0.192 -0.608,0.123 -1.124,0.324 -1.555,0.601 -0.631,0.4 -1.124,0.831 -1.478,1.293 -0.362,0.462 -0.631,0.97 -0.801,1.517 -0.177,0.546 -0.261,1.154 -0.261,1.839 0,1.64 0.539,3.003 1.624,4.073 1.086,1.07 2.471,1.609 4.157,1.609 0.685,0 1.324,-0.039 1.932,-0.108 C -1.093,0.239 -0.523,0.139 0,0" style="fill:#868687;fill-opacity:1;fill-rule:evenodd;stroke:none" id="path1052"/></g><g id="g1054" transform="translate(136.7607,93.8945)" style="fill-rule:evenodd"><path d="m 0,0 -0.023,0.654 c 0.1,0.008 0.2,0.008 0.308,0.008 0.269,0 0.562,-0.008 0.87,-0.023 C 1.878,0.6 2.309,0.577 2.44,0.577 c 0.439,0 0.87,0.008 1.294,0.031 0.423,0.016 0.8,0.023 1.131,0.031 0.324,0.008 0.547,0.008 0.662,0.015 L 5.52,0.554 5.535,0.077 V 0.008 c -0.308,-0.046 -0.624,-0.07 -0.955,-0.07 -0.315,0 -0.515,-0.053 -0.615,-0.177 -0.07,-0.077 -0.1,-0.408 -0.1,-0.985 0,-0.177 0.007,-0.323 0.007,-0.431 L 3.88,-1.955 3.865,-2.733 3.918,-3.395 3.88,-4.827 3.988,-6.905 c 0.03,-0.601 0.161,-1.101 0.4,-1.501 0.177,-0.293 0.423,-0.516 0.747,-0.686 0.462,-0.231 0.916,-0.346 1.362,-0.346 0.532,0 1.024,0.069 1.486,0.208 0.27,0.077 0.524,0.2 0.762,0.377 0.239,0.169 0.408,0.331 0.501,0.47 0.2,0.308 0.338,0.592 0.415,0.854 0.108,0.37 0.154,0.932 0.154,1.701 0,1.332 -0.069,2.841 -0.208,4.512 L 9.569,-0.878 C 9.554,-0.554 9.492,-0.331 9.392,-0.223 9.215,-0.054 9.015,0.031 8.791,0.031 L 8.014,0.015 7.906,0.038 7.922,0.677 H 8.576 L 10.162,0.6 c 0.523,0 1.031,0.031 1.509,0.077 L 11.817,0.662 C 11.848,0.477 11.863,0.354 11.863,0.285 11.863,0.223 11.855,0.146 11.832,0.054 11.624,0 11.409,-0.031 11.186,-0.038 10.816,-0.092 10.608,-0.131 10.57,-0.169 10.493,-0.231 10.454,-0.331 10.454,-0.47 c 0,-0.1 0.008,-0.246 0.031,-0.431 0.015,-0.138 0.023,-0.385 0.023,-0.723 v -0.455 c 0.008,-0.115 0.008,-0.223 0.015,-0.338 0.016,-0.401 0.031,-0.801 0.039,-1.217 l 0.085,-1.678 c 0,-1.124 -0.039,-1.878 -0.116,-2.263 C 10.454,-7.952 10.346,-8.26 10.216,-8.476 10.015,-8.807 9.723,-9.115 9.346,-9.392 8.968,-9.669 8.499,-9.892 7.937,-10.054 7.375,-10.216 6.721,-10.3 5.966,-10.3 5.112,-10.3 4.38,-10.185 3.764,-9.954 3.156,-9.731 2.694,-9.43 2.379,-9.053 2.071,-8.684 1.855,-8.199 1.74,-7.598 1.655,-7.19 1.617,-6.605 1.617,-5.843 v 3.949 c 0,0.932 -0.047,1.455 -0.139,1.578 -0.115,0.17 -0.5,0.27 -1.132,0.293 C 0.208,-0.023 0.092,-0.015 0,0" style="fill:#868687;fill-opacity:1;fill-rule:evenodd;stroke:none" id="path1056"/></g><g id="g1058" transform="translate(149.7168,84.5567)" style="fill-rule:evenodd"><path d="M 0,0 C 0.177,0.046 0.416,0.092 0.731,0.139 1.039,0.185 1.224,0.208 1.278,0.208 1.493,0.216 1.64,0.246 1.709,0.316 1.74,0.447 1.755,0.554 1.755,0.647 L 1.74,1.701 1.794,2.779 V 3.472 L 1.801,4.28 1.786,5.142 1.817,6.99 1.824,7.829 V 7.945 C 1.786,8.522 1.747,8.845 1.717,8.899 1.678,8.961 1.517,9.03 1.239,9.122 1.209,9.13 1.109,9.176 0.924,9.246 0.785,9.299 0.662,9.338 0.547,9.361 0.354,9.415 0.223,9.469 0.146,9.538 0.131,9.677 0.131,9.792 0.131,9.869 c 0,0.046 0,0.108 0.008,0.2 0.046,0.023 0.1,0.039 0.154,0.039 0.13,0 0.615,-0.023 1.439,-0.069 l 1.186,0.007 0.877,-0.015 c 0.385,0 0.87,0.023 1.463,0.069 0.177,0.016 0.285,0.023 0.308,0.023 0.085,0 0.146,-0.023 0.177,-0.061 C 5.789,10 5.804,9.892 5.804,9.731 5.804,9.607 5.781,9.507 5.72,9.446 5.681,9.407 5.566,9.376 5.35,9.346 L 4.326,9.107 C 4.296,9.092 4.249,9.069 4.188,9.038 4.165,8.999 4.149,8.968 4.134,8.938 L 4.126,8.707 4.103,8.183 V 8.037 7.945 C 4.103,7.914 4.095,7.768 4.08,7.49 V 7.275 c 0,-0.093 0,-0.239 0.015,-0.447 C 4.111,6.497 4.119,6.205 4.119,5.958 4.119,5.666 4.111,5.343 4.095,4.973 4.088,4.835 4.088,4.65 4.088,4.434 L 4.049,0.5 C 4.049,0.339 4.08,0.231 4.134,0.177 L 4.919,0.146 5.412,0.154 5.935,0.146 c 0.886,0 1.586,0.1 2.094,0.308 C 8.406,0.608 8.653,0.762 8.776,0.916 8.961,1.078 9.115,1.255 9.23,1.447 9.353,1.64 9.484,1.963 9.63,2.41 H 9.9 c 0.131,0 0.277,-0.016 0.446,-0.039 V 2.14 C 10.346,1.748 10.293,1.055 10.2,0.062 10.154,-0.331 10.115,-0.577 10.077,-0.662 9.954,-0.685 9.877,-0.701 9.838,-0.701 H 9.53 L 9.107,-0.708 c -0.054,0 -0.385,0.023 -0.985,0.069 -0.116,0.008 -0.639,0.023 -1.586,0.054 -0.947,0.038 -1.871,0.054 -2.772,0.054 L 2.071,-0.585 C 1.424,-0.6 0.816,-0.631 0.246,-0.67 H 0.123 c -0.038,0 -0.092,0 -0.161,0.008 -0.008,0.062 -0.016,0.108 -0.016,0.154 0,0.231 0.016,0.4 0.054,0.508" style="fill:#868687;fill-opacity:1;fill-rule:evenodd;stroke:none" id="path1060"/></g><g id="g1062" transform="translate(160.6714,95.0571)" style="fill-rule:evenodd"><path d="m 0,0 h 0.516 c 0.038,-0.062 0.061,-0.108 0.084,-0.139 0.154,-0.269 0.27,-0.446 0.355,-0.523 0.069,-0.023 0.446,-0.031 1.131,-0.031 0.424,0 0.801,0.008 1.132,0.008 l 0.169,0.023 1.001,0.008 1.871,-0.008 H 8.822 L 9.307,-0.6 c 0.069,0.053 0.146,0.184 0.231,0.4 0.023,0.054 0.054,0.123 0.092,0.215 l 0.362,0.008 c 0.054,0 0.139,-0.008 0.254,-0.008 0,-0.385 0.008,-0.954 0.008,-1.724 l 0.008,-0.739 -0.008,-0.423 c 0,-0.139 -0.015,-0.262 -0.038,-0.37 C 9.992,-3.31 9.792,-3.356 9.623,-3.372 9.477,-3.156 9.323,-2.848 9.153,-2.44 8.984,-2.032 8.876,-1.801 8.83,-1.755 8.768,-1.686 8.691,-1.64 8.599,-1.617 8.468,-1.594 7.883,-1.578 6.844,-1.578 6.69,-1.578 6.49,-1.586 6.259,-1.609 6.236,-1.824 6.22,-2.002 6.22,-2.14 L 6.228,-3.249 V -5.681 L 6.251,-8.306 6.243,-9.384 c 0,-0.385 0.031,-0.67 0.1,-0.862 0.093,-0.039 0.254,-0.077 0.493,-0.108 0.046,-0.008 0.246,-0.046 0.616,-0.131 0.162,-0.038 0.316,-0.085 0.439,-0.131 0.031,-0.2 0.038,-0.323 0.038,-0.369 0,-0.047 -0.007,-0.116 -0.023,-0.216 -0.123,0 -0.215,-0.008 -0.292,-0.008 -0.57,0 -1.055,0.023 -1.455,0.062 -0.393,0.046 -1.117,0.062 -2.156,0.062 -0.169,0 -0.654,-0.031 -1.463,-0.093 -0.315,-0.023 -0.515,-0.038 -0.608,-0.038 -0.007,0.084 -0.015,0.146 -0.015,0.192 l -0.016,0.193 v 0.061 c 0.124,0.162 0.355,0.285 0.693,0.362 0.57,0.131 0.97,0.262 1.194,0.369 0.053,0.108 0.084,0.247 0.1,0.416 0.038,0.662 0.053,1.717 0.053,3.164 l -0.038,3.126 c 0,0.862 -0.015,1.385 -0.054,1.562 -0.008,0.054 -0.031,0.093 -0.054,0.116 -0.031,0.023 -0.069,0.038 -0.115,0.046 -0.177,0.023 -0.732,0.031 -1.678,0.031 -0.516,0 -0.863,-0.046 -1.04,-0.146 -0.238,-0.139 -0.592,-0.516 -1.07,-1.124 -0.138,-0.177 -0.238,-0.27 -0.308,-0.27 -0.254,0.131 -0.415,0.239 -0.485,0.324 0.17,0.361 0.408,1.077 0.709,2.155 C -0.1,-0.323 -0.038,-0.115 0,0" style="fill:#868687;fill-opacity:1;fill-rule:evenodd;stroke:none" id="path1064"/></g><g id="g1066" transform="translate(171.7568,93.8945)" style="fill-rule:evenodd"><path d="m 0,0 -0.023,0.654 c 0.1,0.008 0.2,0.008 0.308,0.008 0.269,0 0.562,-0.008 0.87,-0.023 C 1.878,0.6 2.309,0.577 2.44,0.577 c 0.439,0 0.87,0.008 1.294,0.031 0.423,0.016 0.8,0.023 1.131,0.031 0.324,0.008 0.547,0.008 0.662,0.015 L 5.52,0.554 5.535,0.077 V 0.008 c -0.308,-0.046 -0.624,-0.07 -0.955,-0.07 -0.315,0 -0.515,-0.053 -0.615,-0.177 -0.07,-0.077 -0.1,-0.408 -0.1,-0.985 0,-0.177 0.007,-0.323 0.007,-0.431 L 3.88,-1.955 3.865,-2.733 3.918,-3.395 3.88,-4.827 3.988,-6.905 c 0.03,-0.601 0.161,-1.101 0.4,-1.501 0.177,-0.293 0.423,-0.516 0.747,-0.686 0.462,-0.231 0.916,-0.346 1.362,-0.346 0.532,0 1.024,0.069 1.486,0.208 0.266,0.077 0.52,0.2 0.758,0.377 0.239,0.169 0.408,0.331 0.501,0.47 0.2,0.308 0.338,0.592 0.415,0.854 0.108,0.37 0.154,0.932 0.154,1.701 0,1.332 -0.069,2.841 -0.207,4.512 L 9.565,-0.878 C 9.55,-0.554 9.488,-0.331 9.388,-0.223 9.211,-0.054 9.011,0.031 8.788,0.031 L 8.014,0.015 7.906,0.038 7.921,0.677 H 8.572 L 10.158,0.6 c 0.523,0 1.031,0.031 1.509,0.077 L 11.813,0.662 C 11.844,0.477 11.859,0.354 11.859,0.285 11.859,0.223 11.851,0.146 11.828,0.054 11.62,0 11.405,-0.031 11.182,-0.038 10.812,-0.092 10.604,-0.131 10.566,-0.169 10.489,-0.231 10.45,-0.331 10.45,-0.47 c 0,-0.1 0.008,-0.246 0.031,-0.431 0.016,-0.138 0.023,-0.385 0.023,-0.723 v -0.455 c 0.008,-0.115 0.008,-0.223 0.016,-0.338 0.015,-0.401 0.03,-0.801 0.038,-1.217 l 0.085,-1.678 c 0,-1.124 -0.039,-1.878 -0.116,-2.263 C 10.45,-7.952 10.343,-8.26 10.212,-8.476 10.012,-8.807 9.719,-9.115 9.342,-9.392 8.965,-9.669 8.495,-9.892 7.937,-10.054 7.375,-10.216 6.721,-10.3 5.966,-10.3 5.112,-10.3 4.38,-10.185 3.764,-9.954 3.156,-9.731 2.694,-9.43 2.379,-9.053 2.071,-8.684 1.855,-8.199 1.74,-7.598 1.655,-7.19 1.617,-6.605 1.617,-5.843 v 3.949 c 0,0.932 -0.047,1.455 -0.139,1.578 -0.115,0.17 -0.5,0.27 -1.132,0.293 C 0.208,-0.023 0.092,-0.015 0,0" style="fill:#868687;fill-opacity:1;fill-rule:evenodd;stroke:none" id="path1068"/></g><g id="g1070" transform="translate(188.7583,89.7378)" style="fill-rule:evenodd"><path d="m 0,0 c 0.269,-0.008 0.462,-0.015 0.585,-0.015 0.939,0 1.601,0.169 1.994,0.5 0.393,0.339 0.585,0.793 0.585,1.355 0,0.346 -0.046,0.67 -0.139,0.978 C 2.925,3.125 2.802,3.356 2.664,3.503 2.456,3.718 2.194,3.88 1.863,3.988 1.617,4.072 1.232,4.119 0.701,4.119 0.447,4.119 0.223,4.103 0.046,4.072 L 0.031,3.918 0.046,2.802 0.023,2.117 0.031,1.216 C 0.015,0.962 0.008,0.631 0,0.231 Z m -3.726,-5.358 c 0.146,0.077 0.362,0.139 0.639,0.169 0.285,0.039 0.539,0.1 0.762,0.177 0.031,0.116 0.046,0.193 0.054,0.247 0.008,0.077 0.015,0.339 0.015,0.793 l -0.007,1.847 0.031,0.993 -0.016,0.77 0.016,0.447 c 0.015,0.6 0.023,1.162 0.023,1.686 0,1.147 -0.016,1.886 -0.039,2.201 l -0.493,0.1 C -3.187,4.103 -3.48,4.126 -3.634,4.157 l -0.015,0.5 0.031,0.085 c 0.277,0.046 0.531,0.069 0.762,0.069 0.131,0 0.385,0 0.77,0.008 0.4,-0.031 0.616,-0.046 0.646,-0.046 l 0.439,0.023 1.039,0.046 c 0.647,0.069 1.325,0.1 2.041,0.1 1.131,0 2.032,-0.285 2.702,-0.862 0.669,-0.577 1,-1.239 1,-1.986 C 5.781,1.54 5.604,1.032 5.242,0.577 4.881,0.123 4.326,-0.223 3.58,-0.454 3.649,-0.57 3.734,-0.708 3.841,-0.862 4.072,-1.193 4.265,-1.47 4.403,-1.709 l 1.325,-2.14 c 0.331,-0.57 0.546,-0.901 0.646,-1.001 0.1,-0.092 0.316,-0.2 0.631,-0.316 0.254,-0.092 0.439,-0.192 0.578,-0.284 0.031,-0.093 0.046,-0.177 0.046,-0.247 0,-0.046 0,-0.115 -0.008,-0.192 H 7.398 L 7.229,-5.897 6.798,-5.835 H 6.459 C 6.282,-5.812 6.066,-5.797 5.804,-5.797 L 4.981,-5.789 C 4.919,-5.789 4.727,-5.804 4.403,-5.843 4.249,-5.858 4.134,-5.874 4.042,-5.889 l -0.278,0.546 c -0.23,0.416 -0.4,0.724 -0.492,0.932 -0.239,0.531 -0.655,1.386 -1.247,2.556 -0.278,0.539 -0.47,0.847 -0.578,0.916 -0.169,0.123 -0.454,0.177 -0.854,0.177 -0.116,0 -0.3,-0.008 -0.562,-0.016 C 0.015,-0.939 0,-1.132 0,-1.347 l 0.046,-1.84 -0.054,-1.555 C 0.146,-4.835 0.354,-4.911 0.6,-4.958 1.032,-5.05 1.401,-5.15 1.709,-5.273 c 0,-0.27 -0.008,-0.478 -0.031,-0.616 -0.108,0.008 -0.177,0.008 -0.2,0.008 L 1.139,-5.897 c -1.185,0.108 -1.893,0.162 -2.109,0.162 -0.146,0 -0.246,-0.008 -0.308,-0.008 L -2.425,-5.82 c -0.346,-0.038 -0.662,-0.061 -0.947,-0.061 h -0.362 c -0.007,0.138 -0.015,0.23 -0.015,0.269 0,0.062 0.008,0.146 0.023,0.254" style="fill:#868687;fill-opacity:1;fill-rule:evenodd;stroke:none" id="path1072"/></g><g id="g1074" transform="translate(199.8437,88.5288)" style="fill-rule:evenodd"><path d="m 0,0 c 1.293,-0.015 2.048,-0.023 2.279,-0.023 l 0.208,0.008 C 2.325,0.477 2.109,1.047 1.84,1.701 1.578,2.356 1.363,2.856 1.201,3.195 Z m -3.895,-4.65 0.015,0.562 c 0.108,0.031 0.293,0.07 0.554,0.123 0.424,0.085 0.685,0.154 0.778,0.224 0.092,0.061 0.2,0.223 0.331,0.477 l 1.678,4.38 1.955,5.143 H 1.94 2.317 L 2.394,6.112 3.834,2.702 C 4.157,1.978 4.45,1.27 4.711,0.593 c 0.254,-0.685 0.478,-1.24 0.67,-1.671 0.108,-0.262 0.262,-0.646 0.454,-1.162 0.1,-0.285 0.247,-0.639 0.454,-1.063 0.108,-0.231 0.193,-0.369 0.247,-0.408 0.1,-0.084 0.262,-0.138 0.485,-0.161 0.223,-0.031 0.469,-0.093 0.723,-0.193 0.031,-0.184 0.047,-0.315 0.047,-0.408 0,-0.038 -0.008,-0.1 -0.008,-0.177 -0.408,0 -0.862,0.016 -1.355,0.054 -0.493,0.039 -0.931,0.062 -1.324,0.062 -0.431,0 -0.747,-0.008 -0.939,-0.023 L 2.756,-4.627 2.348,-4.642 c 0,0.192 0.008,0.377 0.023,0.554 l 0.924,0.193 c 0.269,0.077 0.431,0.131 0.477,0.169 0.054,0.054 0.085,0.116 0.085,0.192 0,0.07 -0.016,0.147 -0.046,0.224 L 3.487,-2.502 2.833,-0.878 -0.323,-0.87 C -0.447,-1.132 -0.685,-1.786 -1.055,-2.818 -1.162,-3.11 -1.209,-3.31 -1.209,-3.41 c 0,-0.147 0.039,-0.247 0.116,-0.308 0.123,-0.108 0.369,-0.177 0.723,-0.223 0.054,-0.008 0.247,-0.039 0.593,-0.093 0,-0.2 0.008,-0.339 0.008,-0.416 0,-0.053 -0.008,-0.123 -0.015,-0.184 -0.347,0 -1.163,0.046 -2.456,0.138 L -2.579,-4.557 C -2.987,-4.619 -3.38,-4.65 -3.749,-4.65 Z" style="fill:#868687;fill-opacity:1;fill-rule:evenodd;stroke:none" id="path1076"/></g><g id="g1078" transform="translate(207.6729,84.5567)" style="fill-rule:evenodd"><path d="M 0,0 C 0.177,0.046 0.416,0.092 0.731,0.139 1.039,0.185 1.224,0.208 1.278,0.208 1.493,0.216 1.64,0.246 1.709,0.316 1.74,0.447 1.755,0.554 1.755,0.647 L 1.74,1.701 1.794,2.779 V 3.472 L 1.801,4.28 1.786,5.142 1.817,6.99 1.824,7.829 V 7.945 C 1.786,8.522 1.747,8.845 1.717,8.899 1.678,8.961 1.517,9.03 1.239,9.122 1.209,9.13 1.109,9.176 0.924,9.246 0.785,9.299 0.662,9.338 0.547,9.361 0.354,9.415 0.223,9.469 0.146,9.538 0.131,9.677 0.131,9.792 0.131,9.869 c 0,0.046 0,0.108 0.008,0.2 0.046,0.023 0.1,0.039 0.154,0.039 0.13,0 0.615,-0.023 1.439,-0.069 l 1.186,0.007 0.877,-0.015 c 0.385,0 0.87,0.023 1.463,0.069 0.177,0.016 0.285,0.023 0.308,0.023 0.085,0 0.146,-0.023 0.177,-0.061 C 5.789,10 5.804,9.892 5.804,9.731 5.804,9.607 5.781,9.507 5.72,9.446 5.681,9.407 5.566,9.376 5.35,9.346 L 4.326,9.107 C 4.296,9.092 4.249,9.069 4.188,9.038 4.165,8.999 4.149,8.968 4.134,8.938 L 4.126,8.707 4.103,8.183 V 8.037 7.945 C 4.103,7.914 4.095,7.768 4.08,7.49 V 7.275 c 0,-0.093 0,-0.239 0.015,-0.447 C 4.111,6.497 4.119,6.205 4.119,5.958 4.119,5.666 4.111,5.343 4.095,4.973 4.088,4.835 4.088,4.65 4.088,4.434 L 4.049,0.5 C 4.049,0.339 4.08,0.231 4.134,0.177 L 4.919,0.146 5.412,0.154 5.935,0.146 c 0.886,0 1.586,0.1 2.094,0.308 C 8.406,0.608 8.653,0.762 8.776,0.916 8.961,1.078 9.115,1.255 9.23,1.447 9.353,1.64 9.484,1.963 9.63,2.41 H 9.9 c 0.131,0 0.277,-0.016 0.446,-0.039 V 2.14 C 10.346,1.748 10.293,1.055 10.2,0.062 10.154,-0.331 10.115,-0.577 10.077,-0.662 9.954,-0.685 9.877,-0.701 9.838,-0.701 H 9.53 L 9.107,-0.708 c -0.054,0 -0.385,0.023 -0.985,0.069 -0.116,0.008 -0.639,0.023 -1.586,0.054 -0.947,0.038 -1.871,0.054 -2.772,0.054 L 2.071,-0.585 C 1.424,-0.6 0.816,-0.631 0.246,-0.67 H 0.123 c -0.038,0 -0.092,0 -0.161,0.008 -0.008,0.062 -0.016,0.108 -0.016,0.154 0,0.231 0.016,0.4 0.054,0.508" style="fill:#868687;fill-opacity:1;fill-rule:evenodd;stroke:none" id="path1080"/></g><g id="g1082" transform="translate(225.9868,88.5288)" style="fill-rule:evenodd"><path d="m 0,0 c 1.293,-0.015 2.048,-0.023 2.279,-0.023 l 0.208,0.008 C 2.325,0.477 2.109,1.047 1.84,1.701 1.578,2.356 1.363,2.856 1.201,3.195 Z m -3.895,-4.65 0.015,0.562 c 0.108,0.031 0.293,0.07 0.554,0.123 0.424,0.085 0.685,0.154 0.778,0.224 0.092,0.061 0.2,0.223 0.331,0.477 l 1.678,4.38 1.955,5.143 H 1.94 2.317 L 2.394,6.112 3.834,2.702 C 4.157,1.978 4.45,1.27 4.711,0.593 c 0.254,-0.685 0.478,-1.24 0.67,-1.671 0.108,-0.262 0.262,-0.646 0.454,-1.162 0.1,-0.285 0.247,-0.639 0.454,-1.063 0.108,-0.231 0.193,-0.369 0.247,-0.408 0.1,-0.084 0.262,-0.138 0.485,-0.161 0.223,-0.031 0.469,-0.093 0.723,-0.193 0.031,-0.184 0.047,-0.315 0.047,-0.408 0,-0.038 -0.008,-0.1 -0.008,-0.177 -0.408,0 -0.862,0.016 -1.355,0.054 -0.493,0.039 -0.931,0.062 -1.324,0.062 -0.431,0 -0.747,-0.008 -0.939,-0.023 L 2.756,-4.627 2.348,-4.642 c 0,0.192 0.008,0.377 0.023,0.554 l 0.924,0.193 c 0.269,0.077 0.431,0.131 0.477,0.169 0.054,0.054 0.085,0.116 0.085,0.192 0,0.07 -0.016,0.147 -0.046,0.224 L 3.487,-2.502 2.833,-0.878 -0.323,-0.87 C -0.447,-1.132 -0.685,-1.786 -1.055,-2.818 -1.162,-3.11 -1.209,-3.31 -1.209,-3.41 c 0,-0.147 0.039,-0.247 0.116,-0.308 0.123,-0.108 0.369,-0.177 0.723,-0.223 0.054,-0.008 0.247,-0.039 0.593,-0.093 0,-0.2 0.008,-0.339 0.008,-0.416 0,-0.053 -0.008,-0.123 -0.015,-0.184 -0.347,0 -1.163,0.046 -2.456,0.138 L -2.579,-4.557 C -2.987,-4.619 -3.38,-4.65 -3.749,-4.65 Z" style="fill:#868687;fill-opacity:1;fill-rule:evenodd;stroke:none" id="path1084"/></g><g id="g1086" transform="translate(233.5312,93.9331)" style="fill-rule:evenodd"><path d="M 0,0 -0.031,0.585 H 0.67 L 0.908,0.593 C 1.239,0.608 1.47,0.616 1.594,0.616 1.663,0.616 1.855,0.608 2.179,0.6 2.248,0.593 2.309,0.593 2.356,0.593 c 0.054,0 0.223,0 0.523,0.015 0.3,0.008 0.47,0.016 0.508,0.016 0.062,0 0.146,0 0.254,-0.008 0.847,-0.77 1.54,-1.44 2.079,-1.994 0.539,-0.562 2.486,-2.51 5.866,-5.858 v 0.208 l -0.039,0.962 c -0.015,0.562 -0.038,1.008 -0.061,1.339 -0.031,0.324 -0.046,0.716 -0.054,1.17 -0.008,0.462 -0.023,0.87 -0.054,1.24 -0.069,0.723 -0.1,1.139 -0.1,1.255 -0.008,0.354 -0.046,0.577 -0.116,0.654 -0.115,0.115 -0.384,0.208 -0.8,0.269 -0.3,0.054 -0.524,0.116 -0.678,0.193 l 0.008,0.485 0.216,0.023 1.632,0.054 1.824,0.046 c 0.123,0.008 0.239,0.008 0.347,0.008 l 0.007,-0.531 c -0.123,-0.07 -0.254,-0.124 -0.392,-0.154 -0.347,-0.085 -0.555,-0.139 -0.609,-0.17 -0.284,-0.161 -0.431,-0.262 -0.454,-0.292 -0.054,-0.07 -0.077,-0.17 -0.077,-0.308 0,-0.031 0.008,-0.146 0.016,-0.347 0.007,-0.1 0.007,-0.331 0.007,-0.692 0.008,-0.801 0.031,-1.432 0.07,-1.902 0.007,-0.146 0.015,-0.316 0.023,-0.5 l 0.092,-2.91 c 0.008,-0.2 0.008,-0.347 0.008,-0.431 v -1.017 l 0.023,-0.431 -0.023,-0.446 c 0.023,-0.223 0.031,-0.362 0.031,-0.408 v -0.439 L 11.486,-10.339 10.5,-9.323 8.483,-7.329 7.075,-5.92 6.043,-4.858 c -0.67,0.662 -1.285,1.248 -1.84,1.748 l -1.347,1.216 0.077,-3.079 c 0,-0.185 0.008,-0.385 0.008,-0.577 L 2.933,-6.143 2.979,-7.229 c 0.016,-0.446 0.046,-0.939 0.093,-1.47 0.007,-0.146 0.023,-0.246 0.038,-0.3 0.015,-0.062 0.054,-0.147 0.1,-0.254 0.216,-0.077 0.685,-0.139 1.409,-0.177 0.046,-0.008 0.123,-0.031 0.215,-0.054 l 0.031,-0.67 -0.323,-0.008 c -0.177,0 -0.731,0.039 -1.671,0.123 -0.877,-0.015 -1.462,-0.03 -1.755,-0.053 -0.292,-0.023 -0.454,-0.031 -0.477,-0.031 -0.069,0 -0.162,0.008 -0.277,0.031 -0.008,0.13 -0.016,0.238 -0.016,0.331 0,0.061 0,0.161 0.008,0.3 0.154,0.031 0.285,0.038 0.385,0.038 0.031,0 0.139,0 0.323,-0.015 0.462,0 0.732,0.038 0.824,0.108 0.085,0.069 0.131,0.254 0.139,0.554 0.038,0.878 0.061,1.417 0.061,1.609 v 0.454 l 0.016,2.695 -0.023,1.678 c -0.008,0.639 -0.047,1.085 -0.124,1.332 -0.038,0.13 -0.1,0.238 -0.192,0.331 -0.193,0.2 -0.408,0.346 -0.647,0.446 C 0.97,-0.169 0.6,-0.092 0,0" style="fill:#868687;fill-opacity:1;fill-rule:evenodd;stroke:none" id="path1088"/></g><g id="g1090" transform="translate(248.6353,95.0571)" style="fill-rule:evenodd"><path d="m 0,0 h 0.516 c 0.038,-0.062 0.061,-0.108 0.084,-0.139 0.154,-0.269 0.27,-0.446 0.355,-0.523 0.069,-0.023 0.446,-0.031 1.131,-0.031 0.424,0 0.801,0.008 1.132,0.008 l 0.169,0.023 1.001,0.008 1.871,-0.008 H 8.822 L 9.307,-0.6 c 0.069,0.053 0.146,0.184 0.231,0.4 0.023,0.054 0.054,0.123 0.092,0.215 l 0.362,0.008 c 0.054,0 0.139,-0.008 0.254,-0.008 0,-0.385 0.008,-0.954 0.008,-1.724 l 0.008,-0.739 -0.008,-0.423 c 0,-0.139 -0.015,-0.262 -0.038,-0.37 C 9.992,-3.31 9.792,-3.356 9.623,-3.372 9.477,-3.156 9.323,-2.848 9.153,-2.44 8.984,-2.032 8.876,-1.801 8.83,-1.755 8.768,-1.686 8.691,-1.64 8.599,-1.617 8.468,-1.594 7.883,-1.578 6.844,-1.578 6.69,-1.578 6.49,-1.586 6.259,-1.609 6.236,-1.824 6.22,-2.002 6.22,-2.14 L 6.228,-3.249 V -5.681 L 6.251,-8.306 6.243,-9.384 c 0,-0.385 0.031,-0.67 0.1,-0.862 0.093,-0.039 0.254,-0.077 0.493,-0.108 0.046,-0.008 0.246,-0.046 0.616,-0.131 0.162,-0.038 0.316,-0.085 0.439,-0.131 0.03,-0.2 0.038,-0.323 0.038,-0.369 0,-0.047 -0.008,-0.116 -0.023,-0.216 -0.123,0 -0.215,-0.008 -0.292,-0.008 -0.57,0 -1.055,0.023 -1.455,0.062 -0.393,0.046 -1.117,0.062 -2.156,0.062 -0.169,0 -0.654,-0.031 -1.463,-0.093 -0.315,-0.023 -0.515,-0.038 -0.608,-0.038 -0.007,0.084 -0.015,0.146 -0.015,0.192 l -0.016,0.193 v 0.061 c 0.124,0.162 0.355,0.285 0.693,0.362 0.57,0.131 0.97,0.262 1.194,0.369 0.053,0.108 0.084,0.247 0.1,0.416 0.038,0.662 0.053,1.717 0.053,3.164 l -0.038,3.126 c 0,0.862 -0.015,1.385 -0.054,1.562 -0.008,0.054 -0.031,0.093 -0.054,0.116 -0.031,0.023 -0.069,0.038 -0.115,0.046 -0.177,0.023 -0.732,0.031 -1.678,0.031 -0.516,0 -0.863,-0.046 -1.04,-0.146 -0.238,-0.139 -0.592,-0.516 -1.07,-1.124 -0.138,-0.177 -0.238,-0.27 -0.308,-0.27 -0.254,0.131 -0.415,0.239 -0.485,0.324 0.17,0.361 0.408,1.077 0.709,2.155 C -0.1,-0.323 -0.038,-0.115 0,0" style="fill:#868687;fill-opacity:1;fill-rule:evenodd;stroke:none" id="path1092"/></g><g id="g1094" transform="translate(260.0825,83.8638)" style="fill-rule:evenodd"><path d="M 0,0 V 0.6 C 0.108,0.631 0.293,0.677 0.547,0.739 0.901,0.831 1.17,0.916 1.34,1.016 1.44,1.186 1.493,1.424 1.493,1.724 L 1.486,2.702 1.501,4.588 1.493,5.035 C 1.54,6.128 1.555,6.697 1.555,6.728 L 1.54,7.829 1.563,8.276 1.524,9.223 1.509,9.577 C 1.501,9.631 1.486,9.715 1.447,9.838 1.224,9.946 0.855,10.008 0.346,10.039 0.231,10.046 0.131,10.054 0.062,10.062 l -0.016,0.731 2.364,-0.1 c 0.292,-0.008 0.477,-0.016 0.546,-0.016 0.323,0 0.847,0.024 1.563,0.062 0.408,0.031 0.662,0.046 0.762,0.054 0.008,-0.108 0.008,-0.193 0.008,-0.262 0,-0.1 0,-0.215 -0.016,-0.369 C 5.05,10.085 4.804,10.015 4.519,9.946 4.234,9.877 4.003,9.808 3.818,9.731 3.788,9.592 3.772,9.384 3.772,9.115 3.772,8.876 3.78,8.684 3.795,8.53 3.78,7.598 3.772,6.882 3.772,6.382 L 3.78,4.196 3.734,3.087 3.772,1.424 3.741,1.116 C 3.741,1.07 3.757,1.008 3.795,0.924 4.126,0.855 4.434,0.801 4.711,0.77 4.758,0.77 4.927,0.747 5.212,0.708 5.235,0.539 5.243,0.4 5.243,0.293 5.243,0.231 5.243,0.139 5.235,0.015 5.166,0.015 5.104,0.008 5.065,0 4.896,-0.008 4.788,-0.015 4.765,-0.015 4.727,-0.015 4.65,-0.008 4.55,0.015 4.473,0.023 4.103,0.062 3.449,0.131 L 1.986,0.146 C 1.694,0.146 1.27,0.115 0.716,0.062 0.346,0.031 0.115,0.008 0,0" style="fill:#868687;fill-opacity:1;fill-rule:evenodd;stroke:none" id="path1096"/></g><g id="g1098" transform="translate(276.834,93.8945)" style="fill-rule:evenodd"><path d="m 0,0 c 0.039,-0.162 0.085,-0.477 0.131,-0.947 0.046,-0.469 0.077,-0.816 0.077,-1.031 0,-0.085 -0.023,-0.185 -0.062,-0.308 -0.238,0.007 -0.439,0.03 -0.6,0.069 -0.424,0.647 -0.716,1.047 -0.885,1.216 -0.324,0.308 -0.732,0.57 -1.24,0.785 -0.369,0.162 -0.793,0.239 -1.27,0.239 -0.924,0 -1.74,-0.416 -2.44,-1.239 -0.701,-0.824 -1.047,-2.056 -1.047,-3.688 0,-0.77 0.138,-1.516 0.408,-2.232 0.277,-0.724 0.685,-1.294 1.231,-1.702 0.547,-0.415 1.186,-0.615 1.925,-0.615 0.362,0 0.739,0.046 1.147,0.138 0.2,0.046 0.369,0.131 0.493,0.262 0.092,0.092 0.146,0.223 0.177,0.4 0.046,0.316 0.069,0.77 0.069,1.355 0,0.577 -0.015,0.97 -0.031,1.178 -0.038,0.085 -0.077,0.138 -0.108,0.162 -0.038,0.023 -0.146,0.069 -0.338,0.123 l -0.732,0.2 c -0.161,0.038 -0.261,0.085 -0.3,0.138 -0.015,0.07 -0.015,0.124 -0.015,0.154 0,0.077 0.015,0.185 0.054,0.324 0.1,0.031 0.169,0.054 0.207,0.054 0.601,0 1.124,-0.023 1.563,-0.062 0.154,-0.008 0.323,-0.015 0.508,-0.015 l 1.309,0.015 0.554,0.015 c 0.07,0.008 0.254,0 0.555,-0.015 C 1.347,-5.173 1.347,-5.289 1.347,-5.389 1.347,-5.45 1.332,-5.52 1.293,-5.597 1.193,-5.651 1.039,-5.727 0.808,-5.812 0.585,-5.889 0.454,-5.951 0.431,-5.974 0.385,-6.02 0.354,-6.089 0.339,-6.182 0.323,-6.274 0.316,-6.605 0.316,-7.167 0.316,-7.821 0.308,-8.206 0.308,-8.329 0.285,-8.738 0.269,-8.968 0.269,-9.03 c 0,-0.2 -0.023,-0.331 -0.077,-0.377 -0.161,-0.154 -0.638,-0.331 -1.439,-0.524 -0.801,-0.2 -1.74,-0.292 -2.802,-0.292 -0.747,0 -1.394,0.054 -1.94,0.177 -0.554,0.115 -1.024,0.292 -1.409,0.523 -0.516,0.308 -0.962,0.685 -1.332,1.124 -0.369,0.447 -0.646,0.924 -0.823,1.432 -0.255,0.731 -0.385,1.455 -0.385,2.179 0,0.816 0.184,1.639 0.562,2.471 0.277,0.6 0.662,1.139 1.162,1.624 0.5,0.485 1.124,0.87 1.878,1.155 0.747,0.285 1.571,0.431 2.448,0.431 0.116,0 0.293,-0.015 0.539,-0.039 0.678,0 1.301,-0.084 1.886,-0.254 C -0.878,0.431 -0.385,0.231 0,0" style="fill:#868687;fill-opacity:1;fill-rule:evenodd;stroke:none" id="path1100"/></g><g id="g1102" transform="translate(278.7969,93.8945)" style="fill-rule:evenodd"><path d="m 0,0 -0.023,0.654 c 0.1,0.008 0.2,0.008 0.308,0.008 0.269,0 0.562,-0.008 0.87,-0.023 C 1.878,0.6 2.309,0.577 2.44,0.577 c 0.439,0 0.87,0.008 1.294,0.031 0.423,0.016 0.8,0.023 1.131,0.031 0.324,0.008 0.547,0.008 0.662,0.015 L 5.52,0.554 5.535,0.077 V 0.008 c -0.308,-0.046 -0.624,-0.07 -0.955,-0.07 -0.315,0 -0.515,-0.053 -0.615,-0.177 -0.07,-0.077 -0.1,-0.408 -0.1,-0.985 0,-0.177 0.007,-0.323 0.007,-0.431 L 3.88,-1.955 3.865,-2.733 3.918,-3.395 3.88,-4.827 3.988,-6.905 c 0.03,-0.601 0.161,-1.101 0.4,-1.501 0.177,-0.293 0.423,-0.516 0.747,-0.686 0.462,-0.231 0.916,-0.346 1.362,-0.346 0.531,0 1.024,0.069 1.486,0.208 0.27,0.077 0.524,0.2 0.762,0.377 0.239,0.169 0.408,0.331 0.501,0.47 0.2,0.308 0.338,0.592 0.415,0.854 0.108,0.37 0.154,0.932 0.154,1.701 0,1.332 -0.069,2.841 -0.208,4.512 L 9.569,-0.878 C 9.553,-0.554 9.492,-0.331 9.392,-0.223 9.215,-0.054 9.015,0.031 8.791,0.031 L 8.014,0.015 7.906,0.038 7.921,0.677 H 8.576 L 10.162,0.6 c 0.523,0 1.031,0.031 1.509,0.077 L 11.817,0.662 C 11.848,0.477 11.863,0.354 11.863,0.285 11.863,0.223 11.855,0.146 11.832,0.054 11.624,0 11.409,-0.031 11.186,-0.038 10.816,-0.092 10.608,-0.131 10.57,-0.169 10.493,-0.231 10.454,-0.331 10.454,-0.47 c 0,-0.1 0.008,-0.246 0.031,-0.431 0.015,-0.138 0.023,-0.385 0.023,-0.723 v -0.455 c 0.008,-0.115 0.008,-0.223 0.015,-0.338 0.016,-0.401 0.031,-0.801 0.039,-1.217 l 0.085,-1.678 c 0,-1.124 -0.039,-1.878 -0.116,-2.263 C 10.454,-7.952 10.346,-8.26 10.216,-8.476 10.015,-8.807 9.723,-9.115 9.346,-9.392 8.968,-9.669 8.499,-9.892 7.937,-10.054 7.375,-10.216 6.721,-10.3 5.966,-10.3 5.112,-10.3 4.38,-10.185 3.764,-9.954 3.156,-9.731 2.694,-9.43 2.379,-9.053 2.071,-8.684 1.855,-8.199 1.74,-7.598 1.655,-7.19 1.617,-6.605 1.617,-5.843 v 3.949 c 0,0.932 -0.047,1.455 -0.139,1.578 -0.115,0.17 -0.5,0.27 -1.132,0.293 C 0.208,-0.023 0.092,-0.015 0,0" style="fill:#868687;fill-opacity:1;fill-rule:evenodd;stroke:none" id="path1104"/></g><g id="g1106" transform="translate(297.7578,93.9868)" style="fill-rule:evenodd"><path d="m 0,0 c -0.485,0 -0.908,-0.115 -1.278,-0.339 -0.369,-0.223 -0.647,-0.469 -0.831,-0.739 -0.316,-0.462 -0.539,-0.962 -0.67,-1.501 -0.131,-0.546 -0.2,-1.209 -0.2,-1.986 0,-0.477 0.023,-0.816 0.061,-1.016 0.008,-0.07 0.023,-0.177 0.047,-0.339 0.046,-0.408 0.107,-0.708 0.177,-0.893 0.231,-0.7 0.4,-1.139 0.5,-1.301 0.169,-0.285 0.408,-0.562 0.739,-0.839 0.162,-0.146 0.4,-0.277 0.716,-0.393 0.316,-0.115 0.631,-0.177 0.947,-0.177 0.593,0 1.147,0.139 1.655,0.416 0.508,0.277 0.916,0.754 1.232,1.424 0.308,0.662 0.462,1.532 0.462,2.602 0,0.447 -0.031,1.047 -0.093,1.802 L 3.418,-3.125 C 3.403,-3.079 3.38,-2.964 3.341,-2.787 3.133,-1.878 2.748,-1.186 2.171,-0.716 1.594,-0.239 0.87,0 0,0 m -5.635,-4.619 c 0,0.685 0.131,1.37 0.393,2.055 0.192,0.501 0.469,0.955 0.815,1.371 0.347,0.415 0.778,0.785 1.309,1.108 0.524,0.316 1.055,0.555 1.601,0.693 0.547,0.139 1.155,0.208 1.833,0.208 1.147,0 2.14,-0.216 2.987,-0.647 0.839,-0.431 1.508,-1.008 1.993,-1.747 0.624,-0.955 0.94,-1.955 0.94,-3.002 0,-1.563 -0.532,-2.903 -1.594,-4.019 -1.062,-1.108 -2.54,-1.67 -4.426,-1.67 -0.47,0 -0.909,0.03 -1.317,0.092 -0.308,0.046 -0.577,0.108 -0.816,0.185 -0.416,0.138 -0.647,0.215 -0.7,0.238 -0.601,0.339 -1.086,0.693 -1.448,1.047 -0.362,0.362 -0.669,0.77 -0.923,1.217 -0.139,0.254 -0.301,0.716 -0.478,1.378 -0.115,0.423 -0.169,0.923 -0.169,1.493" style="fill:#868687;fill-opacity:1;fill-rule:evenodd;stroke:none" id="path1108"/></g><g id="g1110" transform="translate(110.0977,32.4165)" style="fill-rule:evenodd"><path d="M 0,0 -0.008,0.554 1.747,0.447 2.533,0.454 h 0.288 c 0.297,0 0.766,0.016 1.401,0.054 0.362,0.023 0.589,0.031 0.686,0.031 0.615,0 1.081,-0.031 1.393,-0.1 0.481,-0.1 0.862,-0.254 1.143,-0.47 0.281,-0.215 0.524,-0.523 0.728,-0.924 0.204,-0.4 0.304,-0.769 0.304,-1.108 0,-0.855 -0.266,-1.547 -0.805,-2.079 -0.535,-0.531 -1.212,-0.8 -2.028,-0.8 -0.285,0 -0.558,0.038 -0.812,0.107 -0.258,0.07 -0.501,0.17 -0.724,0.308 -0.027,0.139 -0.038,0.339 -0.038,0.586 0.119,-0.008 0.223,-0.016 0.319,-0.024 0.096,0 0.181,-0.007 0.254,-0.007 0.416,0 0.766,0.115 1.051,0.346 0.377,0.3 0.566,0.785 0.566,1.463 0,0.477 -0.081,0.87 -0.247,1.178 C 5.847,-0.677 5.654,-0.47 5.427,-0.362 5.115,-0.216 4.761,-0.139 4.369,-0.139 4.003,-0.139 3.741,-0.192 3.584,-0.3 3.545,-0.37 3.514,-0.431 3.495,-0.485 L 3.549,-3.949 3.533,-4.242 3.553,-4.557 C 3.56,-4.619 3.56,-4.727 3.56,-4.858 v -0.6 L 3.568,-6.42 3.553,-7.567 c 0,-0.162 0.015,-0.385 0.046,-0.655 l 1.463,-0.184 c 0.019,-0.116 0.027,-0.208 0.027,-0.278 0,-0.077 -0.012,-0.177 -0.035,-0.308 -0.123,-0.023 -0.216,-0.03 -0.281,-0.03 -0.15,0 -0.439,0.015 -0.858,0.054 -0.424,0.038 -0.901,0.053 -1.44,0.053 -0.608,0 -1.186,-0.038 -1.736,-0.115 C 0.647,-9.045 0.5,-9.061 0.3,-9.069 0.281,-8.93 0.269,-8.822 0.269,-8.753 c 0,0.046 0.004,0.116 0.016,0.208 l 0.446,0.146 c 0.312,0.093 0.578,0.208 0.801,0.339 0.046,0.139 0.069,0.269 0.069,0.385 0,0.054 -0.004,0.108 -0.007,0.169 -0.008,0.154 -0.008,0.37 -0.008,0.639 L 1.563,-4.796 1.482,-2.471 C 1.447,-1.363 1.42,-0.762 1.401,-0.677 1.366,-0.539 1.309,-0.423 1.224,-0.346 1.143,-0.262 1.001,-0.208 0.808,-0.169 0.4,-0.1 0.131,-0.046 0,0" style="fill:#868687;fill-opacity:1;fill-rule:evenodd;stroke:none" id="path1112"/></g><g id="g1114" transform="translate(128.1499,33.5943)" style="fill-rule:evenodd"><path d="M 0,0 C 0.15,0.539 0.4,1.332 0.747,2.363 L 2.76,2.348 0.55,-0.008 C 0.37,-0.015 0.262,-0.015 0.227,-0.015 0.158,-0.015 0.081,-0.008 0,0 m -0.889,-6.066 c 1.147,-0.016 1.82,-0.023 2.024,-0.023 l 0.185,0.007 c -0.146,0.439 -0.338,0.947 -0.573,1.525 -0.235,0.585 -0.428,1.024 -0.574,1.324 z m -3.457,-4.126 0.016,0.5 c 0.092,0.023 0.258,0.062 0.492,0.108 0.378,0.069 0.609,0.138 0.689,0.2 0.081,0.054 0.177,0.2 0.297,0.423 l 1.482,3.88 1.74,4.573 H 0.835 1.17 l 0.066,-0.139 1.277,-3.025 c 0.289,-0.639 0.547,-1.263 0.778,-1.871 0.231,-0.6 0.427,-1.093 0.593,-1.478 0.1,-0.231 0.235,-0.577 0.404,-1.039 0.088,-0.246 0.223,-0.562 0.404,-0.939 0.1,-0.2 0.173,-0.324 0.223,-0.362 C 5,-9.43 5.146,-9.477 5.343,-9.507 c 0.2,-0.023 0.411,-0.077 0.642,-0.17 0.027,-0.161 0.039,-0.277 0.039,-0.354 0,-0.038 -0.004,-0.092 -0.008,-0.161 -0.362,0 -0.762,0.015 -1.197,0.046 -0.439,0.038 -0.827,0.054 -1.178,0.054 -0.385,0 -0.666,-0.008 -0.835,-0.016 l -1.251,-0.061 -0.358,-0.016 c 0,0.17 0.008,0.331 0.019,0.493 l 0.816,0.169 c 0.247,0.07 0.389,0.116 0.428,0.154 0.05,0.046 0.073,0.1 0.073,0.17 0,0.061 -0.012,0.123 -0.035,0.192 l -0.292,0.724 -0.578,1.439 -2.806,0.008 c -0.104,-0.239 -0.319,-0.808 -0.646,-1.724 -0.093,-0.262 -0.139,-0.439 -0.139,-0.532 0,-0.13 0.035,-0.215 0.104,-0.269 0.112,-0.1 0.327,-0.162 0.647,-0.2 0.042,-0.016 0.215,-0.039 0.519,-0.085 0.004,-0.177 0.008,-0.3 0.008,-0.362 0,-0.054 -0.004,-0.115 -0.016,-0.169 -0.304,0 -1.027,0.038 -2.174,0.123 l -0.301,-0.054 c -0.361,-0.061 -0.708,-0.084 -1.035,-0.084 z" style="fill:#868687;fill-opacity:1;fill-rule:evenodd;stroke:none" id="path1116"/></g><g id="g1118" transform="translate(139.6665,33.3174)" style="fill-rule:evenodd"><path d="m 0,0 h 0.458 c 0.031,-0.054 0.058,-0.092 0.073,-0.115 0.135,-0.239 0.243,-0.401 0.316,-0.47 0.061,-0.015 0.396,-0.023 1.004,-0.023 0.378,0 0.713,0 1.009,0.008 l 0.146,0.015 0.889,0.008 1.659,-0.008 h 2.271 l 0.435,0.062 c 0.062,0.038 0.131,0.161 0.204,0.354 0.019,0.046 0.046,0.107 0.081,0.184 l 0.323,0.008 c 0.05,0 0.124,0 0.22,-0.008 0.007,-0.338 0.007,-0.846 0.007,-1.524 L 9.103,-2.163 9.095,-2.54 C 9.095,-2.671 9.088,-2.779 9.069,-2.871 8.868,-2.933 8.691,-2.972 8.537,-2.987 8.41,-2.794 8.272,-2.525 8.122,-2.156 7.972,-1.794 7.879,-1.594 7.841,-1.555 7.779,-1.493 7.71,-1.455 7.633,-1.432 7.513,-1.409 6.994,-1.393 6.07,-1.393 5.935,-1.393 5.762,-1.401 5.554,-1.424 5.531,-1.617 5.52,-1.771 5.52,-1.894 l 0.007,-0.985 v -2.163 l 0.02,-2.325 -0.004,-0.955 c 0,-0.339 0.027,-0.593 0.088,-0.762 0.077,-0.038 0.224,-0.069 0.435,-0.1 C 6.105,-9.192 6.286,-9.23 6.613,-9.299 6.759,-9.338 6.89,-9.376 7.002,-9.415 7.029,-9.592 7.04,-9.7 7.04,-9.738 7.04,-9.784 7.032,-9.846 7.017,-9.931 6.909,-9.938 6.821,-9.938 6.751,-9.938 c -0.504,0 -0.931,0.015 -1.285,0.053 -0.351,0.039 -0.989,0.054 -1.917,0.054 -0.146,0 -0.577,-0.03 -1.293,-0.084 C 1.978,-9.938 1.798,-9.946 1.713,-9.946 1.709,-9.877 1.701,-9.815 1.697,-9.777 l -0.007,0.17 v 0.053 c 0.108,0.147 0.312,0.255 0.612,0.316 0.508,0.123 0.862,0.239 1.058,0.331 0.046,0.093 0.077,0.216 0.085,0.37 0.035,0.585 0.054,1.524 0.054,2.81 L 3.46,-2.956 c 0,0.77 -0.015,1.232 -0.042,1.393 -0.012,0.046 -0.027,0.077 -0.05,0.1 -0.027,0.023 -0.062,0.031 -0.104,0.039 -0.154,0.023 -0.647,0.031 -1.486,0.031 -0.458,0 -0.77,-0.047 -0.924,-0.131 -0.211,-0.123 -0.527,-0.462 -0.95,-1.001 -0.12,-0.162 -0.212,-0.239 -0.27,-0.239 -0.227,0.123 -0.369,0.216 -0.435,0.293 0.154,0.315 0.362,0.954 0.632,1.909 C -0.089,-0.285 -0.035,-0.1 0,0" style="fill:#868687;fill-opacity:1;fill-rule:evenodd;stroke:none" id="path1120"/></g><g id="g1122" transform="translate(154.5898,23.4248)" style="fill-rule:evenodd"><path d="m 0,0 c -0.015,0.169 -0.023,0.37 -0.023,0.585 0.319,0.454 0.997,1.363 2.04,2.718 l 0.45,0.569 c 0.085,0.1 0.2,0.254 0.354,0.47 0.224,0.323 0.52,0.708 0.886,1.162 0.362,0.454 0.831,1.07 1.397,1.863 0.239,0.324 0.435,0.585 0.581,0.778 0.212,0.261 0.358,0.462 0.439,0.585 H 5.943 L 5.304,8.738 C 4.754,8.738 4.092,8.707 3.314,8.63 2.54,8.56 2.017,8.476 1.755,8.383 1.555,8.306 1.382,8.206 1.239,8.068 0.962,7.814 0.766,7.606 0.658,7.437 0.62,7.383 0.585,7.321 0.55,7.267 0.358,7.244 0.25,7.236 0.227,7.236 0.181,7.236 0.119,7.244 0.042,7.259 0.073,7.452 0.289,8.306 0.689,9.831 L 1.132,9.854 C 1.286,9.507 1.393,9.315 1.447,9.276 1.547,9.199 1.732,9.169 1.998,9.169 c 0.05,0 0.092,0 0.131,0.007 h 0.053 c 0.389,0.023 1.336,0.077 2.833,0.147 0.959,0.038 1.698,0.061 2.229,0.061 l 0.55,-0.015 0.94,0.007 C 8.745,9.269 8.753,9.169 8.757,9.076 8.738,9.015 8.564,8.768 8.241,8.337 8.018,8.037 7.837,7.791 7.706,7.598 L 7.367,7.113 7.344,7.09 5.296,4.396 3.718,2.286 C 3.276,1.709 2.902,1.201 2.598,0.77 2.902,0.716 3.287,0.685 3.745,0.685 H 4.246 L 4.561,0.67 c 0.593,0 1.074,0.031 1.44,0.092 0.369,0.054 0.677,0.154 0.931,0.285 0.25,0.131 0.481,0.3 0.689,0.508 0.208,0.208 0.489,0.577 0.843,1.109 0.162,0.015 0.274,0.023 0.335,0.023 H 8.984 L 8.853,1.116 V 1.047 c 0,-0.1 -0.035,-0.462 -0.104,-1.093 L 5.804,0.038 C 5.554,0.046 5.358,0.046 5.216,0.046 H 4.361 L 3.534,0.054 H 3.38 L 1.366,0 c -0.18,-0.015 -0.338,-0.023 -0.469,-0.023 -0.119,0 -0.25,0 -0.393,0.008 C 0.308,-0.008 0.142,0 0,0" style="fill:#868687;fill-opacity:1;fill-rule:evenodd;stroke:none" id="path1124"/></g><g id="g1126" transform="translate(178.3081,32.7554)" style="fill-rule:evenodd"><path d="M 0,0 C 0.062,-0.146 0.192,-0.57 0.389,-1.262 0.477,-1.57 0.523,-1.909 0.527,-2.256 h -0.666 c -0.469,0.662 -0.954,1.14 -1.455,1.432 -0.5,0.293 -1.058,0.439 -1.674,0.439 -0.762,0 -1.374,-0.292 -1.84,-0.885 -0.631,-0.809 -0.947,-1.925 -0.947,-3.364 0,-0.832 0.054,-1.425 0.162,-1.779 0.177,-0.569 0.4,-1.039 0.67,-1.401 0.204,-0.277 0.473,-0.492 0.808,-0.654 0.431,-0.216 0.889,-0.331 1.382,-0.331 0.539,0 1.058,0.169 1.559,0.5 0.504,0.339 0.985,0.839 1.443,1.501 0.181,0.031 0.42,0.054 0.712,0.054 C 0.662,-6.928 0.631,-7.121 0.589,-7.321 0.574,-7.398 0.516,-7.706 0.42,-8.245 L 0.354,-8.468 0.25,-8.814 c -0.3,-0.231 -0.72,-0.401 -1.258,-0.516 -0.543,-0.116 -1.209,-0.17 -1.998,-0.17 -0.601,0 -1.17,0.054 -1.709,0.17 -0.535,0.108 -0.993,0.285 -1.374,0.531 -0.562,0.354 -0.997,0.739 -1.317,1.147 -0.319,0.416 -0.554,0.862 -0.708,1.347 -0.154,0.485 -0.231,1.024 -0.231,1.632 0,1.455 0.481,2.664 1.444,3.611 0.962,0.954 2.19,1.424 3.683,1.424 0.608,0 1.178,-0.031 1.717,-0.093 C -0.966,0.208 -0.466,0.123 0,0" style="fill:#868687;fill-opacity:1;fill-rule:evenodd;stroke:none" id="path1128"/></g><g id="g1130" transform="translate(184.7593,32.2935)" style="fill-rule:evenodd"><path d="m 0,0 -0.023,0.577 c 0.092,0.008 0.185,0.008 0.277,0.008 0.246,0 0.5,-0.008 0.77,-0.023 0.647,-0.031 1.031,-0.054 1.139,-0.054 0.393,0 0.778,0.008 1.155,0.023 C 3.695,0.547 4.026,0.562 4.319,0.562 4.611,0.57 4.804,0.57 4.911,0.577 L 4.904,0.493 4.919,0.062 V 0 C 4.642,-0.038 4.357,-0.054 4.065,-0.054 3.788,-0.054 3.61,-0.108 3.518,-0.216 3.464,-0.285 3.433,-0.577 3.433,-1.093 c 0,-0.154 0,-0.285 0.008,-0.377 L 3.449,-1.74 3.433,-2.425 3.48,-3.018 3.449,-4.288 3.541,-6.128 c 0.023,-0.539 0.146,-0.977 0.354,-1.332 0.154,-0.261 0.378,-0.461 0.662,-0.608 0.408,-0.208 0.816,-0.315 1.209,-0.315 0.477,0 0.916,0.061 1.316,0.184 0.247,0.07 0.47,0.185 0.686,0.339 0.207,0.154 0.361,0.293 0.438,0.423 0.177,0.27 0.301,0.516 0.37,0.755 0.092,0.323 0.138,0.824 0.138,1.509 0,1.185 -0.061,2.517 -0.192,4.003 L 8.499,-0.785 C 8.483,-0.493 8.43,-0.3 8.337,-0.2 8.176,-0.054 7.998,0.023 7.806,0.023 L 7.113,0.008 7.021,0.031 7.036,0.6 H 7.614 L 9.015,0.531 c 0.469,0 0.923,0.023 1.347,0.069 L 10.485,0.585 C 10.516,0.423 10.531,0.308 10.531,0.246 10.531,0.192 10.523,0.123 10.5,0.046 10.323,0 10.131,-0.031 9.931,-0.038 9.6,-0.085 9.423,-0.123 9.384,-0.154 9.315,-0.208 9.284,-0.3 9.284,-0.423 c 0,-0.085 0.008,-0.216 0.023,-0.385 0.008,-0.116 0.016,-0.331 0.016,-0.639 0,-0.17 0.007,-0.3 0.007,-0.401 0,-0.1 0.008,-0.2 0.008,-0.3 0.015,-0.354 0.031,-0.716 0.038,-1.078 L 9.453,-4.719 C 9.453,-5.72 9.415,-6.39 9.346,-6.728 9.276,-7.059 9.184,-7.329 9.069,-7.529 8.884,-7.821 8.63,-8.091 8.299,-8.337 7.968,-8.584 7.544,-8.784 7.052,-8.93 6.551,-9.069 5.966,-9.146 5.296,-9.146 c -0.754,0 -1.408,0.101 -1.947,0.308 -0.547,0.201 -0.955,0.47 -1.232,0.801 -0.277,0.331 -0.47,0.762 -0.57,1.286 -0.077,0.361 -0.115,0.885 -0.115,1.562 v 3.503 c 0,0.824 -0.039,1.293 -0.116,1.401 C 1.209,-0.131 0.878,-0.046 0.308,-0.023 0.185,-0.023 0.085,-0.015 0,0" style="fill:#868687;fill-opacity:1;fill-rule:evenodd;stroke:none" id="path1132"/></g><g id="g1134" transform="translate(202.9424,27.5283)" style="fill-rule:evenodd"><path d="m 0,0 c 1.147,-0.015 1.824,-0.023 2.025,-0.023 l 0.184,0.008 C 2.063,0.423 1.871,0.931 1.64,1.509 1.401,2.094 1.209,2.533 1.062,2.833 Z m -3.457,-4.126 0.016,0.5 c 0.092,0.023 0.254,0.062 0.493,0.108 0.377,0.069 0.608,0.138 0.685,0.2 0.084,0.054 0.184,0.2 0.3,0.423 l 1.486,3.88 1.74,4.573 H 1.724 2.055 L 2.125,5.42 3.403,2.394 C 3.687,1.755 3.949,1.132 4.18,0.523 c 0.231,-0.6 0.431,-1.093 0.593,-1.478 0.1,-0.231 0.231,-0.577 0.408,-1.039 0.085,-0.246 0.223,-0.562 0.4,-0.939 0.1,-0.2 0.17,-0.323 0.223,-0.362 0.085,-0.069 0.231,-0.115 0.432,-0.146 0.192,-0.023 0.408,-0.077 0.639,-0.169 0.023,-0.162 0.038,-0.278 0.038,-0.355 0,-0.038 0,-0.092 -0.008,-0.161 -0.362,0 -0.762,0.015 -1.201,0.046 -0.431,0.038 -0.823,0.054 -1.17,0.054 -0.392,0 -0.669,-0.008 -0.839,-0.016 L 2.448,-4.103 2.086,-4.119 c 0,0.17 0.008,0.331 0.023,0.493 l 0.816,0.169 c 0.239,0.07 0.385,0.116 0.424,0.154 0.046,0.047 0.077,0.101 0.077,0.17 0,0.061 -0.016,0.123 -0.039,0.192 l -0.292,0.724 -0.578,1.439 -2.802,0.008 c -0.108,-0.238 -0.323,-0.808 -0.646,-1.724 -0.101,-0.262 -0.147,-0.439 -0.147,-0.531 0,-0.131 0.039,-0.216 0.108,-0.27 0.108,-0.1 0.323,-0.162 0.647,-0.2 0.038,-0.015 0.215,-0.038 0.523,-0.085 v -0.361 c 0,-0.054 0,-0.116 -0.008,-0.17 -0.307,0 -1.031,0.039 -2.178,0.123 l -0.3,-0.054 c -0.362,-0.061 -0.709,-0.084 -1.04,-0.084 z" style="fill:#868687;fill-opacity:1;fill-rule:evenodd;stroke:none" id="path1136"/></g><g id="g1138" transform="translate(218.5005,28.5982)" style="fill-rule:evenodd"><path d="m 0,0 c 0.231,-0.008 0.4,-0.008 0.508,-0.008 0.839,0 1.424,0.147 1.771,0.447 0.354,0.3 0.523,0.693 0.523,1.193 0,0.308 -0.038,0.6 -0.123,0.87 C 2.587,2.779 2.487,2.979 2.356,3.11 2.179,3.303 1.94,3.449 1.647,3.541 1.432,3.618 1.085,3.657 0.616,3.657 0.385,3.657 0.192,3.641 0.031,3.618 L 0.015,3.48 0.031,2.487 0.015,1.886 V 1.085 C 0.008,0.855 0,0.57 0,0.208 Z m -3.31,-4.75 c 0.131,0.069 0.315,0.116 0.569,0.146 0.247,0.039 0.47,0.085 0.67,0.162 0.031,0.1 0.046,0.169 0.046,0.216 0.008,0.069 0.016,0.3 0.016,0.7 l -0.008,1.64 0.031,0.885 -0.016,0.678 0.016,0.4 c 0.015,0.531 0.023,1.032 0.023,1.501 0,1.016 -0.015,1.671 -0.039,1.955 l -0.431,0.085 c -0.4,0.023 -0.662,0.046 -0.793,0.077 l -0.015,0.439 0.031,0.077 c 0.238,0.038 0.469,0.062 0.67,0.062 0.115,0 0.346,0 0.685,0.007 0.354,-0.031 0.546,-0.046 0.577,-0.046 l 0.385,0.023 0.916,0.046 C 0.6,4.357 1.201,4.388 1.84,4.388 2.848,4.388 3.641,4.134 4.234,3.618 4.827,3.11 5.127,2.525 5.127,1.863 5.127,1.37 4.965,0.916 4.642,0.516 4.326,0.108 3.834,-0.192 3.172,-0.4 3.226,-0.5 3.31,-0.624 3.403,-0.762 3.61,-1.055 3.772,-1.301 3.903,-1.509 l 1.17,-1.901 c 0.293,-0.508 0.485,-0.801 0.578,-0.886 0.092,-0.092 0.277,-0.184 0.561,-0.284 0.224,-0.085 0.393,-0.17 0.509,-0.254 0.03,-0.077 0.046,-0.154 0.046,-0.216 0,-0.046 -0.008,-0.1 -0.008,-0.169 h -0.2 L 6.413,-5.227 6.028,-5.173 H 5.727 C 5.574,-5.15 5.381,-5.142 5.15,-5.142 L 4.411,-5.135 C 4.357,-5.135 4.188,-5.15 3.895,-5.181 3.764,-5.196 3.664,-5.212 3.58,-5.219 L 3.333,-4.734 C 3.125,-4.365 2.979,-4.095 2.902,-3.911 2.687,-3.441 2.317,-2.679 1.786,-1.64 1.547,-1.162 1.37,-0.893 1.278,-0.824 1.132,-0.724 0.878,-0.67 0.516,-0.67 0.423,-0.67 0.254,-0.677 0.015,-0.685 0.008,-0.831 0,-1.001 0,-1.193 l 0.031,-1.632 -0.039,-1.378 c 0.131,-0.085 0.316,-0.154 0.531,-0.193 0.385,-0.077 0.716,-0.177 0.986,-0.285 0,-0.238 -0.008,-0.415 -0.031,-0.538 -0.092,0 -0.146,0.007 -0.169,0.007 L 1.001,-5.227 c -1.047,0.092 -1.678,0.138 -1.871,0.138 -0.131,0 -0.215,0 -0.269,-0.007 l -1.017,-0.07 c -0.307,-0.03 -0.592,-0.046 -0.846,-0.046 h -0.316 c -0.008,0.123 -0.015,0.2 -0.015,0.231 0,0.054 0.007,0.131 0.023,0.231" style="fill:#868687;fill-opacity:1;fill-rule:evenodd;stroke:none" id="path1140"/></g><g id="g1142" transform="translate(235.4521,32.3701)" style="fill-rule:evenodd"><path d="m 0,0 c -0.423,0 -0.801,-0.1 -1.124,-0.3 -0.331,-0.193 -0.577,-0.416 -0.747,-0.655 -0.277,-0.408 -0.477,-0.854 -0.592,-1.331 -0.116,-0.485 -0.178,-1.07 -0.178,-1.763 0,-0.424 0.016,-0.724 0.054,-0.901 0.008,-0.062 0.023,-0.162 0.047,-0.3 0.038,-0.362 0.092,-0.631 0.154,-0.793 0.207,-0.624 0.354,-1.009 0.446,-1.155 0.146,-0.254 0.362,-0.5 0.654,-0.747 0.147,-0.123 0.355,-0.238 0.639,-0.346 0.277,-0.108 0.555,-0.162 0.832,-0.162 0.531,0 1.024,0.131 1.47,0.378 0.454,0.246 0.816,0.662 1.093,1.254 0.277,0.593 0.408,1.371 0.408,2.318 0,0.392 -0.023,0.923 -0.077,1.593 l -0.038,0.139 c -0.016,0.038 -0.039,0.138 -0.07,0.3 C 2.787,-1.663 2.44,-1.055 1.932,-0.631 1.416,-0.208 0.777,0 0,0 m -4.996,-4.103 c 0,0.608 0.115,1.224 0.354,1.832 0.169,0.439 0.408,0.847 0.716,1.216 0.308,0.362 0.693,0.693 1.162,0.978 0.462,0.285 0.94,0.493 1.424,0.616 0.485,0.123 1.024,0.192 1.625,0.192 1.016,0 1.901,-0.192 2.648,-0.577 0.747,-0.385 1.34,-0.901 1.771,-1.547 0.554,-0.847 0.839,-1.74 0.839,-2.672 0,-1.385 -0.478,-2.571 -1.417,-3.564 -0.939,-0.985 -2.255,-1.478 -3.934,-1.478 -0.415,0 -0.8,0.023 -1.162,0.077 -0.277,0.038 -0.516,0.092 -0.724,0.162 -0.369,0.123 -0.577,0.192 -0.623,0.215 -0.531,0.3 -0.962,0.616 -1.286,0.932 -0.323,0.315 -0.593,0.677 -0.824,1.077 -0.123,0.224 -0.261,0.632 -0.415,1.224 -0.1,0.378 -0.154,0.816 -0.154,1.317" style="fill:#868687;fill-opacity:1;fill-rule:evenodd;stroke:none" id="path1144"/></g><g id="g1146" transform="translate(95.4512,27.5117)" style="fill-rule:evenodd"><path d="m 0,0 c 0,-1.34 -1.086,-2.426 -2.426,-2.426 -1.331,0 -2.417,1.086 -2.417,2.426 0,1.34 1.086,2.426 2.417,2.426 C -1.086,2.426 0,1.34 0,0" style="fill:#760135;fill-opacity:1;fill-rule:evenodd;stroke:none" id="path1148"/></g><g id="g1150" transform="translate(260.4771,27.3355)" style="fill-rule:evenodd"><path d="m 0,0 c 0,-1.331 -1.086,-2.417 -2.426,-2.417 -1.34,0 -2.417,1.086 -2.417,2.417 0,1.34 1.077,2.426 2.417,2.426 C -1.086,2.426 0,1.34 0,0" style="fill:#760135;fill-opacity:1;fill-rule:evenodd;stroke:none" id="path1152"/></g><g id="g1154" transform="translate(123.8159,122.8062)" style="fill-rule:evenodd"><path d="M 0,0 47.583,11.224" style="fill:#760135;fill-opacity:1;fill-rule:evenodd;stroke:none" id="path1156"/></g><g id="g1158" transform="translate(230.5439,122.8062)" style="fill-rule:evenodd"><path d="M 0,0 -47.583,11.224" style="fill:#760135;fill-opacity:1;fill-rule:evenodd;stroke:none" id="path1160"/></g><path d="m 105.14,158.996 h -0.969 v 0.862 h 0.969 z m 0,-1.585 h -0.969 v 0.946 h 0.969 z m 0,-1.51 h -0.977 v 0.87 h 0.977 z m 0,-1.555 h -0.969 v 0.908 h 0.969 z m -1.617,4.65 h -0.947 v 0.862 h 0.947 z m 0,-1.585 h -0.947 v 0.946 h 0.947 z m -0.007,-1.51 h -0.94 v 0.87 h 0.94 z m 0,-1.555 h -0.94 v 0.908 h 0.94 z m 2.686,0 h -0.423 v 6.158 h -3.849 v -6.158 h -0.447 v -0.692 h 4.719 z" style="fill:#760135;fill-opacity:1;fill-rule:evenodd;stroke:none" id="path1162"/><path d="m 117.55,158.996 h -0.979 v 0.862 h 0.979 z m 0,-1.585 h -0.979 v 0.946 h 0.979 z m 0,-1.51 h -0.979 v 0.87 h 0.979 z m 0,-1.555 h -0.979 v 0.908 h 0.979 z m -1.625,4.65 h -0.939 v 0.862 h 0.939 z m 0,-1.585 h -0.939 v 0.946 h 0.939 z m 0,-1.51 h -0.939 v 0.87 h 0.939 z m 0,-1.555 h -0.939 v 0.908 h 0.939 z m 2.686,0 h -0.422 v 6.158 h -3.857 v -6.158 h -0.439 v -0.692 h 4.718 z" style="fill:#760135;fill-opacity:1;fill-rule:evenodd;stroke:none" id="path1164"/><path d="m 129.943,158.996 h -0.977 v 0.862 h 0.977 z m 0,-1.585 h -0.977 v 0.946 h 0.977 z m 0,-3.065 h -0.977 v 0.908 h 0.977 z m -1.624,4.65 h -0.946 v 0.862 h 0.946 z m 0,-1.585 h -0.946 v 0.946 h 0.946 z m 0,-1.51 h -0.946 v 0.87 h 0.946 z m 0,-1.555 h -0.946 v 0.908 h 0.946 z m 0.647,2.425 h 0.97 v -0.87 h -0.97 z m 2.04,-2.425 h -0.423 v 6.158 h -3.857 v -6.158 h -0.447 v -0.692 h 4.727 z" style="fill:#760135;fill-opacity:1;fill-rule:evenodd;stroke:none" id="path1166"/><path d="m 142.33,158.996 h -0.97 v 0.862 h 0.97 z m 0,-1.585 h -0.97 v 0.946 h 0.97 z m 0,-1.51 h -0.978 v 0.87 h 0.978 z m 0,-1.555 h -0.97 v 0.908 h 0.97 z m -1.617,4.65 h -0.946 v 0.862 h 0.946 z m 0,-1.585 h -0.946 v 0.946 h 0.946 z m 0,-1.51 h -0.946 v 0.87 h 0.946 z m 0,-1.555 h -0.946 v 0.908 h 0.946 z m 2.68,0 h -0.417 v 6.158 h -3.856 v -6.158 h -0.439 v -0.692 h 4.712 z" style="fill:#760135;fill-opacity:1;fill-rule:evenodd;stroke:none" id="path1168"/><path d="m 154.694,158.996 h -0.97 v 0.862 h 0.97 z m 0,-1.585 h -0.97 v 0.946 h 0.97 z m 0,-1.51 h -0.97 v 0.87 h 0.97 z m 0,-1.555 h -0.97 v 0.908 h 0.97 z m -1.609,4.65 h -0.946 v 0.862 h 0.946 z m 0,-1.585 h -0.946 v 0.946 h 0.946 z m 0,-1.51 h -0.946 v 0.87 h 0.946 z m 0,-1.555 h -0.946 v 0.908 h 0.946 z m 2.671,0 h -0.416 v 6.158 h -3.849 v -6.158 h -0.446 v -0.692 h 4.711 z" style="fill:#760135;fill-opacity:1;fill-rule:evenodd;stroke:none" id="path1170"/><path d="m 167.118,158.996 h -0.977 v 0.862 h 0.977 z m 0,-1.585 h -0.977 v 0.946 h 0.977 z m 0,-1.51 h -0.977 v 0.87 h 0.977 z m 0,-1.555 h -0.977 v 0.908 h 0.977 z m -1.616,4.65 h -0.946 v 0.862 h 0.946 z m 0,-1.585 h -0.946 v 0.946 h 0.946 z m 0,-1.51 h -0.946 v 0.87 h 0.946 z m 0,-1.555 h -0.946 v 0.908 h 0.946 z m 2.679,0 h -0.423 v 6.158 h -3.85 v -6.158 h -0.438 v -0.692 h 4.711 z" style="fill:#760135;fill-opacity:1;fill-rule:evenodd;stroke:none" id="path1172"/><path d="m 178.697,158.996 h -0.963 v 0.862 h 0.963 z m 0,-1.585 h -0.963 v 0.946 h 0.963 z m 0,-1.51 h -0.97 v 0.87 h 0.97 z m 0,-1.555 h -0.963 v 0.908 h 0.963 z m -1.609,4.65 h -0.947 v 0.862 h 0.947 z m 0,-1.585 h -0.947 v 0.946 h 0.947 z m 0,-1.51 h -0.955 v 0.87 h 0.955 z m 0,-1.555 h -0.955 v 0.908 h 0.955 z m 2.671,0 h -0.416 v 6.158 h -3.849 v -6.158 h -0.446 v -0.692 h 4.711 z" style="fill:#760135;fill-opacity:1;fill-rule:evenodd;stroke:none" id="path1174"/><path d="m 190.398,158.996 h -0.97 v 0.862 h 0.97 z m 0,-1.585 h -0.97 v 0.946 h 0.97 z m 0,-1.51 h -0.97 v 0.87 h 0.97 z m 0,-1.555 h -0.97 v 0.908 h 0.97 z m -1.609,4.65 h -0.946 v 0.862 h 0.946 z m 0,-1.585 h -0.946 v 0.946 h 0.946 z m 0,-1.51 h -0.946 v 0.87 h 0.946 z m 0,-1.555 h -0.946 v 0.908 h 0.946 z m 2.671,0 h -0.423 v 6.158 h -3.85 v -6.158 h -0.438 v -0.692 h 4.711 z" style="fill:#760135;fill-opacity:1;fill-rule:evenodd;stroke:none" id="path1176"/><path d="m 202.746,158.996 h -0.977 v 0.862 h 0.977 z m 0,-1.585 h -0.977 v 0.946 h 0.977 z m 0,-1.51 h -0.977 v 0.87 h 0.977 z m 0,-1.555 h -0.977 v 0.908 h 0.977 z m -1.617,4.65 h -0.955 v 0.862 h 0.955 z m 0,-1.585 h -0.955 v 0.946 h 0.955 z m 0,-1.51 h -0.955 v 0.87 h 0.955 z m 0,-1.555 h -0.955 v 0.908 h 0.955 z m 2.672,0 h -0.416 v 6.158 h -3.857 v -6.158 h -0.439 v -0.692 h 4.712 z" style="fill:#760135;fill-opacity:1;fill-rule:evenodd;stroke:none" id="path1178"/><path d="m 215.163,158.996 h -0.97 v 0.862 h 0.97 z m 0,-1.585 h -0.97 v 0.946 h 0.97 z m 0,-1.51 h -0.97 v 0.87 h 0.97 z m 0,-1.555 h -0.97 v 0.908 h 0.97 z m -1.609,4.65 h -0.946 v 0.862 h 0.946 z m 0,-1.585 h -0.946 v 0.946 h 0.946 z m 0,-1.51 h -0.946 v 0.87 h 0.946 z m 0,-1.555 h -0.946 v 0.908 h 0.946 z m 2.679,0 h -0.423 v 6.158 h -3.85 v -6.158 h -0.446 v -0.692 h 4.719 z" style="fill:#760135;fill-opacity:1;fill-rule:evenodd;stroke:none" id="path1180"/><path d="m 227.495,158.996 h -0.969 v 0.862 h 0.969 z m 0,-1.585 h -0.969 v 0.946 h 0.969 z m 0,-1.51 h -0.969 v 0.87 h 0.969 z m 0,-1.555 h -0.969 v 0.908 h 0.969 z m -1.616,4.65 h -0.947 v 0.862 h 0.947 z m 0,-1.585 h -0.947 v 0.946 h 0.947 z m 0,-1.51 h -0.947 v 0.87 h 0.947 z m 0,-1.555 h -0.947 v 0.908 h 0.947 z m 2.687,0 h -0.423 v 6.158 h -3.85 v -6.158 h -0.447 v -0.692 h 4.72 z" style="fill:#760135;fill-opacity:1;fill-rule:evenodd;stroke:none" id="path1182"/><path d="m 239.943,158.996 h -0.969 v 0.862 h 0.969 z m 0,-1.585 h -0.969 v 0.946 h 0.969 z m 0,-1.51 h -0.969 v 0.87 h 0.969 z m 0,-1.555 h -0.969 v 0.908 h 0.969 z m -1.608,4.65 h -0.955 v 0.862 h 0.955 z m 0,-1.585 h -0.955 v 0.946 h 0.955 z m 0,-1.51 h -0.955 v 0.87 h 0.955 z m 0,-1.555 h -0.955 v 0.908 h 0.955 z m 2.671,0 h -0.423 v 6.158 h -3.849 v -6.158 h -0.447 v -0.692 h 4.719 z" style="fill:#760135;fill-opacity:1;fill-rule:evenodd;stroke:none" id="path1184"/><path d="m 252.338,158.996 h -0.97 v 0.862 h 0.97 z m 0,-1.585 h -0.97 v 0.946 h 0.97 z m 0,-1.51 h -0.97 v 0.87 h 0.97 z m 0,-1.555 h -0.97 v 0.908 h 0.97 z m -1.617,4.65 h -0.955 v 0.862 h 0.955 z m 0,-1.585 h -0.955 v 0.946 h 0.955 z m 0,-1.51 h -0.955 v 0.87 h 0.955 z m 0,-1.555 h -0.955 v 0.908 h 0.955 z m 2.687,0 h -0.424 v 6.158 h -3.849 v -6.158 h -0.454 v -0.692 h 4.727 z" style="fill:#760135;fill-opacity:1;fill-rule:evenodd;stroke:none" id="path1186"/><g id="g1188" transform="translate(105.9868,142.8609)" style="fill-rule:evenodd"><path d="M 0,0 V -1.741 H -1.833 L -1.84,0 Z m 0,-4.119 h -1.809 l -0.015,1.74 H 0 Z m -4.165,0 v 1.74 h 1.694 l 0.023,-1.74 z m 0,4.119 h 1.678 l 0.016,-1.741 h -1.694 z m -0.639,0.638 v -5.403 h 2.672 0.007 2.779 v 5.403 h -2.825 z" style="fill:#760135;fill-opacity:1;fill-rule:evenodd;stroke:none" id="path1190"/></g><g id="g1192" transform="translate(114.2388,140.4815)" style="fill-rule:evenodd"><path d="M 0,0 H 1.694 L 1.709,-1.74 H 0 Z M 0,2.379 H 1.678 L 1.686,0.638 H 0 Z m 4.166,0 V 0.638 H 2.333 L 2.318,2.379 Z m 0,-4.119 H 2.348 L 2.333,0 h 1.833 z m -4.812,-0.646 h 2.679 2.779 v 5.404 h -5.458 z" style="fill:#760135;fill-opacity:1;fill-rule:evenodd;stroke:none" id="path1194"/></g><g id="g1196" transform="translate(130.7593,142.8609)" style="fill-rule:evenodd"><path d="M 0,0 V -1.741 H -1.832 L -1.847,0 Z m 0,-4.119 h -1.816 l -0.016,1.74 H 0 Z m -4.165,0 v 1.74 h 1.694 l 0.008,-1.74 z m 0,4.119 h 1.664 l 0.023,-1.741 h -1.687 z m -0.646,0.638 v -5.403 h 2.672 0.007 2.779 v 5.403 h -2.825 z" style="fill:#760135;fill-opacity:1;fill-rule:evenodd;stroke:none" id="path1198"/></g><g id="g1200" transform="translate(143.1924,142.8609)" style="fill-rule:evenodd"><path d="M 0,0 V -1.741 H -1.84 L -1.856,0 Z m 0,-4.119 h -1.817 l -0.015,1.74 H 0 Z m -4.172,0 v 1.74 h 1.693 l 0.016,-1.74 z m 0,4.119 h 1.67 l 0.023,-1.741 h -1.693 z m -0.64,0.638 v -5.403 h 2.672 2.778 v 5.403 h -2.817 z" style="fill:#760135;fill-opacity:1;fill-rule:evenodd;stroke:none" id="path1202"/></g><g id="g1204" transform="translate(155.5562,142.8609)" style="fill-rule:evenodd"><path d="M 0,0 V -1.741 H -1.833 L -1.848,0 Z m 0,-4.119 h -1.817 l -0.016,1.74 H 0 Z m -4.172,0 v 1.74 h 1.7 l 0.015,-1.74 z m 0,4.119 h 1.677 l 0.016,-1.741 h -1.693 z m -0.64,0.638 v -5.403 h 2.679 2.771 v 5.403 h -2.809 z" style="fill:#760135;fill-opacity:1;fill-rule:evenodd;stroke:none" id="path1206"/></g><g id="g1208" transform="translate(167.9727,142.8609)" style="fill-rule:evenodd"><path d="M 0,0 V -1.741 H -1.84 L -1.847,0 Z m 0,-4.119 h -1.808 l -0.016,1.74 H 0 Z m -4.165,0 v 1.74 h 1.694 l 0.015,-1.74 z m 0,4.119 h 1.671 l 0.016,-1.741 h -1.687 z m -0.646,0.638 v -5.403 h 2.672 0.007 2.779 V 0.638 H -2.17 Z" style="fill:#760135;fill-opacity:1;fill-rule:evenodd;stroke:none" id="path1210"/></g><g id="g1212" transform="translate(191.2217,142.8609)" style="fill-rule:evenodd"><path d="M 0,0 V -1.741 H -1.84 L -1.855,0 Z m 0,-4.119 h -1.817 l -0.007,1.74 H 0 Z m -4.165,0 v 1.74 h 1.686 l 0.016,-1.74 z m 0,4.119 h 1.671 l 0.015,-1.741 h -1.686 z m -0.646,0.638 v -5.403 h 2.671 0.008 2.771 v 5.403 h -2.818 z" style="fill:#760135;fill-opacity:1;fill-rule:evenodd;stroke:none" id="path1214"/></g><g id="g1216" transform="translate(203.562,142.8609)" style="fill-rule:evenodd"><path d="M 0,0 V -1.741 H -1.84 L -1.848,0 Z m 0,-4.119 h -1.817 l -0.008,1.74 H 0 Z m -4.172,0 v 1.74 h 1.693 l 0.016,-1.74 z m 0,4.119 h 1.685 l 0.008,-1.741 h -1.693 z m -0.64,0.638 v -5.403 h 2.68 2.778 v 5.403 h -2.825 z" style="fill:#760135;fill-opacity:1;fill-rule:evenodd;stroke:none" id="path1218"/></g><g id="g1220" transform="translate(215.9868,142.8609)" style="fill-rule:evenodd"><path d="M 0,0 V -1.741 H -1.833 L -1.848,0 Z m 0,-4.119 h -1.817 l -0.007,1.74 H 0 Z m -4.165,0 v 1.74 h 1.694 l 0.008,-1.74 z m 0,4.119 h 1.671 l 0.023,-1.741 h -1.694 z m -0.646,0.638 v -5.403 h 2.679 2.779 v 5.403 h -2.818 z" style="fill:#760135;fill-opacity:1;fill-rule:evenodd;stroke:none" id="path1222"/></g><g id="g1224" transform="translate(228.3579,142.8609)" style="fill-rule:evenodd"><path d="M 0,0 V -1.741 H -1.832 L -1.848,0 Z m 0,-4.119 h -1.817 l -0.007,1.74 H 0 Z m -4.165,0 v 1.74 h 1.693 l 0.016,-1.74 z m 0,4.119 h 1.671 l 0.015,-1.741 h -1.686 z m 1.986,0.638 h -2.632 v -5.403 h 2.679 2.778 v 5.403 h -2.809 z" style="fill:#760135;fill-opacity:1;fill-rule:evenodd;stroke:none" id="path1226"/></g><g id="g1228" transform="translate(240.791,142.8609)" style="fill-rule:evenodd"><path d="M 0,0 V -1.741 H -1.833 L -1.848,0 Z m 0,-4.119 h -1.817 l -0.008,1.74 H 0 Z m -4.172,0 v 1.74 h 1.7 l 0.015,-1.74 z m 0,4.119 h 1.685 l 0.008,-1.741 h -1.693 z m -0.64,0.638 v -5.403 h 2.679 2.779 v 5.403 h -2.817 z" style="fill:#760135;fill-opacity:1;fill-rule:evenodd;stroke:none" id="path1230"/></g><g id="g1232" transform="translate(253.2002,142.8609)" style="fill-rule:evenodd"><path d="M 0,0 V -1.741 H -1.84 L -1.855,0 Z m 0,-4.119 h -1.817 l -0.016,1.74 H 0 Z m -4.172,0 v 1.74 h 1.701 l 0.008,-1.74 z m 0,4.119 h 1.678 l 0.015,-1.741 h -1.693 z m 1.985,0.638 h -2.624 v -5.403 h 2.671 0.008 2.771 v 5.403 h -2.818 z" style="fill:#760135;fill-opacity:1;fill-rule:evenodd;stroke:none" id="path1234"/></g><path d="m 181.299,148.511 h -7.744 v -0.646 h 7.744 z" style="fill:#760135;fill-opacity:1;fill-rule:evenodd;stroke:none" id="path1236"/><g id="g1238" transform="translate(256.9419,134.9546)" style="fill-rule:evenodd"><path d="m 0,0 h -0.877 v 7.621 c 0,3.087 -2.588,4.757 -5.02,4.757 -1.317,0 -2.54,-0.468 -3.441,-1.3 -1.016,-0.955 -1.555,-2.355 -1.555,-4.026 V 0 h -2.395 v 7.621 c 0,3.087 -2.578,4.757 -5.018,4.757 -1.325,0 -2.533,-0.468 -3.434,-1.3 -1.024,-0.955 -1.555,-2.355 -1.555,-4.026 V 0 h -2.417 v 7.621 c 0,3.087 -2.587,4.757 -5.027,4.757 -1.316,0 -2.533,-0.468 -3.433,-1.3 -1.025,-0.955 -1.563,-2.355 -1.563,-4.026 V 0 h -2.349 v 7.621 c 0,3.087 -2.586,4.757 -5.018,4.757 -1.325,0 -2.549,-0.468 -3.442,-1.3 -1.016,-0.955 -1.563,-2.355 -1.563,-4.026 V 0 h -2.401 v 7.621 c 0,3.087 -2.587,4.757 -5.027,4.757 -1.324,0 -2.541,-0.468 -3.434,-1.3 -1.016,-0.955 -1.57,-2.355 -1.57,-4.026 V 0 h -2.31 v 7.621 c 0,3.087 -2.586,4.757 -5.027,4.757 -1.323,0 -2.539,-0.468 -3.433,-1.3 -1.024,-0.955 -1.563,-2.355 -1.563,-4.026 V 0 h -2.401 v 7.36 c 0,1.747 -0.724,2.832 -1.325,3.433 -0.777,0.77 -1.839,1.209 -2.933,1.209 -2.101,0 -4.226,-1.609 -4.226,-5.197 V 0 h -2.34 v 7.621 c 0,3.087 -2.587,4.757 -5.027,4.757 -1.316,0 -2.533,-0.468 -3.433,-1.3 -1.024,-0.955 -1.556,-2.355 -1.556,-4.026 V 0 h -2.401 v 7.621 c 0,3.087 -2.595,4.757 -5.027,4.757 -1.325,0 -2.541,-0.468 -3.434,-1.3 -1.015,-0.955 -1.563,-2.355 -1.563,-4.026 V 0 h -2.347 v 7.621 c 0,3.087 -2.588,4.757 -5.019,4.757 -1.325,0 -2.541,-0.468 -3.434,-1.3 -1.024,-0.955 -1.563,-2.355 -1.563,-4.026 V 0 h -2.417 v 7.621 c 0,3.087 -2.587,4.757 -5.019,4.757 -1.325,0 -2.541,-0.468 -3.441,-1.3 -1.017,-0.955 -1.556,-2.355 -1.556,-4.026 V 0 h -2.34 v 7.621 c 0,3.087 -2.586,4.757 -5.02,4.757 -1.316,0 -2.539,-0.468 -3.432,-1.3 -1.024,-0.955 -1.564,-2.355 -1.564,-4.026 V 0 h -2.394 v 7.621 c 0,3.087 -2.586,4.757 -5.019,4.757 -1.324,0 -2.54,-0.468 -3.433,-1.3 -1.024,-0.955 -1.563,-2.355 -1.563,-4.026 V 0 h -0.832 v 22.825 l -0.092,0.231 -0.762,0.832 -0.007,0.007 c -0.008,0 -0.016,0.008 -0.031,0.016 -0.008,0.007 -0.008,0.023 -0.024,0.023 0,0.007 -0.015,0.007 -0.022,0.015 -0.015,0.008 -0.023,0.016 -0.031,0.016 -0.008,0.007 -0.016,0.007 -0.031,0.014 -0.008,0 -0.023,0.009 -0.038,0.009 H -160 c -0.008,0.008 -0.015,0.008 -0.031,0.008 h -2.787 v 5.788 H 0 Z m -1.517,0 h -8.737 v 7.052 c 0,2.324 1.347,4.68 4.357,4.68 1.116,0 2.225,-0.385 3.026,-1.069 0.884,-0.755 1.354,-1.81 1.354,-3.042 z m -12.409,0 h -8.729 v 7.052 c 0,2.324 1.347,4.68 4.349,4.68 1.124,0 2.232,-0.385 3.025,-1.069 0.885,-0.755 1.355,-1.81 1.355,-3.042 z m -12.425,0 h -8.746 v 7.052 c 0,2.324 1.356,4.68 4.358,4.68 1.123,0 2.225,-0.385 3.026,-1.069 0.885,-0.755 1.362,-1.81 1.362,-3.042 z M -38.73,0 h -8.73 v 7.052 c 0,2.324 1.34,4.68 4.358,4.68 1.116,0 2.224,-0.385 3.017,-1.069 0.885,-0.755 1.355,-1.81 1.355,-3.042 z m -12.425,0 h -8.73 v 7.052 c 0,2.324 1.34,4.68 4.35,4.68 1.123,0 2.225,-0.385 3.018,-1.069 0.893,-0.755 1.362,-1.81 1.362,-3.042 z m -12.34,0 h -8.73 v 7.052 c 0,2.324 1.34,4.68 4.349,4.68 1.125,0 2.226,-0.385 3.026,-1.069 0.885,-0.755 1.355,-1.81 1.355,-3.042 z M -75.92,1.447 h -7.19 v 5.358 c 0,3.149 1.801,4.558 3.579,4.558 1.795,0 3.611,-1.378 3.611,-4.003 z m 0,-1.447 h -7.19 v 0.801 h 7.19 z m -10.824,0 h -8.737 v 7.052 c 0,2.324 1.354,4.68 4.357,4.68 1.124,0 2.224,-0.385 3.025,-1.069 0.886,-0.755 1.355,-1.81 1.355,-3.042 z m -12.417,0 h -8.729 v 7.052 c 0,2.324 1.347,4.68 4.349,4.68 1.124,0 2.232,-0.385 3.025,-1.069 0.893,-0.755 1.355,-1.81 1.355,-3.042 z m -12.372,0 h -8.729 v 7.052 c 0,2.324 1.347,4.68 4.358,4.68 1.123,0 2.224,-0.385 3.017,-1.069 0.893,-0.755 1.354,-1.81 1.354,-3.042 z m -12.424,0 h -8.738 v 7.052 c 0,2.324 1.348,4.68 4.358,4.68 1.124,0 2.217,-0.385 3.025,-1.069 0.877,-0.755 1.355,-1.81 1.355,-3.042 z m -12.356,0 h -8.737 v 7.052 c 0,2.324 1.347,4.68 4.356,4.68 1.125,0 2.233,-0.385 3.026,-1.069 0.886,-0.755 1.355,-1.81 1.355,-3.042 z m -12.409,0 h -8.738 v 7.052 c 0,2.324 1.355,4.68 4.357,4.68 1.124,0 2.225,-0.385 3.026,-1.069 0.885,-0.755 1.355,-1.81 1.355,-3.042 z m -10.894,16.251 h -3.964 l -0.054,6.513 0.585,0.539 h 2.856 l 0.577,-0.616 z m 0,-7.744 h -4.757 v 6.435 l 0.601,0.623 h 4.156 z m 0,-8.507 h -5.565 v 7.22 l 0.6,0.592 h 4.965 z m -0.989,36.42 H -2.198 l 5.15,-5.82 h -168.703 z m 165.358,-6.636 -6.466,7.313 -0.116,0.139 h -159.138 l -6.585,-7.452 h 4.003 V 23.78 l -0.663,-0.616 -0.106,-0.254 0.045,-6.867 -0.693,-0.724 c -0.061,-0.069 -0.1,-0.153 -0.1,-0.238 V 8.314 l -0.808,-0.801 V -0.685 H 0.693 v 30.469 z" style="fill:#760135;fill-opacity:1;fill-rule:evenodd;stroke:none" id="path1240"/></g><path d="m 230.04,110.282 h -11.971 v 12.171 h 11.971 z m -15.969,2.44 h 0.012 v 2.587 h -3.706 l -3.362,2.355 h 0.002 v 2.079 h -2.971 l -3.118,2.184 v 1.681 h -2.4 l -2.099,1.47 h 0.003 v 1.663 h -2.377 l -8.418,5.896 31.755,-9.975 v -12.266 z m -0.655,0.677 h -72.455 v 1.232 h 72.455 z m -73.12,-0.674 -3.331,-2.333 v 12.086 l 31.766,10.159 -8.42,-5.896 h -2.347 v -1.644 l -2.127,-1.489 h -2.404 v -1.684 l -3.115,-2.181 h -2.974 v -2.079 h 0.005 l -3.363,-2.355 h -3.69 z m -15.972,-2.443 v 12.171 h 11.905 l 0.058,-10.262 v -1.909 z m 41.154,22.003 -28.857,-9.147 h -9.92 z m -8.468,-8.677 2.104,1.47 h 36.131 l 2.104,-1.47 z m 43.314,-1.078 h -46.286 v 0.462 h 46.286 z m -48.846,-2.787 3.107,2.171 h 45.188 l 3.107,-2.171 z m 57.749,-4.434 h -64.096 l 3.371,2.355 h 57.354 z m -2.846,3.002 h -58.402 v 0.785 h 58.402 z m -10.528,7.352 h -37.301 v 0.493 h 37.301 z m 31.802,-2.525 h -9.654 l -28.934,9.102 z m 31.9,-0.008 h -28.837 v 0.008 h -0.102 l -48.203,11.37 0.122,-0.211 -0.886,0.28 1.215,-0.849 0.016,-0.028 0.037,-0.009 9.948,-6.95 h -31.37 l 9.949,6.951 0.032,0.008 0.014,0.024 1.221,0.854 -0.891,-0.283 0.124,0.213 -48.203,-11.37 h -0.094 V 123.13 H 90.475 v -0.677 h 33.172 v -12.849 h 12.085 1.233 l 4.118,2.877 0.345,0.241 h 71.501 l 4.463,-3.118 h 13.326 v 12.849 h 28.837 z" style="fill:#760135;fill-opacity:1;fill-rule:evenodd;stroke:none" id="path1242"/></g></g></g></svg>